<?xml version="1.0" encoding="UTF-8"?>
<svg id="Layer_1" xmlns="http://www.w3.org/2000/svg" viewBox="0 0 310.98 310.98">
  <defs>
    <style>
      .cls-1 {
        fill: #145c80;
      }

      .cls-2 {
        stroke: #fff;
        stroke-miterlimit: 10;
      }

      .cls-2, .cls-3 {
        fill: #fff;
      }
    </style>
  </defs>
  <g>
    <g>
      <circle class="cls-3" cx="155.49" cy="155.49" r="150.37"/>
      <path class="cls-1" d="M155.49,310.98C69.75,310.98,0,241.23,0,155.49S69.75,0,155.49,0s155.49,69.75,155.49,155.49-69.75,155.49-155.49,155.49ZM155.49,10.25C75.4,10.25,10.25,75.4,10.25,155.49s65.16,145.24,145.24,145.24,145.24-65.15,145.24-145.24S235.58,10.25,155.49,10.25Z"/>
    </g>
    <circle class="cls-1" cx="155.5" cy="154.85" r="139.05"/>
  </g>
  <g>
    <path class="cls-2" d="M219.88,231.95c-.31.54-.64,1.07-.97,1.59-12.39,19.76-34.93,32.16-58.61,31.27-35.94-.89-65.06-31.16-64.59-67.1.03-4.9.62-9.84,1.73-14.61,4.4-19.01,17.17-35.29,34.52-44.2,3.02-1.55,6.19-2.89,9.41-3.96,7.55-2.52,15.56-3.65,23.51-3.37.14,0,.26-.1.28-.24.02-.16-.1-.29-.26-.3-12.34-1.51-25.16.82-36.36,6.4-14.57,7.2-26.25,19.8-32.53,34.77-6.97,16.51-7.19,35.68-.66,52.37,7.35,18.99,22.93,34.14,42.16,40.87,15.98,5.65,34.07,5.19,49.7-1.4,13.89-5.76,26.07-18.13,33.17-31.38"/>
    <path class="cls-2" d="M100.51,231.93c20.12-33.04,40.17-67.45,59.63-100.9l.09-.15h.17c11.84-.13,23.58,3.14,34.04,8.59,9.15,4.85,17.55,11.67,23.38,20.34.26.39.76,1.15,1.01,1.53.58.95.91,2.05.92,3.16.02,1.38-.46,2.75-1.3,3.84-1.09,1.52-2.27,2.98-3.5,4.39-11.17,12.43-28.87,23.78-45.5,26.5-2.96.48-5.96.72-8.97.73l-.05-2.65h1.19c11.82.33,23.62,3.48,33.95,9.26,8.96,5.02,16.65,12.28,22.05,21.02.99,1.61,1.91,3.26,2.76,4.94.04.08,0,.17-.07.21-.07.04-.16,0-.21-.06l-.59-.96c-6.01-9.84-14.7-18.05-24.92-23.34-7.86-4.12-16.5-6.7-25.29-7.84-2.74-.35-5.49-.58-8.25-.57h-.52l-.05-2.64c20.1-.03,36.97-7.06,49.87-22.73,2.11-2.49,4.1-5.08,5.96-7.75.92-1.17,1.08-2.83.3-4.12-4.07-6.69-9.03-12.9-15.16-17.84-11.44-9.19-26.42-13.57-41-13.36l.26-.16c-4.26,7.29-10.29,17.99-14.63,25.38-9.32,16.16-19.9,34.69-28.99,50.93-4.15,7.42-10.22,18.22-14.26,25.6-.35.64-1.16.88-1.8.52-.66-.36-.89-1.21-.49-1.86h-.03Z"/>
    <path class="cls-2" d="M161.59,197.83c12.45,19.69,10.44,45.13.92,65.58-.63,1.36-1.3,2.71-2.04,4.02,1.37-2.67,2.49-5.46,3.51-8.28,4.96-13.95,6.75-29.52,2.73-43.91-1.58-5.69-4.1-11.09-7.35-15.98-.93-1.5,1.21-2.93,2.24-1.43h0Z"/>
    <path class="cls-2" d="M160.42,132.41c6.03,8.91,9.36,20.14,9.93,30.85.13,2.1.1,4.49,0,6.6-.04,1.02-.19,2.28-.26,3.3-.15,1.06-.27,2.23-.44,3.28l-.4,2.17c-.17,1.05-.49,2.19-.72,3.23-.78,3.18-1.86,6.39-3.12,9.42-.45,1.2-1.27,2.85-1.81,4.02l-.23.5-.26.49c-.36.69-1.18,2.23-1.54,2.92l-1.01,1.91c-.48-.72-1.44-2.06-1.86-2.77-1.36-2.2-2.51-4.56-3.52-6.94-8.09-19.61-5.42-40.92,5.22-58.99h.02ZM160.42,132.41c-3.48,7.52-6.04,15.41-7.19,23.59-1.86,13.65.37,28.01,7.2,40.04.34.59.7,1.17,1.08,1.73l-2.24.12c.36-.66,1.16-2.19,1.5-2.82.13-.23.37-.71.48-.95.34-.71,1.04-2.2,1.35-2.89.24-.6.96-2.32,1.22-2.95,1.51-3.95,2.7-8.08,3.48-12.25,2.66-14.74.21-30.42-6.89-43.63h.01Z"/>
  </g>
  <g>
    <path class="cls-2" d="M68.89,80.96c.22.23.33.52.33.86v17.5c0,.34-.11.62-.33.84-.22.22-.5.33-.84.33s-.62-.11-.84-.33c-.22-.22-.33-.5-.33-.84v-2.61c-.65,1.17-1.63,2.15-2.94,2.96-1.31.8-2.73,1.21-4.27,1.21-1.75,0-3.32-.45-4.72-1.36s-2.49-2.15-3.29-3.73-1.19-3.36-1.19-5.33.4-3.74,1.21-5.31c.81-1.57,1.91-2.79,3.31-3.68,1.4-.88,2.94-1.32,4.64-1.32,1.57,0,3,.38,4.31,1.13,1.3.75,2.28,1.74,2.94,2.96v-2.41c0-.34.11-.62.33-.86.22-.23.5-.35.84-.35s.62.12.84.35h0ZM63.57,97.63c1.08-.71,1.93-1.7,2.54-2.96s.92-2.66.92-4.22-.31-2.88-.92-4.12c-.61-1.24-1.46-2.22-2.54-2.94-1.08-.71-2.3-1.07-3.66-1.07s-2.58.35-3.66,1.05-1.93,1.67-2.54,2.9-.92,2.63-.92,4.18.3,2.96.9,4.22c.6,1.26,1.44,2.24,2.52,2.96,1.08.71,2.32,1.07,3.7,1.07s2.58-.36,3.66-1.07Z"/>
    <path class="cls-2" d="M87.44,80.56c1.06.27,1.91.64,2.54,1.11.64.47.96.97.96,1.52,0,.29-.1.54-.29.78-.2.23-.44.35-.72.35-.26,0-.48-.05-.65-.16-.17-.1-.36-.26-.57-.47-.34-.34-.67-.58-.98-.74-.39-.18-.91-.33-1.55-.45-.64-.12-1.32-.17-2.05-.17-1.44,0-2.75.36-3.93,1.09-1.19.73-2.12,1.71-2.8,2.96-.68,1.24-1.02,2.62-1.02,4.12s.33,2.96.98,4.2,1.56,2.22,2.72,2.94c1.16.71,2.48,1.07,3.97,1.07.94,0,1.69-.08,2.25-.23.56-.16,1.12-.38,1.66-.66.18-.1.5-.34.94-.7.21-.18.39-.32.55-.41.16-.09.33-.14.51-.14.31,0,.56.1.74.29s.27.45.27.76c0,.44-.31.91-.94,1.42-.63.51-1.49.94-2.58,1.3-1.1.36-2.31.54-3.64.54-1.91,0-3.6-.45-5.09-1.34s-2.64-2.13-3.46-3.71-1.23-3.36-1.23-5.33.42-3.62,1.25-5.19,2.01-2.82,3.52-3.75c1.51-.93,3.25-1.4,5.21-1.4,1.23,0,2.37.14,3.42.41h.01Z"/>
    <path class="cls-2" d="M107.56,80.56c1.06.27,1.9.64,2.54,1.11s.96.97.96,1.52c0,.29-.1.54-.29.78s-.44.35-.72.35c-.26,0-.48-.05-.65-.16-.17-.1-.36-.26-.57-.47-.34-.34-.67-.58-.98-.74-.39-.18-.91-.33-1.55-.45s-1.33-.17-2.05-.17c-1.44,0-2.75.36-3.93,1.09-1.19.73-2.12,1.71-2.8,2.96s-1.02,2.62-1.02,4.12.33,2.96.98,4.2,1.56,2.22,2.72,2.94c1.16.71,2.49,1.07,3.97,1.07.94,0,1.69-.08,2.25-.23.56-.16,1.12-.38,1.66-.66.18-.1.5-.34.94-.7.21-.18.39-.32.55-.41.16-.09.33-.14.51-.14.31,0,.56.1.74.29s.27.45.27.76c0,.44-.31.91-.94,1.42-.63.51-1.49.94-2.58,1.3s-2.31.54-3.64.54c-1.9,0-3.6-.45-5.09-1.34s-2.64-2.13-3.46-3.71-1.23-3.36-1.23-5.33.42-3.62,1.25-5.19c.84-1.57,2.01-2.82,3.52-3.75s3.25-1.4,5.21-1.4c1.23,0,2.37.14,3.43.41h0Z"/>
    <path class="cls-2" d="M132.16,90.2c-.23.22-.51.33-.82.33h-14.79c0,1.56.32,2.95.96,4.18s1.55,2.2,2.74,2.92c1.19.71,2.59,1.07,4.21,1.07,1.25,0,2.38-.26,3.37-.78.99-.52,1.79-1.18,2.39-1.98.29-.23.56-.35.82-.35s.49.1.71.31c.21.21.31.44.31.7,0,.29-.13.56-.39.82-.83,1.01-1.88,1.84-3.15,2.49s-2.6.97-4.01.97c-2.01,0-3.78-.43-5.32-1.28-1.54-.86-2.74-2.05-3.6-3.6-.86-1.54-1.29-3.33-1.29-5.35,0-2.13.42-3.99,1.27-5.58.85-1.59,1.98-2.81,3.38-3.66,1.41-.84,2.91-1.26,4.5-1.26s3.03.36,4.4,1.09c1.37.73,2.48,1.79,3.35,3.19.86,1.4,1.3,3.06,1.33,4.98,0,.31-.12.58-.35.8h-.02ZM119.23,83.96c-1.29,1.04-2.12,2.53-2.49,4.47h13.35v-.31c-.13-1.17-.52-2.18-1.17-3.05s-1.47-1.53-2.45-1.98c-.98-.45-1.99-.68-3.03-.68-1.51,0-2.92.52-4.21,1.56h0Z"/>
    <path class="cls-2" d="M135.92,96.48c0-.34.17-.6.51-.78.16-.16.37-.23.63-.23.31,0,.6.13.86.39,1.54,2.02,3.59,3.03,6.14,3.03,1.25,0,2.34-.29,3.27-.88.93-.58,1.39-1.43,1.39-2.55s-.43-1.91-1.29-2.45-2.06-1.01-3.6-1.4c-2.17-.54-3.86-1.25-5.09-2.12s-1.84-2.15-1.84-3.83c0-1.06.3-2.02.9-2.86.6-.84,1.41-1.5,2.45-1.96s2.2-.7,3.5-.7c1.12,0,2.25.21,3.38.64,1.14.43,2.11,1.11,2.92,2.04.24.18.35.44.35.78,0,.31-.13.58-.39.82-.18.16-.42.23-.7.23-.26,0-.5-.1-.71-.31-.63-.7-1.37-1.23-2.23-1.59-.86-.36-1.79-.54-2.78-.54-1.23,0-2.28.29-3.15.86-.88.57-1.31,1.43-1.31,2.57.05,1.04.53,1.83,1.43,2.37s2.22,1.04,3.97,1.48c1.36.34,2.48.71,3.37,1.13s1.61,1,2.17,1.75.84,1.75.84,2.99c0,1.69-.68,3.03-2.04,4.03s-3.04,1.5-5.05,1.5c-3.18,0-5.71-1.18-7.59-3.54-.21-.34-.31-.62-.31-.86h0Z"/>
    <path class="cls-2" d="M154.28,96.48c0-.34.17-.6.51-.78.16-.16.37-.23.63-.23.31,0,.6.13.86.39,1.54,2.02,3.59,3.03,6.15,3.03,1.25,0,2.34-.29,3.27-.88s1.39-1.43,1.39-2.55-.43-1.91-1.29-2.45-2.06-1.01-3.6-1.4c-2.17-.54-3.86-1.25-5.09-2.12s-1.84-2.15-1.84-3.83c0-1.06.3-2.02.9-2.86.6-.84,1.42-1.5,2.45-1.96s2.2-.7,3.5-.7c1.12,0,2.25.21,3.39.64,1.13.43,2.11,1.11,2.92,2.04.23.18.35.44.35.78,0,.31-.13.58-.39.82-.18.16-.42.23-.71.23-.26,0-.5-.1-.71-.31-.62-.7-1.37-1.23-2.23-1.59-.86-.36-1.79-.54-2.78-.54-1.23,0-2.28.29-3.15.86-.88.57-1.31,1.43-1.31,2.57.05,1.04.53,1.83,1.43,2.37s2.22,1.04,3.97,1.48c1.36.34,2.48.71,3.37,1.13s1.61,1,2.17,1.75.84,1.75.84,2.99c0,1.69-.68,3.03-2.04,4.03s-3.04,1.5-5.05,1.5c-3.19,0-5.71-1.18-7.59-3.54-.21-.34-.31-.62-.31-.86h0Z"/>
    <path class="cls-2" d="M198.98,81.47c1.41.88,2.51,2.11,3.31,3.68.79,1.57,1.19,3.34,1.19,5.31s-.4,3.71-1.19,5.31c-.8,1.59-1.89,2.85-3.29,3.75-1.4.91-2.96,1.36-4.68,1.36-1.49,0-2.87-.37-4.13-1.11-1.27-.74-2.29-1.72-3.07-2.94v2.57c0,.34-.11.62-.33.86-.22.23-.5.35-.84.35s-.62-.12-.84-.35c-.22-.23-.33-.52-.33-.86v-26.49c0-.34.11-.62.33-.84.22-.22.5-.33.84-.33s.62.11.84.33.33.5.33.84v11.47c.71-1.27,1.7-2.29,2.97-3.07,1.28-.78,2.68-1.17,4.19-1.17,1.72,0,3.29.44,4.7,1.32h0ZM197.74,97.61c1.08-.73,1.93-1.72,2.54-2.98s.92-2.65.92-4.18-.31-2.95-.92-4.18-1.46-2.2-2.54-2.9c-1.08-.7-2.3-1.05-3.66-1.05s-2.62.34-3.72,1.03-1.95,1.65-2.54,2.9-.9,2.65-.9,4.2.31,2.96.92,4.22,1.46,2.24,2.54,2.96c1.08.71,2.31,1.07,3.7,1.07s2.58-.36,3.66-1.09Z"/>
    <path class="cls-2" d="M225.41,80.96c.22.23.33.52.33.86v17.5c0,.34-.11.62-.33.84-.22.22-.5.33-.84.33s-.62-.11-.84-.33-.33-.5-.33-.84v-2.61c-.65,1.17-1.63,2.15-2.94,2.96-1.3.8-2.73,1.21-4.27,1.21-1.75,0-3.32-.45-4.72-1.36s-2.49-2.15-3.29-3.73c-.8-1.58-1.19-3.36-1.19-5.33s.4-3.74,1.21-5.31c.81-1.57,1.91-2.79,3.31-3.68,1.4-.88,2.94-1.32,4.64-1.32,1.57,0,3,.38,4.3,1.13s2.28,1.74,2.94,2.96v-2.41c0-.34.11-.62.33-.86.22-.23.5-.35.84-.35s.62.12.84.35h0ZM220.09,97.63c1.08-.71,1.93-1.7,2.54-2.96s.92-2.66.92-4.22-.31-2.88-.92-4.12c-.61-1.24-1.46-2.22-2.54-2.94-1.08-.71-2.3-1.07-3.66-1.07s-2.58.35-3.66,1.05c-1.08.7-1.93,1.67-2.54,2.9s-.92,2.63-.92,4.18.3,2.96.9,4.22c.6,1.26,1.44,2.24,2.52,2.96,1.08.71,2.32,1.07,3.7,1.07s2.58-.36,3.66-1.07Z"/>
    <path class="cls-2" d="M242.66,80.46c.42.21.63.52.63.93,0,.36-.11.66-.31.88-.21.22-.46.33-.74.33-.13,0-.39-.06-.76-.19-.38-.13-.74-.19-1.08-.19-.97,0-1.93.37-2.88,1.11-.95.74-1.74,1.69-2.35,2.86s-.92,2.35-.92,3.54v9.61c0,.34-.11.62-.33.84-.22.22-.5.33-.84.33s-.62-.11-.84-.33-.33-.5-.33-.84v-17.42c0-.34.11-.62.33-.84.22-.22.5-.33.84-.33s.62.11.84.33.33.5.33.84v3.42c.6-1.48,1.51-2.7,2.72-3.68s2.64-1.47,4.29-1.5c.52,0,.99.1,1.41.31h0Z"/>
    <path class="cls-2" d="M245.51,96.48c0-.34.17-.6.51-.78.16-.16.37-.23.63-.23.31,0,.6.13.86.39,1.54,2.02,3.59,3.03,6.15,3.03,1.25,0,2.34-.29,3.27-.88.93-.59,1.39-1.43,1.39-2.55s-.43-1.91-1.29-2.45-2.06-1.01-3.6-1.4c-2.17-.54-3.86-1.25-5.09-2.12s-1.84-2.15-1.84-3.83c0-1.06.3-2.02.9-2.86.6-.84,1.42-1.5,2.45-1.96s2.2-.7,3.5-.7c1.12,0,2.25.21,3.39.64,1.13.43,2.11,1.11,2.92,2.04.23.18.35.44.35.78,0,.31-.13.58-.39.82-.18.16-.42.23-.71.23-.26,0-.5-.1-.71-.31-.62-.7-1.37-1.23-2.23-1.59-.86-.36-1.79-.54-2.78-.54-1.23,0-2.28.29-3.15.86-.88.57-1.31,1.43-1.31,2.57.05,1.04.53,1.83,1.43,2.37s2.22,1.04,3.97,1.48c1.36.34,2.48.71,3.37,1.13s1.61,1,2.17,1.75.84,1.75.84,2.99c0,1.69-.68,3.03-2.04,4.03-1.36,1-3.04,1.5-5.05,1.5-3.19,0-5.71-1.18-7.59-3.54-.21-.34-.31-.62-.31-.86h-.01Z"/>
  </g>
</svg>