<?xml version="1.0" encoding="UTF-8"?>
<svg id="Layer_1" xmlns="http://www.w3.org/2000/svg" xmlns:xlink="http://www.w3.org/1999/xlink" viewBox="0 0 8192 5792.32">
  <defs>
    <style>
      .cls-1 {
        fill: #145c80;
      }

      .cls-2 {
        opacity: .54;
      }

      .cls-3 {
        fill: #fff;
      }

      .cls-4 {
        fill: none;
      }

      .cls-5 {
        opacity: .06;
      }

      .cls-6 {
        clip-path: url(#clippath);
      }
    </style>
    <clipPath id="clippath">
      <rect class="cls-4" x="1200.12" y="-1197.54" width="5791.76" height="8187.97" transform="translate(6992.44 -1199.56) rotate(90)"/>
    </clipPath>
  </defs>
  <rect class="cls-1" x="1199.84" y="-1199.84" width="5792.32" height="8192" transform="translate(6992.16 -1199.84) rotate(90)"/>
  <g class="cls-2">
    <g class="cls-6">
      <g class="cls-5">
        <path class="cls-4" d="M5407.43,5354.14c-790.98,481.04-1286.01,1346.13-1304.03,2278.86,791.61-482.06,1286.63-1347.15,1304.03-2278.86Z"/>
        <path class="cls-4" d="M5779.37,5503.05c279.67,222.4,514.76,497.77,690.34,811.2,168.67,301.1,279.99,631.69,328.97,972.49,49-340.81,160.32-671.4,329-972.49,175.78-313.77,411.18-589.39,691.25-811.92-316.71,127.31-655.75,195.18-998.13,198.34-356.82,3.29-710.71-64.44-1041.44-197.63Z"/>
        <path class="cls-4" d="M5494.67,5303.32c808.39,450.64,1798.42,450.64,2608,0-809.58-450.64-1799.62-450.64-2608,0Z"/>
        <path class="cls-4" d="M5787.6,6711.61c-181.23-310.14-300.04-653.24-351.09-1008.83-51.05,355.59-169.86,698.69-351.1,1008.83-174.1,297.94-402.2,560.5-670.23,773.71,317.02-127.6,656.44-195.63,999.22-198.78,357.18-3.29,711.42,64.58,1042.43,198.02-267.6-213.07-495.34-475.37-669.23-772.95Z"/>
        <path class="cls-4" d="M3063.19,6711.61c-181.23-310.14-300.04-653.24-351.09-1008.83-51.05,355.59-169.86,698.69-351.1,1008.83-174.1,297.94-402.2,560.5-670.23,773.7,317.02-127.6,656.44-195.62,999.22-198.78,357.18-3.29,711.42,64.58,1042.43,198.02-267.6-213.07-495.35-475.37-669.24-772.95Z"/>
        <path class="cls-4" d="M5465.59,5354.14c17.4,931.7,512.41,1796.8,1303.98,2278.86-17.97-932.73-512.99-1797.82-1303.98-2278.86Z"/>
        <path class="cls-4" d="M2741.18,5354.14c17.4,931.7,512.41,1796.8,1303.98,2278.86-17.97-932.73-512.99-1797.82-1303.98-2278.86Z"/>
        <path class="cls-4" d="M2683.03,5354.14c-790.97,481.04-1286.01,1346.13-1304.03,2278.86,791.6-482.05,1286.62-1347.15,1304.03-2278.86Z"/>
        <path class="cls-4" d="M-1316.26,2922.75c809.59,450.64,1799.63,450.64,2608.01,0-808.38-450.63-1798.42-450.64-2608.01,0Z"/>
        <path class="cls-4" d="M1320.77,2973.63C529.2,3455.7,34.19,4320.8,16.79,5252.5c790.99-481.05,1286-1346.14,1303.98-2278.87Z"/>
        <path class="cls-4" d="M1008.04,3122.07c-331.01,133.45-685.26,201.33-1042.44,198.03-342.77-3.16-682.19-71.19-999.22-198.79,268.03,213.21,496.13,475.77,670.23,773.71,181.23,310.14,300.05,653.24,351.1,1008.83,51.05-355.58,169.86-698.68,351.09-1008.83,173.89-297.58,401.64-559.88,669.24-772.95Z"/>
        <path class="cls-4" d="M2370.14,5502.34c-316.71,127.31-655.74,195.18-998.12,198.34-356.82,3.29-710.71-64.44-1041.44-197.63,279.67,222.4,514.76,497.77,690.34,811.2,168.67,301.1,279.99,631.69,328.97,972.5,49-340.81,160.32-671.4,329-972.5,175.78-313.77,411.18-589.39,691.25-811.92Z"/>
        <path class="cls-4" d="M45.87,5303.32c808.39,450.64,1798.42,450.64,2608,0-809.58-450.64-1799.62-450.64-2608,0Z"/>
        <path class="cls-4" d="M8102.67,542.18c-809.58-450.64-1799.62-450.64-2608,0,808.39,450.64,1798.42,450.64,2608,0Z"/>
        <path class="cls-4" d="M5407.43,491.35c-17.41-931.71-512.43-1796.81-1304.03-2278.87,18.02,932.74,513.06,1797.83,1304.03,2278.87Z"/>
        <path class="cls-4" d="M6827.79,2973.63c18.02,932.74,513.06,1797.83,1304.03,2278.87-17.41-931.71-512.43-1796.81-1304.03-2278.87Z"/>
        <path class="cls-4" d="M5465.59,491.35c790.99-481.05,1286.01-1346.14,1303.98-2278.87-791.57,482.07-1286.58,1347.17-1303.98,2278.87Z"/>
        <path class="cls-4" d="M1320.77-1787.52C529.2-1305.45,34.19-440.34,16.79,491.35,807.78,10.31,1302.79-854.79,1320.77-1787.52Z"/>
        <path class="cls-4" d="M5085.41-866.11c181.23,310.14,300.05,653.24,351.1,1008.83,51.05-355.58,169.86-698.68,351.09-1008.83,173.89-297.58,401.64-559.88,669.24-772.95-331.02,133.45-685.26,201.33-1042.44,198.03-342.78-3.16-682.19-71.19-999.22-198.79,268.03,213.21,496.13,475.77,670.24,773.71Z"/>
        <path class="cls-4" d="M9464.94,2922.75c-808.38-450.64-1798.42-450.64-2608,0,809.58,450.64,1799.63,450.64,2608,0Z"/>
        <path class="cls-4" d="M8138.79,3320.11c-342.78-3.16-682.19-71.19-999.21-198.79,268.03,213.2,496.13,475.77,670.23,773.71,181.23,310.14,300.05,653.24,351.1,1008.83,51.05-355.58,169.86-698.68,351.09-1008.83,173.89-297.58,401.64-559.88,669.24-772.95-331.02,133.45-685.26,201.33-1042.44,198.03Z"/>
        <path class="cls-4" d="M7139.58,2724.18c317.03-127.6,656.44-195.63,999.22-198.78,357.18-3.29,711.42,64.58,1042.43,198.02-267.6-213.07-495.34-475.36-669.23-772.94-181.23-310.14-300.04-653.24-351.09-1008.83-51.05,355.59-169.86,698.69-351.1,1008.83-174.1,297.94-402.2,560.5-670.23,773.71Z"/>
        <path class="cls-4" d="M1008.03,2723.42c-267.6-213.07-495.35-475.37-669.23-772.94C157.57,1640.33,38.76,1297.22-12.29,941.64c-51.05,355.59-169.86,698.69-351.1,1008.83-174.1,297.94-402.2,560.5-670.23,773.7,317.03-127.6,656.44-195.62,999.22-198.78,357.18-3.29,711.42,64.58,1042.43,198.02Z"/>
        <path class="cls-4" d="M5779.38,342.44c330.73-133.18,684.62-200.92,1041.43-197.62,342.38,3.16,681.42,71.03,998.13,198.34-280.07-222.53-515.47-498.15-691.25-811.92-168.68-301.1-280-631.69-329-972.5-48.99,340.81-160.3,671.4-328.97,972.5-175.58,313.43-410.66,588.8-690.34,811.2Z"/>
        <path class="cls-4" d="M6827.79,2871.87c791.61-482.06,1286.63-1347.15,1304.03-2278.86-790.98,481.04-1286.01,1346.13-1304.03,2278.86Z"/>
        <path class="cls-4" d="M2683.03,491.35c-17.41-931.71-512.43-1796.81-1304.03-2278.87C1397.02-854.78,1892.05,10.32,2683.03,491.35Z"/>
        <path class="cls-4" d="M3745.32,1553.11c168.67,301.09,279.99,631.69,328.97,972.49,49-340.81,160.32-671.39,329-972.49,175.78-313.77,411.18-589.39,691.25-811.92-316.71,127.31-655.75,195.18-998.13,198.34-356.81,3.29-710.71-64.44-1041.44-197.62,279.68,222.4,514.76,497.77,690.34,811.2Z"/>
        <path class="cls-4" d="M2370.14,741.2c-316.71,127.31-655.74,195.18-998.12,198.34-356.82,3.29-710.71-64.44-1041.44-197.63,279.67,222.4,514.76,497.77,690.34,811.2,168.67,301.1,279.99,631.69,328.97,972.5,49-340.81,160.32-671.4,329-972.5,175.78-313.77,411.18-589.39,691.25-811.92Z"/>
        <path class="cls-4" d="M2770.27,5303.32c808.39,450.64,1798.43,450.64,2608.01,0-809.58-450.64-1799.63-450.64-2608.01,0Z"/>
        <path class="cls-4" d="M2683.03,593c-790.97,481.04-1286.01,1346.13-1304.03,2278.86,791.6-482.05,1286.62-1347.15,1304.03-2278.86Z"/>
        <path class="cls-4" d="M1678.89,4292.39c-168.68-301.1-280-631.69-329-972.5-48.99,340.81-160.3,671.4-328.97,972.5-175.58,313.43-410.66,588.8-690.34,811.2,330.73-133.19,684.62-200.92,1041.44-197.63,342.38,3.16,681.41,71.03,998.12,198.34-280.07-222.53-515.47-498.15-691.25-811.92Z"/>
        <path class="cls-4" d="M3054.98,5503.06c279.68,222.4,514.76,497.77,690.34,811.2,168.67,301.1,279.99,631.69,328.97,972.49,49-340.81,160.32-671.4,329-972.49,175.78-313.77,411.18-589.39,691.25-811.92-316.71,127.31-655.75,195.18-998.13,198.34-356.81,3.29-710.71-64.44-1041.44-197.62Z"/>
        <path class="cls-4" d="M1379,2973.63c18.02,932.74,513.06,1797.83,1304.03,2278.87-17.41-931.71-512.43-1796.81-1304.03-2278.87Z"/>
        <path class="cls-4" d="M1320.77,2871.87C1302.79,1939.14,807.78,1074.05,16.79,593c17.4,931.7,512.41,1796.8,1303.98,2278.86Z"/>
        <path class="cls-4" d="M4045.17,2973.63c-791.57,482.07-1286.58,1347.17-1303.98,2278.87,791-481.05,1286.01-1346.14,1303.98-2278.87Z"/>
        <path class="cls-4" d="M5414.4,3320.11c-342.78-3.16-682.19-71.19-999.22-198.79,268.03,213.21,496.13,475.77,670.24,773.71,181.23,310.14,300.05,653.24,351.1,1008.83,51.05-355.58,169.86-698.68,351.09-1008.83,173.89-297.58,401.64-559.88,669.24-772.95-331.02,133.45-685.26,201.33-1042.44,198.03Z"/>
        <path class="cls-4" d="M6740.54,2922.75c-808.38-450.64-1798.41-450.64-2608,0,809.58,450.64,1799.63,450.64,2608,0Z"/>
        <path class="cls-4" d="M4103.4,2973.63c18.02,932.74,513.06,1797.83,1304.03,2278.87-17.41-931.71-512.43-1796.81-1304.03-2278.87Z"/>
        <path class="cls-4" d="M4103.4,2871.87c791.61-482.06,1286.63-1347.15,1304.03-2278.86-790.98,481.04-1286.01,1346.13-1304.03,2278.86Z"/>
        <path class="cls-4" d="M4403.29,4292.39c-168.68-301.1-280-631.69-329-972.5-48.99,340.81-160.3,671.4-328.97,972.5-175.59,313.43-410.67,588.8-690.34,811.2,330.73-133.18,684.62-200.92,1041.44-197.62,342.38,3.16,681.42,71.03,998.13,198.34-280.07-222.53-515.47-498.15-691.25-811.92Z"/>
        <path class="cls-4" d="M4045.17,2871.87c-17.97-932.73-512.99-1797.82-1303.98-2278.86,17.4,931.7,512.41,1796.8,1303.98,2278.86Z"/>
        <path class="cls-4" d="M5779.38,5103.59c330.73-133.18,684.62-200.92,1041.43-197.62,342.38,3.16,681.42,71.03,998.13,198.34-280.07-222.53-515.47-498.15-691.25-811.92-168.68-301.1-280-631.69-329-972.5-48.99,340.81-160.3,671.4-328.97,972.5-175.58,313.43-410.66,588.8-690.34,811.2Z"/>
        <path class="cls-4" d="M1408.14,2922.75c809.58,450.64,1799.63,450.64,2608,0-808.38-450.64-1798.42-450.64-2608,0Z"/>
        <path class="cls-4" d="M16.79,5354.14c17.4,931.7,512.41,1796.8,1303.98,2278.86-17.98-932.73-512.99-1797.82-1303.98-2278.86Z"/>
        <path class="cls-4" d="M2741.18,491.35C3532.18,10.31,4027.19-854.79,4045.17-1787.52c-791.57,482.07-1286.58,1347.17-1303.98,2278.87Z"/>
        <path class="cls-4" d="M1372.02,144.82c342.38,3.16,681.41,71.03,998.12,198.34-280.07-222.53-515.47-498.15-691.25-811.92-168.68-301.1-280-631.69-329-972.5-48.99,340.81-160.3,671.4-328.97,972.5C845.33-155.32,610.25,120.05,330.58,342.45c330.73-133.19,684.62-200.92,1041.44-197.63Z"/>
        <path class="cls-4" d="M2653.87,542.18c-809.58-450.64-1799.62-450.64-2608,0,808.39,450.64,1798.42,450.64,2608,0Z"/>
        <path class="cls-4" d="M2361.01-866.11c181.23,310.14,300.05,653.24,351.1,1008.83,51.05-355.58,169.86-698.68,351.09-1008.83,173.89-297.58,401.64-559.88,669.24-772.95-331.01,133.45-685.26,201.33-1042.44,198.03-342.78-3.16-682.19-71.19-999.22-198.79,268.03,213.21,496.13,475.77,670.23,773.71Z"/>
        <path class="cls-4" d="M6469.71,1553.11c168.67,301.1,279.99,631.69,328.97,972.49,49-340.81,160.32-671.39,329-972.49,175.78-313.77,411.18-589.39,691.25-811.92-316.71,127.31-655.75,195.18-998.13,198.34-356.82,3.29-710.71-64.44-1041.44-197.63,279.67,222.4,514.76,497.77,690.34,811.2Z"/>
        <path class="cls-4" d="M5465.59,5252.5c790.99-481.05,1286.01-1346.14,1303.98-2278.87-791.57,482.07-1286.58,1347.17-1303.98,2278.87Z"/>
        <path class="cls-4" d="M6769.56,2871.87c-17.97-932.73-512.99-1797.82-1303.98-2278.86,17.4,931.7,512.41,1796.8,1303.98,2278.86Z"/>
        <path class="cls-4" d="M3054.98,342.44c330.73-133.18,684.62-200.92,1041.44-197.62,342.38,3.16,681.42,71.03,998.13,198.34-280.07-222.53-515.47-498.15-691.25-811.92-168.68-301.1-280-631.69-329-972.5-48.99,340.81-160.3,671.4-328.97,972.5-175.59,313.43-410.67,588.8-690.34,811.2Z"/>
        <path class="cls-4" d="M3732.44,3122.07c-331.01,133.45-685.26,201.33-1042.44,198.03-342.78-3.16-682.19-71.19-999.22-198.79,268.03,213.21,496.13,475.77,670.23,773.71,181.23,310.14,300.05,653.24,351.1,1008.83,51.05-355.58,169.86-698.68,351.09-1008.83,173.89-297.58,401.64-559.88,669.24-772.95Z"/>
        <path class="cls-4" d="M5378.28,542.18c-809.58-450.64-1799.63-450.64-2608.01,0,808.39,450.64,1798.43,450.64,2608.01,0Z"/>
        <path class="cls-4" d="M8189.98,5252.5c790.99-481.05,1286.01-1346.14,1303.98-2278.87-791.57,482.07-1286.58,1347.17-1303.98,2278.87Z"/>
        <path class="cls-4" d="M3732.43,2723.42c-267.6-213.07-495.35-475.36-669.24-772.94-181.23-310.14-300.04-653.24-351.09-1008.83-51.05,355.59-169.86,698.69-351.1,1008.83-174.1,297.94-402.2,560.5-670.23,773.7,317.02-127.6,656.44-195.62,999.22-198.78,357.18-3.29,711.42,64.58,1042.43,198.02Z"/>
        <path class="cls-4" d="M6827.79,7633.01c791.61-482.06,1286.63-1347.15,1304.03-2278.86-790.98,481.04-1286.01,1346.13-1304.03,2278.86Z"/>
        <path class="cls-4" d="M4415.18,2724.18c317.02-127.6,656.44-195.63,999.22-198.78,357.18-3.29,711.42,64.58,1042.43,198.02-267.6-213.07-495.34-475.36-669.23-772.94-181.23-310.14-300.04-653.24-351.09-1008.83-51.05,355.59-169.86,698.69-351.1,1008.83-174.1,297.94-402.2,560.5-670.23,773.71Z"/>
        <path class="cls-4" d="M8131.83,491.35c-17.41-931.71-512.43-1796.81-1304.03-2278.87,18.02,932.74,513.06,1797.83,1304.03,2278.87Z"/>
        <path class="cls-4" d="M9493.96,2871.87c-17.97-932.73-512.99-1797.82-1303.98-2278.86,17.4,931.7,512.41,1796.8,1303.98,2278.86Z"/>
        <path class="cls-3" d="M1008.04,3122.07c90.65-72.17,185.87-138.69,285.12-199.02l-.53-.31.53-.31c-99.25-60.33-194.48-126.85-285.13-199.02-331.01-133.45-685.26-201.32-1042.43-198.02-342.77,3.16-682.19,71.18-999.22,198.78-90.52,72-185.59,138.38-284.68,198.57,99.09,60.2,194.16,126.57,284.67,198.57,317.03,127.6,656.44,195.63,999.22,198.79,357.18,3.29,711.43-64.58,1042.44-198.03ZM-1316.26,2922.75c809.59-450.64,1799.63-450.63,2608.01,0-808.38,450.64-1798.42,450.64-2608.01,0Z"/>
        <path class="cls-3" d="M3732.44,3122.07c90.65-72.17,185.87-138.69,285.12-199.02l-.53-.31.53-.31c-99.25-60.33-194.48-126.85-285.12-199.02-331.01-133.44-685.26-201.32-1042.43-198.02-342.78,3.16-682.19,71.18-999.22,198.78-90.37,71.88-185.27,138.15-284.18,198.27l.52.3-.52.3c98.91,60.12,193.82,126.38,284.18,198.27,317.03,127.6,656.44,195.63,999.22,198.79,357.18,3.29,711.43-64.58,1042.44-198.03ZM1408.14,2922.75c809.58-450.64,1799.63-450.64,2608,0-808.38,450.64-1798.42,450.64-2608,0Z"/>
        <path class="cls-3" d="M1293.16,2922.44l-.53.31.53.31c.17-.1.33-.21.5-.31-.17-.1-.33-.21-.5-.31Z"/>
        <path class="cls-3" d="M1406.6,2923.05l.52-.3-.52-.3c-.17.1-.33.2-.49.3.17.1.33.2.49.3Z"/>
        <path class="cls-3" d="M5414.4,2525.39c-342.78,3.16-682.19,71.18-999.22,198.78-90.37,71.88-185.27,138.15-284.18,198.27l.52.3-.52.3c98.91,60.12,193.82,126.38,284.18,198.27,317.03,127.6,656.44,195.63,999.22,198.79,357.18,3.29,711.43-64.58,1042.44-198.03,90.64-72.17,185.87-138.69,285.12-199.02l-.53-.31.53-.31c-99.25-60.33-194.48-126.85-285.12-199.02-331.01-133.44-685.26-201.32-1042.43-198.02ZM6740.54,2922.75c-808.38,450.64-1798.42,450.64-2608,0,809.59-450.64,1799.63-450.64,2608,0Z"/>
        <path class="cls-3" d="M4131,2923.05l.52-.3-.52-.3c-.17.1-.33.2-.49.3.17.1.33.2.49.3Z"/>
        <path class="cls-3" d="M4017.56,2922.44l-.53.31.53.31c.17-.1.33-.2.5-.31-.17-.1-.33-.21-.5-.31Z"/>
        <path class="cls-3" d="M8138.79,2525.39c-342.78,3.16-682.19,71.18-999.22,198.78-90.36,71.88-185.27,138.15-284.18,198.27l.52.3-.52.3c98.91,60.12,193.82,126.38,284.18,198.27,317.02,127.6,656.44,195.63,999.21,198.79,357.18,3.29,711.43-64.58,1042.44-198.03,90.8-72.3,186.19-138.92,285.62-199.33-99.43-60.41-194.83-127.03-285.62-199.33-331.01-133.44-685.26-201.32-1042.43-198.02ZM9464.94,2922.75c-808.38,450.64-1798.42,450.64-2608,0,809.58-450.64,1799.63-450.64,2608,0Z"/>
        <path class="cls-3" d="M6741.95,2922.44l-.53.31.53.31c.17-.1.33-.2.5-.31-.17-.1-.33-.21-.5-.31Z"/>
        <path class="cls-3" d="M6855.4,2923.05l.52-.3-.52-.3c-.16.1-.33.2-.49.3.17.1.33.2.49.3Z"/>
        <path class="cls-3" d="M330.58,5103.59c279.67-222.4,514.76-497.77,690.34-811.2,168.67-301.1,279.99-631.7,328.97-972.5-16.52-114.89-25.95-230.93-28.1-347.41l-.55.32v-.56c-101.5,56.71-206.14,106.68-313.2,149.84-267.6,213.07-495.35,475.37-669.24,772.95-181.23,310.15-300.04,653.25-351.09,1008.83,16.61,115.67,26.1,232.65,28.15,350.26,101.98-57.01,207.13-107.2,314.71-150.53ZM1320.77,2973.63c-17.98,932.73-512.99,1797.82-1303.98,2278.87,17.4-931.7,512.41-1796.8,1303.98-2278.87Z"/>
        <path class="cls-3" d="M1293.16,2923.05c-99.25,60.33-194.47,126.85-285.12,199.02,107.06-43.16,211.7-93.13,313.2-149.84l.02-32.83-28.1-16.35Z"/>
        <path class="cls-3" d="M1321.26,2939.23c-9.23-5.46-18.45-10.92-27.61-16.49-.17.1-.33.21-.5.31l28.1,16.35v-.17Z"/>
        <path class="cls-3" d="M15.86,5254.12c-2.06-117.61-11.55-234.59-28.15-350.26-16.58,115.5-26.07,232.31-28.14,349.74l28.28,16.47c9.32-5.36,18.64-10.72,28.02-15.96Z"/>
        <path class="cls-3" d="M1372.02,5700.68c342.38-3.16,681.41-71.03,998.12-198.34,90.58-71.96,185.79-138.42,285.22-198.75l-.46-.27.46-.27c-99.43-60.33-194.64-126.78-285.22-198.75-316.71-127.31-655.74-195.18-998.12-198.34-356.82-3.29-710.71,64.44-1041.44,197.63-90.98,72.35-186.64,139.13-286.55,199.73,99.92,60.6,195.58,127.39,286.55,199.73,330.73,133.19,684.62,200.92,1041.44,197.63ZM45.87,5303.32c808.39-450.64,1798.42-450.64,2608,0-809.58,450.64-1799.62,450.64-2608,0Z"/>
        <path class="cls-3" d="M16.18,5286.73c9.3,5.49,18.61,10.99,27.84,16.59,99.92-60.6,195.58-127.39,286.55-199.73-107.59,43.32-212.74,93.52-314.71,150.53.19,10.86.25,21.74.32,32.62Z"/>
        <path class="cls-3" d="M-12.15,5270.07l14.17,8.25c4.75,2.77,9.44,5.62,14.17,8.41-.06-10.88-.12-21.75-.32-32.62-9.38,5.24-18.7,10.6-28.02,15.96Z"/>
        <path class="cls-3" d="M1349.89,7286.76c-48.99-340.81-160.3-671.4-328.97-972.5-175.58-313.43-410.66-588.8-690.34-811.2-107.43-43.26-212.42-93.37-314.26-150.28v.54l-28.61-16.66-28.14,16.39c8.47,478.98,139.14,947.69,379.23,1358.57,232.79,398.38,562.1,733.53,954.36,971.97l28.26-16.44c.85-127.54,10.39-254.66,28.47-380.39ZM16.79,5354.14c790.99,481.05,1286,1346.14,1303.98,2278.86C529.2,7150.95,34.19,6285.85,16.79,5354.14Z"/>
        <path class="cls-3" d="M-12.29,5336.65l28.61,16.66v-.54c-9.53-5.32-19-10.76-28.47-16.2l-.14.08Z"/>
        <path class="cls-3" d="M16.32,5319.83v32.95c101.84,56.91,206.83,107.02,314.26,150.28-90.98-72.35-186.64-139.13-286.55-199.73-9.19,5.57-18.45,11.04-27.71,16.5Z"/>
        <path class="cls-3" d="M16.32,5303.32v16.5c9.26-5.47,18.52-10.93,27.71-16.5-9.23-5.6-18.54-11.09-27.84-16.59.03,5.53.14,11.06.14,16.59Z"/>
        <path class="cls-3" d="M2.01,5328.32l-14.17,8.25c9.47,5.44,18.94,10.88,28.47,16.2v-32.95c-4.78,2.82-9.51,5.7-14.3,8.49Z"/>
        <path class="cls-3" d="M2.01,5328.32c4.79-2.79,9.53-5.67,14.3-8.49v-16.5c0-5.53-.1-11.06-.14-16.59-4.73-2.79-9.42-5.65-14.17-8.41l-14.17-8.25c-4.81,2.76-9.65,5.46-14.44,8.25l-14.16,8.25c-.03,5.58-.14,11.16-.14,16.75s.1,11.06.14,16.59c4.73,2.79,9.42,5.65,14.17,8.41,4.79,2.79,9.63,5.49,14.44,8.25l14.17-8.25Z"/>
        <path class="cls-3" d="M16.32,492.19v.54c101.84-56.91,206.83-107.02,314.26-150.28C610.25,120.05,845.33-155.32,1020.92-468.76c168.67-301.1,279.99-631.7,328.97-972.5-18.08-125.73-27.62-252.85-28.47-380.39l-28.26-16.44c-392.26,238.44-721.57,573.59-954.36,971.97C98.7-455.23-31.96,13.48-40.43,492.46l28.14,16.39,28.61-16.66ZM1320.77-1787.52C1302.79-854.79,807.78,10.31,16.79,491.35,34.19-440.34,529.2-1305.45,1320.77-1787.52Z"/>
        <path class="cls-3" d="M330.58,741.91c330.73,133.19,684.62,200.92,1041.44,197.63,342.38-3.16,681.41-71.03,998.12-198.34,90.58-71.96,185.79-138.42,285.22-198.75l-.46-.27.46-.27c-99.43-60.33-194.64-126.78-285.22-198.75-316.71-127.31-655.74-195.18-998.12-198.34-356.82-3.29-710.71,64.44-1041.44,197.63-90.98,72.35-186.64,139.13-286.55,199.73,99.92,60.6,195.58,127.39,286.55,199.73ZM2653.87,542.18c-809.58,450.64-1799.62,450.64-2608,0,808.39-450.64,1798.42-450.64,2608,0Z"/>
        <path class="cls-3" d="M44.02,542.18c99.92-60.6,195.58-127.39,286.55-199.73-107.43,43.26-212.42,93.37-314.26,150.28v32.95c9.26,5.47,18.52,10.93,27.71,16.5Z"/>
        <path class="cls-3" d="M1008.03,2723.42c107.06,43.16,211.7,93.13,313.21,149.84v-.56l.55.32c2.15-116.47,11.59-232.52,28.1-347.41-48.99-340.81-160.3-671.4-328.97-972.5-175.58-313.43-410.66-588.8-690.34-811.2-107.59-43.32-212.74-93.52-314.71-150.53-2.06,117.61-11.55,234.59-28.15,350.26,51.05,355.58,169.86,698.68,351.09,1008.83,173.89,297.58,401.63,559.87,669.23,772.94ZM1320.77,2871.87C529.2,2389.8,34.19,1524.71,16.79,593c790.99,481.05,1286,1346.14,1303.98,2278.86Z"/>
        <path class="cls-3" d="M1321.24,2873.26c-101.5-56.71-206.15-106.68-313.21-149.84,90.65,72.18,185.87,138.69,285.13,199.02l28.1-16.35-.02-32.83Z"/>
        <path class="cls-3" d="M1321.26,2906.26v-.17l-28.1,16.35c.17.1.33.21.5.31,9.16-5.56,18.38-11.03,27.61-16.49Z"/>
        <path class="cls-3" d="M1321.26,2906.26c-9.23,5.46-18.45,10.92-27.61,16.49,9.16,5.57,18.38,11.03,27.61,16.49v-16.49s0-16.49,0-16.49Z"/>
        <path class="cls-3" d="M16.18,558.76c-.06,10.88-.12,21.75-.32,32.62,101.98,57.01,207.13,107.2,314.71,150.53-90.98-72.35-186.64-139.13-286.55-199.73-9.23,5.6-18.54,11.09-27.84,16.59Z"/>
        <path class="cls-3" d="M16.32,525.67v16.5c0,5.53-.1,11.06-.14,16.59,9.3-5.49,18.61-10.99,27.84-16.59-9.19-5.57-18.45-11.04-27.71-16.5Z"/>
        <path class="cls-3" d="M16.32,492.73v-.54l-28.61,16.66.14.08c9.47-5.44,18.94-10.88,28.47-16.2Z"/>
        <path class="cls-3" d="M2.01,517.18c4.79,2.79,9.53,5.67,14.3,8.49v-32.95c-9.53,5.32-19,10.76-28.47,16.2l14.17,8.25Z"/>
        <path class="cls-3" d="M-12.15,575.43l-28.28,16.47c2.08,117.44,11.56,234.24,28.14,349.74,16.61-115.67,26.1-232.65,28.15-350.26-9.38-5.24-18.7-10.6-28.02-15.96Z"/>
        <path class="cls-3" d="M2.01,567.18l-14.17,8.25c9.32,5.36,18.64,10.72,28.02,15.96.19-10.86.25-21.74.32-32.62-4.73,2.79-9.42,5.65-14.17,8.41Z"/>
        <path class="cls-3" d="M-26.59,567.18c4.79,2.79,9.63,5.49,14.44,8.25l14.17-8.25c4.75-2.77,9.44-5.62,14.17-8.41.03-5.53.14-11.06.14-16.59v-16.5c-4.78-2.82-9.51-5.7-14.3-8.49l-14.17-8.25c-4.81,2.76-9.65,5.46-14.44,8.25-4.75,2.77-9.44,5.62-14.17,8.41-.03,5.53-.14,11.06-.14,16.59s.11,11.16.14,16.75l14.16,8.25Z"/>
        <path class="cls-3" d="M3745.32,4292.39c168.67-301.1,279.99-631.69,328.97-972.5-16.52-114.89-25.95-230.94-28.1-347.41l-.55.32v-.56c-101.5,56.71-206.14,106.68-313.2,149.84-267.6,213.07-495.35,475.37-669.24,772.95-181.23,310.14-300.04,653.24-351.09,1008.83,16.58,115.5,26.07,232.31,28.14,349.74l.46-.27v.54c101.84-56.91,206.84-107.02,314.26-150.28,279.68-222.4,514.76-497.77,690.34-811.2ZM4045.17,2973.63c-17.97,932.73-512.99,1797.82-1303.98,2278.87,17.4-931.7,512.41-1796.8,1303.98-2278.87Z"/>
        <path class="cls-3" d="M4017.56,2923.05c-99.25,60.33-194.47,126.85-285.12,199.02,107.06-43.16,211.7-93.13,313.2-149.84l.02-32.83-28.11-16.35Z"/>
        <path class="cls-3" d="M4045.66,2939.24c-9.23-5.46-18.45-10.92-27.61-16.49-.17.1-.33.21-.5.31l28.11,16.35v-.17Z"/>
        <path class="cls-3" d="M2683.5,5253.33l.46.27c2.08-117.44,11.56-234.24,28.14-349.74-51.05-355.59-169.86-698.69-351.1-1008.83-174.1-297.94-402.2-560.5-670.23-773.71-106.88-43.02-211.21-92.81-312.26-149.17v.65l-.54-.32c-2.15,116.47-11.57,232.52-28.09,347.41,49,340.81,160.32,671.41,329,972.5,175.78,313.77,411.18,589.39,691.25,811.92,107.26,43.12,211.96,93.06,313.36,149.62v-.6ZM1379,2973.63c791.6,482.06,1286.62,1347.16,1304.03,2278.87-790.97-481.04-1286.01-1346.13-1304.03-2278.87Z"/>
        <path class="cls-3" d="M1378.5,2939.42l.02,32.72c101.06,56.36,205.38,106.15,312.26,149.17-90.37-71.88-185.27-138.15-284.18-198.27l-28.1,16.37Z"/>
        <path class="cls-3" d="M1378.5,2939.24v.19s28.1-16.37,28.1-16.37c-.17-.1-.33-.2-.49-.3-9.16,5.57-18.38,11.03-27.61,16.49Z"/>
        <path class="cls-3" d="M1349.88,2956.09l-28.09,16.39c2.15,116.47,11.59,232.52,28.1,347.41,16.51-114.89,25.94-230.93,28.09-347.41l-28.1-16.39Z"/>
        <path class="cls-3" d="M2683.5,5253.93c-101.4-56.56-206.1-106.51-313.36-149.62,90.58,71.96,185.79,138.42,285.22,198.75l28.14-16.4v-32.73Z"/>
        <path class="cls-3" d="M1321.79,2873.02l-.55-.32v.56c.18.1.36.19.53.29,0-.18,0-.36.01-.53Z"/>
        <path class="cls-3" d="M1377.98,2972.48l.54.32v-.65c-.17-.1-.35-.19-.52-.29,0,.21-.01.41-.02.62Z"/>
        <path class="cls-3" d="M1321.42,2906c.07-10.82.15-21.64.35-32.45-.18-.1-.36-.19-.53-.29l.02,32.83.16-.09Z"/>
        <path class="cls-3" d="M1378.34,2939.51c-.07,10.78-.15,21.57-.35,32.34.17.1.35.19.52.29l-.02-32.72-.16.09Z"/>
        <path class="cls-3" d="M1378.34,2939.33c0,.06,0,.13,0,.19l.16-.09v-.19c-.05.03-.1.06-.15.09Z"/>
        <path class="cls-3" d="M1321.42,2906l-.16.09v.17c.05-.03.1-.06.16-.09,0-.06,0-.11,0-.17Z"/>
        <path class="cls-3" d="M1350.05,2955.99l-.17.1,28.1,16.39c0-.21.01-.41.02-.62-9.35-5.22-18.65-10.54-27.94-15.87Z"/>
        <path class="cls-3" d="M1362.57,2948.68l-12.52,7.3c9.29,5.33,18.59,10.65,27.94,15.87.2-10.78.28-21.56.35-32.34l-14.13,8.23c-.55.32-1.1.62-1.65.94Z"/>
        <path class="cls-3" d="M1321.27,2922.73c0-5.52.11-11.04.14-16.56-.05.03-.1.06-.16.09v16.49s.01-.02.01-.02Z"/>
        <path class="cls-3" d="M1364.2,2947.73l-1.63.95c.55-.32,1.1-.62,1.65-.94l14.13-8.23c0-.06,0-.13,0-.19-4.72,2.79-9.41,5.64-14.14,8.41Z"/>
        <path class="cls-3" d="M2740.25,5253.6c-2.08-117.44-11.56-234.24-28.14-349.74-16.58,115.5-26.07,232.31-28.14,349.74l28.14,16.39,28.14-16.39Z"/>
        <path class="cls-3" d="M5379.3,5303.32l.46-.27c-99.43-60.33-194.64-126.78-285.22-198.75-316.71-127.31-655.75-195.18-998.13-198.34-356.81-3.29-710.71,64.44-1041.44,197.62-90.84,72.23-186.34,138.92-286.09,199.45l.5.29-.5.29c99.75,60.53,195.25,127.21,286.09,199.45,330.73,133.18,684.62,200.92,1041.44,197.62,342.38-3.16,681.42-71.03,998.13-198.34,90.58-71.96,185.79-138.42,285.22-198.75l-.46-.27ZM2770.27,5303.32c808.39-450.64,1798.43-450.64,2608.01,0-809.58,450.64-1799.63,450.64-2608.01,0Z"/>
        <path class="cls-3" d="M2768.89,5303.61l.5-.29-.5-.29c-.16.09-.31.19-.47.29.16.09.31.19.47.29Z"/>
        <path class="cls-3" d="M2655.35,5303.05l-.46.27.46.27c.15-.09.29-.18.44-.27-.15-.09-.29-.18-.44-.27Z"/>
        <path class="cls-3" d="M2740.71,5286.64l28.18,16.39c99.75-60.53,195.25-127.21,286.09-199.45-107.43,43.26-212.43,93.38-314.26,150.28v32.77Z"/>
        <path class="cls-3" d="M2740.71,5286.82c9.26,5.47,18.52,10.93,27.71,16.5.16-.09.31-.19.47-.29l-28.18-16.39v.17Z"/>
        <path class="cls-3" d="M2683.5,5286.82v-.16l-28.14,16.4c.15.09.29.18.44.27,9.19-5.57,18.45-11.04,27.71-16.5Z"/>
        <path class="cls-3" d="M4074.29,7286.75c-48.99-340.8-160.3-671.4-328.97-972.49-175.59-313.43-410.67-588.8-690.34-811.2-107.43-43.26-212.43-93.38-314.26-150.28v.54l-.46-.27c-2.08,117.44-11.56,234.24-28.14,349.74,51.05,355.58,169.86,698.68,351.09,1008.83,173.89,297.58,401.64,559.88,669.24,772.95,107.25,43.24,212.07,93.3,313.74,150.14,2.13-116.65,11.57-232.88,28.12-347.95ZM2741.18,5354.14c791,481.05,1286.01,1346.14,1303.98,2278.86-791.57-482.06-1286.58-1347.16-1303.98-2278.86Z"/>
        <path class="cls-3" d="M2683.96,5253.6l-.46-.27v.6c.15.08.3.16.45.24,0-.19.01-.38.01-.57Z"/>
        <path class="cls-3" d="M2740.25,5353.04l.46.27v-.54c-.15-.08-.3-.16-.45-.25,0,.17,0,.34-.01.52Z"/>
        <path class="cls-3" d="M2683.95,5254.17c-.15-.08-.3-.16-.45-.24v32.73l.14-.08c.07-10.8.12-21.61.31-32.41Z"/>
        <path class="cls-3" d="M2711.96,5270.08l.15-.09-28.14-16.39c0,.19-.01.38-.01.57,9.37,5.23,18.69,10.57,28.01,15.91Z"/>
        <path class="cls-3" d="M2711.96,5270.08c-9.32-5.34-18.64-10.68-28.01-15.91-.19,10.8-.25,21.6-.31,32.41l14.16-8.25,14.15-8.24Z"/>
        <path class="cls-3" d="M2740.71,5320v32.77c101.84,56.91,206.84,107.02,314.26,150.28-90.84-72.23-186.34-138.92-286.09-199.45l-28.18,16.39Z"/>
        <path class="cls-3" d="M2740.71,5319.83v.17l28.18-16.39c-.16-.09-.31-.19-.47-.29-9.19,5.57-18.45,11.04-27.71,16.5Z"/>
        <path class="cls-3" d="M2740.71,5319.83c9.26-5.47,18.52-10.93,27.71-16.5-9.19-5.57-18.45-11.04-27.71-16.5v33.01Z"/>
        <path class="cls-3" d="M2740.57,5320.08c-.07,10.82-.12,21.64-.31,32.45.15.08.3.17.45.25v-32.77l-.14.08Z"/>
        <path class="cls-3" d="M2740.57,5319.91c0,.06,0,.11,0,.17l.14-.08v-.17s-.09.06-.14.08Z"/>
        <path class="cls-3" d="M2683.64,5286.57l-.14.08v.16s.09-.06.14-.08c0-.05,0-.11,0-.16Z"/>
        <path class="cls-3" d="M2683.64,5286.57c0,.05,0,.11,0,.16,4.73-2.79,9.42-5.65,14.17-8.41l-14.16,8.25Z"/>
        <path class="cls-3" d="M2740.57,5319.91s.09-.05.14-.08v-16.5c0,5.53-.1,11.06-.14,16.59Z"/>
        <path class="cls-3" d="M2361.01,6711.61c181.23-310.14,300.05-653.24,351.1-1008.83-16.58-115.5-26.07-232.31-28.14-349.74l-.46.27v-.6c-101.4,56.56-206.1,106.51-313.36,149.62-280.07,222.53-515.47,498.15-691.25,811.92-168.68,301.1-280,631.69-329,972.5,16.54,115.09,25.98,231.34,28.1,348.02,101.22-56.48,205.73-106.37,312.79-149.46,268.03-213.21,496.13-475.76,670.23-773.7ZM2683.03,5354.14c-17.41,931.72-512.43,1796.81-1304.03,2278.86,18.02-932.74,513.06-1797.83,1304.03-2278.86Z"/>
        <path class="cls-3" d="M2655.35,5303.59c-99.43,60.33-194.64,126.78-285.22,198.75,107.26-43.12,211.96-93.06,313.36-149.62v-32.73l-28.14-16.4Z"/>
        <path class="cls-3" d="M2740.71,5253.87v-.54l-.46.27c0,.17,0,.34.01.52.15-.08.3-.17.45-.25Z"/>
        <path class="cls-3" d="M2683.5,5352.72v.6l.46-.27c0-.19-.01-.38-.01-.57-.15.08-.3.16-.45.24Z"/>
        <path class="cls-3" d="M2683.64,5320.07l-.14-.08v32.73c.15-.08.3-.16.45-.24-.19-10.8-.25-21.6-.31-32.41Z"/>
        <path class="cls-3" d="M2712.24,5270.07c9.32-5.36,18.64-10.72,28.02-15.96,0-.17,0-.34-.01-.52l-28.14,16.39.14.08Z"/>
        <path class="cls-3" d="M2683.5,5319.83c-9.26-5.47-18.52-10.93-27.71-16.5-.15.09-.29.18-.44.27l28.14,16.4v-.16Z"/>
        <path class="cls-3" d="M2740.57,5286.57l.14.08v-32.77c-.15.08-.3.16-.45.25.19,10.81.25,21.63.31,32.45Z"/>
        <path class="cls-3" d="M2740.57,5286.73s.09.05.14.08v-.17l-.14-.08c0,.06,0,.11,0,.17Z"/>
        <path class="cls-3" d="M2683.5,5319.83v.16l.14.08c0-.05,0-.11,0-.16-.05-.03-.09-.05-.14-.08Z"/>
        <path class="cls-3" d="M2683.5,5286.82c-9.26,5.47-18.52,10.93-27.71,16.5,9.19,5.57,18.45,11.04,27.71,16.5v-33.01Z"/>
        <path class="cls-3" d="M2726.78,5278.54l13.79,8.02c-.07-10.82-.12-21.64-.31-32.45-9.38,5.24-18.7,10.6-28.02,15.96l14.17,8.25c.12.07.25.15.37.22Z"/>
        <path class="cls-3" d="M2740.57,5286.73c0-.06,0-.11,0-.17l-13.79-8.02c4.62,2.69,9.19,5.47,13.79,8.19Z"/>
        <path class="cls-3" d="M2683.5,5303.32v16.5s.09.06.14.08c-.03-5.53-.14-11.06-.14-16.59Z"/>
        <path class="cls-3" d="M2683.96,5353.04c2.08,117.44,11.56,234.24,28.14,349.74,16.58-115.5,26.07-232.31,28.14-349.74l-28.14-16.39-28.14,16.39Z"/>
        <path class="cls-3" d="M2711.96,5336.56c-9.32,5.34-18.64,10.68-28.01,15.91,0,.19.01.38.01.57l28.14-16.39-.15-.09Z"/>
        <path class="cls-3" d="M2683.64,5320.07c.07,10.8.12,21.61.31,32.41,9.37-5.23,18.69-10.57,28.01-15.91l-14.15-8.24-14.16-8.25Z"/>
        <path class="cls-3" d="M2712.24,5336.57l-.14.08,28.14,16.39c0-.17,0-.34.01-.52-9.38-5.24-18.7-10.6-28.02-15.96Z"/>
        <path class="cls-3" d="M2711.96,5336.56l.15.09.14-.08s-.1-.06-.15-.08c-.05.03-.09.05-.14.08Z"/>
        <path class="cls-3" d="M2712.24,5270.07l-.14-.08-.15.09s.09.05.14.08c.05-.03.1-.06.15-.08Z"/>
        <path class="cls-3" d="M2697.8,5328.32l14.15,8.24s.09-.05.14-.08c-4.76-2.73-9.55-5.4-14.29-8.16Z"/>
        <path class="cls-3" d="M2712.09,5270.16s-.09-.05-.14-.08l-14.15,8.24c4.74-2.76,9.53-5.43,14.29-8.16Z"/>
        <path class="cls-3" d="M2740.71,5303.32v-16.5s-.09-.06-.14-.08c.03,5.53.14,11.06.14,16.59Z"/>
        <path class="cls-3" d="M2683.63,5319.91c0,.05,0,.11,0,.16l14.16,8.25c-4.75-2.77-9.44-5.62-14.17-8.41Z"/>
        <path class="cls-3" d="M2726.41,5328.32l-14.17,8.25c9.32,5.36,18.64,10.72,28.02,15.96.19-10.81.25-21.63.31-32.45l-13.79,8.02c-.12.08-.25.15-.37.22Z"/>
        <path class="cls-3" d="M2726.78,5328.1l13.79-8.02c0-.06,0-.11,0-.17-4.6,2.72-9.17,5.5-13.79,8.19Z"/>
        <path class="cls-3" d="M2683.63,5286.73s-.09.05-.14.08v16.5c0-5.53.1-11.06.14-16.59Z"/>
        <path class="cls-3" d="M2726.78,5328.1l-.39.23c-4.74,2.76-9.54,5.43-14.3,8.16.05.03.1.06.15.08l14.17-8.25c.12-.07.25-.15.37-.22Z"/>
        <path class="cls-3" d="M2726.39,5278.32l.39.23c-.12-.08-.25-.15-.37-.22l-14.17-8.25s-.1.06-.15.08c4.76,2.73,9.55,5.4,14.3,8.16Z"/>
        <path class="cls-3" d="M2740.57,5286.73c-4.6-2.72-9.17-5.5-13.79-8.19l-.39-.23c-4.74-2.76-9.54-5.43-14.3-8.16-4.76,2.73-9.55,5.4-14.29,8.16-4.75,2.77-9.44,5.62-14.17,8.41-.03,5.53-.14,11.06-.14,16.59s.1,11.06.14,16.59c4.73,2.79,9.42,5.65,14.17,8.41,4.74,2.76,9.53,5.43,14.29,8.16,4.76-2.73,9.55-5.4,14.3-8.16l.39-.23c4.62-2.69,9.19-5.47,13.79-8.19.03-5.53.14-11.06.14-16.59s-.1-11.06-.14-16.59Z"/>
        <path class="cls-3" d="M3063.19-866.11c-181.23,310.14-300.04,653.24-351.09,1008.83,16.58,115.5,26.07,232.31,28.14,349.74l.46-.27v.54c101.84-56.91,206.84-107.02,314.26-150.28,279.68-222.4,514.76-497.77,690.34-811.2,168.67-301.1,279.99-631.69,328.97-972.5-16.54-115.07-25.98-231.29-28.12-347.95-101.67,56.84-206.49,106.9-313.74,150.14-267.6,213.07-495.35,475.37-669.24,772.95ZM2741.18,491.35c17.4-931.7,512.41-1796.8,1303.98-2278.87-17.97,932.73-512.99,1797.82-1303.98,2278.87Z"/>
        <path class="cls-3" d="M2370.14,343.16c107.26,43.12,211.96,93.06,313.36,149.62v-.6l.46.27c2.08-117.44,11.56-234.24,28.14-349.74-51.05-355.59-169.86-698.69-351.1-1008.83-174.1-297.94-402.2-560.5-670.23-773.71-107.06-43.09-211.57-92.98-312.79-149.46-2.13,116.68-11.56,232.93-28.1,348.03,49,340.81,160.32,671.41,329,972.5,175.78,313.77,411.18,589.39,691.25,811.92ZM2683.03,491.35C1892.05,10.32,1397.02-854.78,1379-1787.52c791.6,482.06,1286.62,1347.16,1304.03,2278.87Z"/>
        <path class="cls-3" d="M2683.5,492.78c-101.4-56.56-206.1-106.51-313.36-149.62,90.58,71.96,185.79,138.42,285.22,198.75l28.14-16.4v-32.73Z"/>
        <path class="cls-3" d="M2740.25,492.46c-2.08-117.44-11.56-234.24-28.14-349.74-16.58,115.5-26.07,232.31-28.14,349.74l28.14,16.39,28.14-16.39Z"/>
        <path class="cls-3" d="M3054.98,342.44c-90.84,72.23-186.34,138.92-286.09,199.45l.5.29-.5.29c99.75,60.53,195.25,127.21,286.09,199.45,330.73,133.18,684.62,200.92,1041.44,197.62,342.38-3.16,681.42-71.03,998.13-198.34,90.58-71.96,185.79-138.42,285.22-198.75l-.46-.27.46-.27c-99.43-60.33-194.64-126.78-285.22-198.75-316.71-127.31-655.75-195.18-998.13-198.34-356.81-3.29-710.71,64.44-1041.44,197.62ZM5378.28,542.18c-809.58,450.64-1799.63,450.64-2608.01,0,808.39-450.64,1798.43-450.64,2608.01,0Z"/>
        <path class="cls-3" d="M2655.35,541.91l-.46.27.46.27c.15-.09.29-.18.44-.27-.15-.09-.29-.18-.44-.27Z"/>
        <path class="cls-3" d="M2768.89,542.47l.5-.29-.5-.29c-.16.09-.31.19-.47.29.16.09.31.19.47.29Z"/>
        <path class="cls-3" d="M2768.89,541.89c99.75-60.53,195.25-127.21,286.09-199.45-107.43,43.26-212.43,93.38-314.26,150.28v32.77l28.18,16.39Z"/>
        <path class="cls-3" d="M2740.71,525.67c9.26,5.47,18.52,10.93,27.71,16.5.16-.09.31-.19.47-.29l-28.18-16.39v.17Z"/>
        <path class="cls-3" d="M2683.5,525.67v-.16l-28.14,16.4c.15.09.29.18.44.27,9.19-5.57,18.45-11.04,27.71-16.5Z"/>
        <path class="cls-3" d="M2740.71,592.17l-.46-.27c-2.08,117.44-11.56,234.24-28.14,349.74,51.05,355.58,169.86,698.68,351.09,1008.83,173.89,297.58,401.64,559.88,669.24,772.94,107.06,43.16,211.7,93.13,313.21,149.84v-.56l.55.32c2.15-116.47,11.58-232.52,28.1-347.41-48.99-340.8-160.3-671.4-328.97-972.49-175.59-313.43-410.67-588.8-690.34-811.2-107.43-43.26-212.43-93.38-314.26-150.28v.54ZM4045.17,2871.87c-791.57-482.06-1286.58-1347.16-1303.98-2278.86,791,481.05,1286.01,1346.14,1303.98,2278.86Z"/>
        <path class="cls-3" d="M4045.66,2906.09l-.02-32.83c-101.5-56.71-206.15-106.68-313.21-149.84,90.65,72.18,185.87,138.69,285.12,199.02l28.11-16.35Z"/>
        <path class="cls-3" d="M4045.66,2906.26v-.17l-28.11,16.35c.17.1.33.21.5.31,9.16-5.56,18.38-11.03,27.61-16.49Z"/>
        <path class="cls-3" d="M4045.66,2906.26c-9.23,5.46-18.45,10.93-27.61,16.49,9.16,5.57,18.38,11.03,27.61,16.49v-16.49s0-16.49,0-16.49Z"/>
        <path class="cls-3" d="M2740.25,591.9l.46.27v-.54c-.15-.08-.3-.16-.45-.25,0,.17,0,.34-.01.52Z"/>
        <path class="cls-3" d="M2683.96,492.46l-.46-.27v.6c.15.08.3.16.45.24,0-.19.01-.38.01-.57Z"/>
        <path class="cls-3" d="M2683.64,525.43c.07-10.8.12-21.61.31-32.41-.15-.08-.3-.16-.45-.24v32.73l.14-.08Z"/>
        <path class="cls-3" d="M2711.96,508.94l.15-.09-28.14-16.39c0,.19-.01.38-.01.57,9.37,5.23,18.69,10.57,28.01,15.91Z"/>
        <path class="cls-3" d="M2711.96,508.94c-9.32-5.34-18.64-10.68-28.01-15.91-.19,10.8-.25,21.6-.31,32.41l14.16-8.25,14.15-8.24Z"/>
        <path class="cls-3" d="M2740.71,591.63c101.84,56.91,206.84,107.02,314.26,150.28-90.84-72.23-186.34-138.92-286.09-199.45l-28.18,16.39v32.77Z"/>
        <path class="cls-3" d="M2740.71,558.68v.17l28.18-16.39c-.16-.09-.31-.19-.47-.29-9.19,5.57-18.45,11.04-27.71,16.5Z"/>
        <path class="cls-3" d="M2740.71,558.68c9.26-5.47,18.52-10.93,27.71-16.5-9.19-5.57-18.45-11.04-27.71-16.5v33.01Z"/>
        <path class="cls-3" d="M2740.26,591.38c.15.08.3.17.45.25v-32.77l-.14.08c-.07,10.82-.12,21.64-.31,32.45Z"/>
        <path class="cls-3" d="M2740.57,558.93l.14-.08v-.17s-.09.06-.14.08c0,.06,0,.11,0,.17Z"/>
        <path class="cls-3" d="M2683.64,525.43l-.14.08v.16s.09-.06.14-.08c0-.05,0-.11,0-.16Z"/>
        <path class="cls-3" d="M2740.57,558.76s.09-.05.14-.08v-16.5c0,5.53-.1,11.06-.14,16.59Z"/>
        <path class="cls-3" d="M2697.8,517.18l-14.16,8.25c0,.05,0,.11,0,.16,4.73-2.79,9.42-5.65,14.17-8.41Z"/>
        <path class="cls-3" d="M1378.52,2872.7v.65c101.06-56.36,205.38-106.15,312.26-149.17,268.03-213.2,496.13-475.76,670.23-773.7,181.23-310.14,300.05-653.24,351.1-1008.83-16.58-115.5-26.07-232.31-28.14-349.74l-.46.27v-.6c-101.4,56.56-206.1,106.51-313.36,149.62-280.07,222.53-515.47,498.15-691.25,811.92-168.68,301.1-280,631.69-329,972.5,16.51,114.89,25.94,230.93,28.09,347.4l.54-.32ZM2683.03,593c-17.41,931.72-512.43,1796.81-1304.03,2278.86,18.02-932.74,513.06-1797.83,1304.03-2278.86Z"/>
        <path class="cls-3" d="M1406.6,2922.44c98.91-60.12,193.82-126.39,284.18-198.27-106.88,43.02-211.21,92.81-312.26,149.17l-.02,32.72,28.1,16.37Z"/>
        <path class="cls-3" d="M1378.5,2906.26c9.23,5.46,18.45,10.92,27.61,16.49.17-.1.33-.2.49-.3l-28.1-16.37v.19Z"/>
        <path class="cls-3" d="M1378.52,2873.35v-.65l-.54.32c0,.21.01.41.02.62.17-.1.35-.19.52-.29Z"/>
        <path class="cls-3" d="M1321.24,2972.23v.56l.55-.32c0-.18-.01-.35-.01-.53-.18.1-.36.19-.53.29Z"/>
        <path class="cls-3" d="M1321.42,2939.49l-.16-.09-.02,32.83c.18-.1.36-.19.53-.29-.2-10.81-.28-21.63-.35-32.45Z"/>
        <path class="cls-3" d="M1378.34,2905.98l.16.09.02-32.72c-.17.1-.35.19-.52.29.2,10.78.28,21.56.35,32.34Z"/>
        <path class="cls-3" d="M1378.5,2906.26v-.19s-.16-.09-.16-.09c0,.06,0,.13,0,.19.05.03.1.06.15.09Z"/>
        <path class="cls-3" d="M1321.26,2939.23v.17l.16.09c0-.06,0-.11,0-.17-.05-.03-.1-.06-.16-.09Z"/>
        <path class="cls-3" d="M2683.5,558.84l-28.14-16.4c-99.43,60.33-194.64,126.78-285.22,198.75,107.26-43.12,211.96-93.06,313.36-149.62v-32.73Z"/>
        <path class="cls-3" d="M1377.98,2873.02c-2.15-116.47-11.57-232.52-28.09-347.4-16.52,114.89-25.95,230.93-28.1,347.41l28.09,16.39,28.1-16.39Z"/>
        <path class="cls-3" d="M1377.99,2873.64c0-.21-.01-.41-.02-.62l-28.1,16.39.17.1c9.29-5.33,18.59-10.65,27.94-15.87Z"/>
        <path class="cls-3" d="M1364.21,2897.75l14.13,8.23c-.07-10.78-.15-21.57-.35-32.34-9.35,5.22-18.65,10.54-27.94,15.87l12.52,7.3c.55.32,1.1.62,1.65.94Z"/>
        <path class="cls-3" d="M1321.27,2922.77v-.02,16.49s.09.06.14.09c-.04-5.52-.14-11.04-.14-16.56Z"/>
        <path class="cls-3" d="M1362.57,2896.81l1.63.95c4.74,2.77,9.42,5.62,14.14,8.41,0-.06,0-.13,0-.19l-14.13-8.23c-.55-.32-1.1-.62-1.65-.94Z"/>
        <path class="cls-3" d="M1378.5,2939.24c9.23-5.46,18.45-10.92,27.61-16.49-9.16-5.57-18.38-11.03-27.61-16.49v16.49s0,16.49,0,16.49Z"/>
        <path class="cls-3" d="M1349.75,2956.01c-9.31,5.35-18.61,10.7-27.98,15.93,0,.18,0,.36.01.53l28.09-16.39-.13-.08Z"/>
        <path class="cls-3" d="M1334.34,2947.01l-12.92-7.52c.07,10.82.15,21.64.35,32.45,9.36-5.23,18.67-10.59,27.98-15.93l-14.19-8.28c-.41-.24-.81-.49-1.22-.72Z"/>
        <path class="cls-3" d="M1321.42,2939.33c0,.06,0,.11,0,.17l12.92,7.52c-4.33-2.53-8.61-5.13-12.92-7.68Z"/>
        <path class="cls-3" d="M1378.49,2922.73v.02-16.49s-.09-.06-.14-.09c.04,5.52.14,11.04.14,16.56Z"/>
        <path class="cls-3" d="M1349.75,2889.48l.13-.08-28.09-16.39c0,.18-.01.35-.01.53,9.36,5.23,18.67,10.59,27.98,15.93Z"/>
        <path class="cls-3" d="M1335.56,2897.76l14.19-8.28c-9.31-5.35-18.61-10.7-27.98-15.93-.2,10.81-.28,21.63-.35,32.45l12.92-7.52c.41-.24.81-.49,1.22-.72Z"/>
        <path class="cls-3" d="M1334.35,2898.48l-12.92,7.52c0,.06,0,.11,0,.17,4.31-2.55,8.6-5.16,12.93-7.68Z"/>
        <path class="cls-3" d="M1378.49,2922.77c0,5.52-.11,11.04-.14,16.56.05-.03.1-.06.15-.09v-16.49s-.01.02-.01.02Z"/>
        <path class="cls-3" d="M1350.05,2889.5l-.17-.1-.13.08c.06.03.11.07.17.1.04-.03.09-.05.13-.08Z"/>
        <path class="cls-3" d="M1349.92,2955.91c-.06.03-.11.06-.17.1l.13.08.17-.1s-.09-.05-.13-.08Z"/>
        <path class="cls-3" d="M1335.62,2947.75l-1.28-.74c.41.24.81.49,1.22.72l14.19,8.28c.06-.03.11-.07.17-.1-4.76-2.73-9.55-5.4-14.3-8.16Z"/>
        <path class="cls-3" d="M1334.35,2898.48l1.28-.74c4.75-2.76,9.54-5.43,14.3-8.16-.06-.03-.11-.06-.17-.1l-14.19,8.28c-.41.24-.81.49-1.22.72Z"/>
        <path class="cls-3" d="M1350.05,2889.5s-.09.05-.13.08c4.21,2.42,8.45,4.79,12.65,7.23l-12.52-7.3Z"/>
        <path class="cls-3" d="M1349.92,2955.91s.09.05.13.08l12.52-7.3c-4.2,2.44-8.44,4.81-12.65,7.23Z"/>
        <path class="cls-3" d="M1364.2,2947.73c4.74-2.77,9.42-5.62,14.14-8.41.04-5.52.14-11.04.14-16.56v-.04c0-5.52-.11-11.04-.14-16.56-4.72-2.79-9.41-5.64-14.14-8.41l-1.63-.95c-4.2-2.44-8.44-4.81-12.65-7.23-4.76,2.73-9.55,5.4-14.3,8.16l-1.28.74c-4.33,2.53-8.61,5.13-12.93,7.68-.04,5.52-.14,11.04-.14,16.56v.04c0,5.52.11,11.04.14,16.56,4.31,2.55,8.6,5.16,12.92,7.68l1.28.74c4.75,2.76,9.54,5.43,14.3,8.16,4.21-2.42,8.45-4.79,12.65-7.23l1.63-.95Z"/>
        <path class="cls-3" d="M2740.71,492.73v-.54l-.46.27c0,.17,0,.34.01.52.15-.08.3-.17.45-.25Z"/>
        <path class="cls-3" d="M2683.5,591.57v.6l.46-.27c0-.19-.01-.38-.01-.57-.15.08-.3.16-.45.24Z"/>
        <path class="cls-3" d="M2683.64,558.92l-.14-.08v32.73c.15-.08.3-.16.45-.24-.19-10.8-.25-21.6-.31-32.41Z"/>
        <path class="cls-3" d="M2712.24,508.93c9.32-5.36,18.64-10.72,28.02-15.96,0-.17,0-.34-.01-.52l-28.14,16.39.14.08Z"/>
        <path class="cls-3" d="M2683.5,558.68c-9.26-5.47-18.52-10.93-27.71-16.5-.15.09-.29.18-.44.27l28.14,16.4v-.16Z"/>
        <path class="cls-3" d="M2740.57,525.42l.14.08v-32.77c-.15.08-.3.16-.45.25.19,10.81.25,21.63.31,32.45Z"/>
        <path class="cls-3" d="M2683.63,558.76s-.09-.05-.14-.08v.16l.14.08c0-.05,0-.11,0-.16Z"/>
        <path class="cls-3" d="M2740.71,525.67v-.17l-.14-.08c0,.06,0,.11,0,.17.05.03.09.05.14.08Z"/>
        <path class="cls-3" d="M2683.5,525.67c-9.26,5.47-18.52,10.93-27.71,16.5,9.19,5.57,18.45,11.04,27.71,16.5v-33.01Z"/>
        <path class="cls-3" d="M2726.78,517.4l13.79,8.02c-.07-10.82-.12-21.64-.31-32.45-9.38,5.24-18.7,10.6-28.02,15.96l14.17,8.25c.12.07.25.15.37.22Z"/>
        <path class="cls-3" d="M2683.5,542.18v16.5s.09.06.14.08c-.03-5.53-.14-11.06-.14-16.59Z"/>
        <path class="cls-3" d="M2740.57,525.59c0-.06,0-.11,0-.17l-13.79-8.02c4.62,2.69,9.19,5.47,13.79,8.19Z"/>
        <path class="cls-3" d="M2712.1,575.51l-28.14,16.39c2.08,117.44,11.56,234.24,28.14,349.74,16.58-115.5,26.07-232.31,28.14-349.74l-28.14-16.39Z"/>
        <path class="cls-3" d="M2711.96,575.42c-9.32,5.34-18.64,10.68-28.01,15.91,0,.19.01.38.01.57l28.14-16.39-.15-.09Z"/>
        <path class="cls-3" d="M2683.64,558.92c.07,10.8.12,21.61.31,32.41,9.37-5.23,18.69-10.57,28.01-15.91l-14.15-8.24-14.16-8.25Z"/>
        <path class="cls-3" d="M2712.24,575.43l-.14.08,28.14,16.39c0-.17,0-.34.01-.52-9.38-5.24-18.7-10.6-28.02-15.96Z"/>
        <path class="cls-3" d="M2712.09,575.34s-.09.05-.14.08l.15.09.14-.08s-.1-.06-.15-.08Z"/>
        <path class="cls-3" d="M2712.24,508.93l-.14-.08-.15.09s.09.05.14.08c.05-.03.1-.06.15-.08Z"/>
        <path class="cls-3" d="M2697.8,567.18l14.15,8.24s.09-.05.14-.08c-4.76-2.73-9.55-5.4-14.29-8.16Z"/>
        <path class="cls-3" d="M2712.09,509.02s-.09-.05-.14-.08l-14.15,8.24c4.74-2.76,9.53-5.43,14.29-8.16Z"/>
        <path class="cls-3" d="M2683.63,558.76c0,.05,0,.11,0,.16l14.16,8.25c-4.75-2.77-9.44-5.62-14.17-8.41Z"/>
        <path class="cls-3" d="M2740.71,542.18v-16.5s-.09-.06-.14-.08c.03,5.53.14,11.06.14,16.59Z"/>
        <path class="cls-3" d="M2726.41,567.18l-14.17,8.25c9.32,5.36,18.64,10.72,28.02,15.96.19-10.81.25-21.63.31-32.45l-13.79,8.02c-.12.08-.25.15-.37.22Z"/>
        <path class="cls-3" d="M2683.63,525.59s-.09.05-.14.08v16.5c0-5.53.1-11.06.14-16.59Z"/>
        <path class="cls-3" d="M2740.57,558.93c0-.06,0-.11,0-.17-4.6,2.72-9.17,5.5-13.79,8.19l13.79-8.02Z"/>
        <path class="cls-3" d="M2726.78,566.95l-.39.23c-4.74,2.76-9.54,5.43-14.3,8.16.05.03.1.06.15.08l14.17-8.25c.12-.07.25-.15.37-.22Z"/>
        <path class="cls-3" d="M2726.39,517.17l.39.23c-.12-.08-.25-.15-.37-.22l-14.17-8.25s-.1.06-.15.08c4.76,2.73,9.55,5.4,14.3,8.16Z"/>
        <path class="cls-3" d="M2712.09,575.34c4.76-2.73,9.55-5.4,14.3-8.16l.39-.23c4.62-2.69,9.19-5.47,13.79-8.19.03-5.53.14-11.06.14-16.59s-.1-11.06-.14-16.59c-4.6-2.72-9.17-5.5-13.79-8.19l-.39-.23c-4.74-2.76-9.54-5.43-14.3-8.16-4.76,2.73-9.55,5.4-14.29,8.16-4.75,2.77-9.44,5.62-14.17,8.41-.03,5.53-.14,11.06-.14,16.59s.1,11.06.14,16.59c4.73,2.79,9.42,5.65,14.17,8.41,4.74,2.76,9.53,5.43,14.29,8.16Z"/>
        <path class="cls-3" d="M6770.04,2972.79v-.56c-101.5,56.71-206.14,106.68-313.2,149.84-267.6,213.07-495.35,475.37-669.24,772.95-181.23,310.14-300.04,653.24-351.09,1008.83,16.58,115.5,26.07,232.31,28.14,349.74l.46-.27v.54c101.84-56.91,206.84-107.02,314.26-150.28,279.68-222.4,514.75-497.77,690.34-811.2,168.67-301.1,279.99-631.69,328.97-972.5-16.52-114.89-25.95-230.94-28.1-347.41l-.55.32ZM5465.59,5252.5c17.4-931.7,512.41-1796.8,1303.98-2278.87-17.97,932.73-512.99,1797.82-1303.98,2278.87Z"/>
        <path class="cls-3" d="M6741.95,2923.05c-99.25,60.33-194.47,126.85-285.12,199.02,107.06-43.16,211.7-93.13,313.2-149.84l.02-32.83-28.11-16.35Z"/>
        <path class="cls-3" d="M6770.06,2939.24c-9.23-5.46-18.45-10.92-27.61-16.49-.17.1-.33.21-.5.31l28.11,16.35v-.17Z"/>
        <path class="cls-3" d="M4415.18,3121.32c-106.88-43.02-211.2-92.81-312.26-149.17v.65l-.54-.32c-2.15,116.47-11.57,232.52-28.09,347.41,49,340.81,160.32,671.4,329,972.5,175.78,313.77,411.18,589.39,691.25,811.92,107.26,43.12,211.96,93.06,313.36,149.62v-.6l.46.27c2.08-117.44,11.56-234.24,28.14-349.74-51.05-355.59-169.86-698.69-351.1-1008.83-174.1-297.94-402.2-560.5-670.24-773.71ZM4103.4,2973.63c791.61,482.06,1286.63,1347.16,1304.03,2278.87-790.98-481.04-1286.01-1346.13-1304.03-2278.87Z"/>
        <path class="cls-3" d="M4102.92,2972.15c101.05,56.36,205.38,106.15,312.26,149.17-90.36-71.88-185.27-138.15-284.18-198.27l-28.1,16.37.02,32.73Z"/>
        <path class="cls-3" d="M4102.9,2939.23v.19s28.1-16.37,28.1-16.37c-.17-.1-.33-.2-.49-.3-9.16,5.56-18.38,11.03-27.61,16.49Z"/>
        <path class="cls-3" d="M4046.19,2972.47c2.15,116.47,11.58,232.52,28.1,347.41,16.51-114.89,25.94-230.94,28.09-347.41l-28.1-16.39-28.09,16.39Z"/>
        <path class="cls-3" d="M5407.9,5253.93c-101.4-56.56-206.1-106.51-313.36-149.62,90.58,71.96,185.79,138.42,285.22,198.75l28.14-16.4v-32.73Z"/>
        <path class="cls-3" d="M4046.19,2873.02l-.55-.32v.56c.18.1.36.19.54.29,0-.18.01-.36.01-.54Z"/>
        <path class="cls-3" d="M4102.38,2972.48l.54.32v-.65c-.17-.1-.35-.19-.52-.29,0,.21-.01.41-.02.62Z"/>
        <path class="cls-3" d="M4045.82,2906c.07-10.82.15-21.63.35-32.45-.18-.1-.36-.2-.54-.29l.02,32.83.16-.09Z"/>
        <path class="cls-3" d="M4102.74,2939.51c-.07,10.79-.15,21.57-.35,32.35.17.09.35.19.52.29l-.02-32.73-.16.09Z"/>
        <path class="cls-3" d="M4045.82,2906.17c0-.06,0-.11,0-.17l-.16.09v.17c.05-.03.1-.06.16-.09Z"/>
        <path class="cls-3" d="M4102.74,2939.51l.16-.09v-.19c-.05.03-.1.06-.15.09,0,.06,0,.13,0,.19Z"/>
        <path class="cls-3" d="M4074.45,2955.99l-.17.1,28.1,16.39c0-.21.01-.41.02-.62-9.35-5.22-18.65-10.54-27.95-15.88Z"/>
        <path class="cls-3" d="M4086.96,2948.68l-12.51,7.3c9.29,5.33,18.59,10.65,27.95,15.88.2-10.78.28-21.56.35-32.35l-14.13,8.23c-.55.32-1.1.62-1.65.94Z"/>
        <path class="cls-3" d="M4045.68,2922.73c0-5.52.11-11.04.14-16.56-.05.03-.1.06-.16.09v16.49s.01-.02.01-.02Z"/>
        <path class="cls-3" d="M4088.6,2947.73l-1.63.95c.55-.32,1.1-.62,1.65-.94l14.13-8.23c0-.06,0-.13,0-.19-4.72,2.79-9.41,5.64-14.15,8.41Z"/>
        <path class="cls-3" d="M5436.51,5269.99l28.14-16.39c-2.08-117.44-11.56-234.24-28.14-349.74-16.58,115.5-26.07,232.31-28.14,349.74l28.14,16.39Z"/>
        <path class="cls-3" d="M8189.51,5320l28.67-16.68-.5-.29c-9.34,5.67-18.76,11.23-28.18,16.79v.17Z"/>
        <path class="cls-3" d="M7818.94,5104.3c-316.71-127.31-655.75-195.18-998.13-198.34-356.81-3.29-710.7,64.44-1041.43,197.62-90.83,72.23-186.34,138.92-286.09,199.45l.5.29-.5.29c99.75,60.53,195.25,127.21,286.08,199.44,330.73,133.18,684.62,200.92,1041.44,197.63,342.38-3.16,681.42-71.03,998.13-198.34,90.71-72.07,186.07-138.61,285.65-199.02-99.59-60.4-194.94-126.95-285.65-199.02ZM5494.67,5303.32c808.39-450.64,1798.42-450.64,2608,0-809.58,450.64-1799.62,450.64-2608,0Z"/>
        <path class="cls-3" d="M5493.29,5303.61l.5-.29-.5-.29c-.16.09-.31.19-.47.29.16.09.31.19.47.29Z"/>
        <path class="cls-3" d="M5379.76,5303.05l-.46.27.46.27c.15-.09.29-.18.44-.27-.15-.09-.29-.18-.44-.27Z"/>
        <path class="cls-3" d="M5465.11,5286.64l28.18,16.39c99.75-60.53,195.25-127.21,286.09-199.45-107.43,43.26-212.43,93.38-314.26,150.28v32.77Z"/>
        <path class="cls-3" d="M5465.11,5286.82c9.26,5.47,18.52,10.93,27.71,16.5.16-.09.31-.19.47-.29l-28.18-16.39v.17Z"/>
        <path class="cls-3" d="M5407.9,5286.82v-.16l-28.14,16.4c.15.09.29.18.44.27,9.19-5.57,18.45-11.04,27.71-16.5Z"/>
        <path class="cls-3" d="M5779.37,5503.05c-107.43-43.26-212.42-93.38-314.26-150.28v.54l-.46-.27c-2.08,117.44-11.56,234.24-28.14,349.74,51.05,355.58,169.86,698.68,351.09,1008.83,173.89,297.58,401.63,559.88,669.23,772.95,107.25,43.24,212.07,93.3,313.74,150.14,2.13-116.65,11.57-232.88,28.12-347.95-48.99-340.8-160.3-671.39-328.97-972.49-175.59-313.43-410.67-588.8-690.34-811.2ZM5465.59,5354.14c790.99,481.05,1286.01,1346.14,1303.98,2278.86-791.57-482.06-1286.58-1347.16-1303.98-2278.86Z"/>
        <path class="cls-3" d="M5408.37,5253.6l-.46-.27v.6c.15.08.3.16.45.24,0-.19.01-.38.01-.57Z"/>
        <path class="cls-3" d="M5464.65,5353.04l.46.27v-.54c-.15-.08-.3-.16-.45-.25,0,.17,0,.34-.01.52Z"/>
        <path class="cls-3" d="M5408.04,5286.57c.07-10.8.12-21.61.31-32.41-.15-.08-.3-.16-.45-.24v32.73l.14-.08Z"/>
        <path class="cls-3" d="M5436.36,5270.08l.15-.09-28.14-16.39c0,.19-.01.38-.01.57,9.37,5.23,18.69,10.57,28.01,15.91Z"/>
        <path class="cls-3" d="M5436.36,5270.08c-9.32-5.34-18.63-10.68-28.01-15.91-.19,10.8-.25,21.6-.31,32.41l14.16-8.25,14.15-8.24Z"/>
        <path class="cls-3" d="M5465.11,5352.77c101.84,56.9,206.83,107.02,314.26,150.28-90.83-72.23-186.34-138.91-286.08-199.44l-28.18,16.39v32.77Z"/>
        <path class="cls-3" d="M5465.11,5319.83v.17l28.18-16.39c-.16-.09-.31-.19-.47-.29-9.19,5.57-18.45,11.04-27.71,16.5Z"/>
        <path class="cls-3" d="M5465.11,5319.83c9.26-5.47,18.52-10.93,27.71-16.5-9.19-5.57-18.45-11.04-27.71-16.5v33.01Z"/>
        <path class="cls-3" d="M5464.98,5320.08c-.07,10.82-.12,21.64-.31,32.45.15.08.3.17.45.25v-32.77l-.14.08Z"/>
        <path class="cls-3" d="M5408.04,5286.57l-.14.08v.16s.09-.06.14-.08c0-.05,0-.11,0-.16Z"/>
        <path class="cls-3" d="M5464.98,5320.08l.14-.08v-.17s-.09.06-.14.08c0,.06,0,.11,0,.17Z"/>
        <path class="cls-3" d="M5464.98,5319.91s.09-.05.14-.08v-16.5c0,5.53-.1,11.06-.14,16.59Z"/>
        <path class="cls-3" d="M5422.2,5278.32l-14.16,8.25c0,.05,0,.11,0,.16,4.73-2.79,9.42-5.65,14.17-8.41Z"/>
        <path class="cls-3" d="M5085.41,6711.61c181.23-310.14,300.05-653.24,351.1-1008.83-16.58-115.5-26.07-232.31-28.14-349.74l-.46.27v-.6c-101.4,56.56-206.1,106.51-313.36,149.62-280.07,222.53-515.47,498.15-691.25,811.92-168.68,301.1-280,631.68-329,972.49,16.54,115.09,25.98,231.35,28.1,348.03,101.22-56.48,205.72-106.37,312.78-149.46,268.03-213.21,496.13-475.77,670.23-773.71ZM5407.43,5354.14c-17.41,931.71-512.43,1796.81-1304.03,2278.86,18.02-932.74,513.06-1797.83,1304.03-2278.86Z"/>
        <path class="cls-3" d="M5379.76,5303.59c-99.43,60.33-194.64,126.78-285.22,198.75,107.26-43.12,211.96-93.06,313.36-149.62v-32.73l-28.14-16.4Z"/>
        <path class="cls-3" d="M5465.11,5253.87v-.54l-.46.27c0,.17,0,.34.01.52.15-.08.3-.17.45-.25Z"/>
        <path class="cls-3" d="M5407.9,5352.72v.6l.46-.27c0-.19-.01-.38-.01-.57-.15.08-.3.16-.45.24Z"/>
        <path class="cls-3" d="M5408.04,5320.07l-.14-.08v32.73c.15-.08.3-.16.45-.24-.19-10.8-.25-21.6-.31-32.41Z"/>
        <path class="cls-3" d="M5436.64,5270.07c9.32-5.36,18.64-10.72,28.02-15.96,0-.17,0-.34-.01-.52l-28.14,16.39.14.08Z"/>
        <path class="cls-3" d="M5380.19,5303.32c-.15.09-.29.18-.44.27l28.14,16.4v-.16c-9.26-5.47-18.52-10.93-27.71-16.5Z"/>
        <path class="cls-3" d="M5464.98,5286.57l.14.08v-32.77c-.15.08-.3.16-.45.25.19,10.81.25,21.63.31,32.45Z"/>
        <path class="cls-3" d="M5464.98,5286.73s.09.05.14.08v-.17l-.14-.08c0,.06,0,.11,0,.17Z"/>
        <path class="cls-3" d="M5407.9,5319.83v.16l.14.08c0-.05,0-.11,0-.16-.05-.03-.09-.05-.14-.08Z"/>
        <path class="cls-3" d="M5407.9,5286.82c-9.26,5.47-18.52,10.93-27.71,16.5,9.19,5.57,18.45,11.04,27.71,16.5v-33.01Z"/>
        <path class="cls-3" d="M5451.18,5278.54l13.79,8.02c-.07-10.82-.12-21.64-.31-32.45-9.38,5.24-18.7,10.6-28.02,15.96l14.17,8.25c.12.07.25.15.37.22Z"/>
        <path class="cls-3" d="M5407.9,5319.83s.09.06.14.08c-.03-5.53-.14-11.06-.14-16.59v16.5Z"/>
        <path class="cls-3" d="M5464.98,5286.73c0-.06,0-.11,0-.17l-13.79-8.02c4.62,2.69,9.19,5.47,13.79,8.19Z"/>
        <path class="cls-3" d="M5408.37,5353.04c2.08,117.44,11.56,234.24,28.14,349.74,16.58-115.5,26.07-232.31,28.14-349.74l-28.14-16.39-28.14,16.39Z"/>
        <path class="cls-3" d="M5436.36,5336.56c-9.32,5.34-18.63,10.68-28.01,15.91,0,.19.01.38.01.57l28.14-16.39-.15-.09Z"/>
        <path class="cls-3" d="M5408.04,5320.07c.07,10.8.12,21.61.31,32.41,9.37-5.23,18.69-10.57,28.01-15.91l-14.15-8.24-14.16-8.25Z"/>
        <path class="cls-3" d="M5436.64,5336.57l-.14.08,28.14,16.39c0-.17,0-.34.01-.52-9.38-5.24-18.7-10.6-28.02-15.96Z"/>
        <path class="cls-3" d="M5436.36,5336.56l.15.09.14-.08s-.1-.06-.15-.08c-.05.03-.09.05-.14.08Z"/>
        <path class="cls-3" d="M5436.5,5270.16s.1-.06.15-.08l-.14-.08-.15.09s.09.05.14.08Z"/>
        <path class="cls-3" d="M5436.5,5270.16s-.09-.05-.14-.08l-14.15,8.24c4.74-2.76,9.53-5.43,14.29-8.16Z"/>
        <path class="cls-3" d="M5422.2,5328.32l14.15,8.24s.09-.05.14-.08c-4.76-2.73-9.55-5.4-14.29-8.16Z"/>
        <path class="cls-3" d="M5408.04,5319.91c0,.05,0,.11,0,.16l14.16,8.25c-4.75-2.77-9.44-5.62-14.17-8.41Z"/>
        <path class="cls-3" d="M5465.11,5303.32v-16.5s-.09-.05-.14-.08c.03,5.53.14,11.06.14,16.59Z"/>
        <path class="cls-3" d="M5450.81,5328.32l-14.17,8.25c9.32,5.36,18.64,10.72,28.02,15.96.19-10.81.25-21.63.31-32.45l-13.79,8.02c-.12.08-.25.15-.37.22Z"/>
        <path class="cls-3" d="M5408.04,5286.73s-.09.05-.14.08v16.5c0-5.53.1-11.06.14-16.59Z"/>
        <path class="cls-3" d="M5451.18,5328.1l13.79-8.02c0-.06,0-.11,0-.17-4.6,2.72-9.17,5.5-13.79,8.19Z"/>
        <path class="cls-3" d="M5450.79,5278.32l.39.23c-.12-.08-.25-.15-.37-.22l-14.17-8.25s-.1.06-.15.08c4.76,2.73,9.55,5.4,14.3,8.16Z"/>
        <path class="cls-3" d="M5451.18,5328.1l-.39.23c-4.74,2.76-9.54,5.43-14.3,8.16.05.03.1.06.15.08l14.17-8.25c.12-.07.25-.15.37-.22Z"/>
        <path class="cls-3" d="M5450.79,5278.32c-4.74-2.76-9.54-5.43-14.3-8.16-4.76,2.73-9.55,5.4-14.29,8.16-4.75,2.77-9.44,5.62-14.17,8.41-.03,5.53-.14,11.06-.14,16.59s.1,11.06.14,16.59c4.73,2.79,9.42,5.65,14.17,8.41,4.74,2.76,9.53,5.43,14.29,8.16,4.76-2.73,9.55-5.4,14.3-8.16l.39-.23c4.62-2.69,9.19-5.47,13.79-8.19.03-5.53.14-11.06.14-16.59s-.1-11.06-.14-16.59c-4.6-2.72-9.17-5.5-13.79-8.19l-.39-.23Z"/>
        <path class="cls-3" d="M5787.6-866.11c-181.23,310.14-300.04,653.24-351.09,1008.83,16.58,115.5,26.07,232.31,28.14,349.74l.46-.27v.54c101.84-56.91,206.84-107.02,314.26-150.28,279.68-222.4,514.75-497.77,690.34-811.2,168.67-301.1,279.99-631.69,328.97-972.5-16.54-115.07-25.98-231.29-28.12-347.95-101.67,56.84-206.49,106.9-313.73,150.14-267.6,213.07-495.35,475.37-669.24,772.95ZM5465.59,491.35c17.4-931.7,512.41-1796.8,1303.98-2278.87-17.97,932.73-512.99,1797.82-1303.98,2278.87Z"/>
        <path class="cls-3" d="M4074.29-1441.25c49,340.81,160.32,671.4,329,972.5,175.78,313.77,411.18,589.39,691.25,811.92,107.26,43.12,211.96,93.06,313.36,149.62v-.6l.46.27c2.08-117.44,11.56-234.24,28.14-349.74-51.05-355.59-169.86-698.69-351.1-1008.83-174.1-297.94-402.2-560.5-670.24-773.71-107.06-43.09-211.56-92.98-312.78-149.46-2.13,116.68-11.56,232.94-28.1,348.03ZM5407.43,491.35c-790.98-481.04-1286.01-1346.13-1304.03-2278.87,791.61,482.06,1286.63,1347.16,1304.03,2278.87Z"/>
        <path class="cls-3" d="M5407.9,525.51v-32.73c-101.4-56.56-206.1-106.51-313.36-149.62,90.58,71.96,185.79,138.42,285.22,198.75l28.14-16.4Z"/>
        <path class="cls-3" d="M5464.65,492.46c-2.08-117.44-11.56-234.24-28.14-349.74-16.58,115.5-26.07,232.31-28.14,349.74l28.14,16.39,28.14-16.39Z"/>
        <path class="cls-3" d="M5779.38,342.44c-90.83,72.23-186.34,138.92-286.09,199.45l.5.29-.5.29c99.75,60.53,195.25,127.21,286.08,199.44,330.73,133.18,684.62,200.92,1041.44,197.63,342.38-3.16,681.42-71.03,998.13-198.34,90.71-72.07,186.07-138.61,285.65-199.02-99.59-60.4-194.94-126.95-285.65-199.02-316.71-127.31-655.75-195.18-998.13-198.34-356.81-3.29-710.7,64.44-1041.43,197.62ZM8102.67,542.18c-809.58,450.64-1799.62,450.64-2608,0,808.39-450.64,1798.42-450.64,2608,0Z"/>
        <path class="cls-3" d="M8217.69,542.47l.5-.29-28.67-16.68v.17c9.42,5.56,18.83,11.12,28.18,16.79Z"/>
        <path class="cls-3" d="M5493.29,542.47l.5-.29-.5-.29c-.16.09-.31.19-.47.29.16.09.31.19.47.29Z"/>
        <path class="cls-3" d="M5379.76,541.91l-.46.27.46.27c.15-.09.29-.18.44-.27-.15-.09-.29-.18-.44-.27Z"/>
        <path class="cls-3" d="M5493.29,541.89c99.75-60.53,195.25-127.21,286.09-199.45-107.43,43.26-212.43,93.38-314.26,150.28v32.77l28.18,16.39Z"/>
        <path class="cls-3" d="M5465.11,525.67c9.26,5.47,18.52,10.93,27.71,16.5.16-.09.31-.19.47-.29l-28.18-16.39v.17Z"/>
        <path class="cls-3" d="M5407.9,525.67v-.16l-28.14,16.4c.15.09.29.18.44.27,9.19-5.57,18.45-11.04,27.71-16.5Z"/>
        <path class="cls-3" d="M5465.11,592.17l-.46-.27c-2.08,117.44-11.56,234.24-28.14,349.74,51.05,355.58,169.86,698.68,351.09,1008.83,173.89,297.58,401.63,559.88,669.23,772.94,107.06,43.16,211.7,93.13,313.21,149.84v-.56l.55.32c2.15-116.47,11.58-232.52,28.1-347.41-48.99-340.8-160.3-671.39-328.97-972.49-175.59-313.43-410.67-588.8-690.34-811.2-107.43-43.26-212.42-93.38-314.26-150.28v.54ZM6769.56,2871.87c-791.57-482.06-1286.58-1347.16-1303.98-2278.86,790.99,481.05,1286.01,1346.14,1303.98,2278.86Z"/>
        <path class="cls-3" d="M6770.06,2906.09l-.02-32.83c-101.5-56.71-206.15-106.68-313.21-149.84,90.65,72.18,185.87,138.69,285.12,199.02l28.11-16.35Z"/>
        <path class="cls-3" d="M6770.06,2906.26v-.17l-28.11,16.35c.17.1.33.21.5.31,9.16-5.56,18.38-11.03,27.61-16.49Z"/>
        <path class="cls-3" d="M6770.06,2906.26c-9.23,5.46-18.45,10.93-27.61,16.49,9.16,5.57,18.38,11.03,27.61,16.49v-16.49s0-16.49,0-16.49Z"/>
        <path class="cls-3" d="M5408.37,492.46l-.46-.27v.6c.15.08.3.16.45.24,0-.19.01-.38.01-.57Z"/>
        <path class="cls-3" d="M5464.65,591.9l.46.27v-.54c-.15-.08-.3-.16-.45-.25,0,.17,0,.34-.01.52Z"/>
        <path class="cls-3" d="M5408.04,525.43c.07-10.8.12-21.61.31-32.41-.15-.08-.3-.16-.45-.24v32.73l.14-.08Z"/>
        <path class="cls-3" d="M5436.36,508.94l.15-.09-28.14-16.39c0,.19-.01.38-.01.57,9.37,5.23,18.69,10.57,28.01,15.91Z"/>
        <path class="cls-3" d="M5436.36,508.94c-9.32-5.34-18.63-10.68-28.01-15.91-.19,10.8-.25,21.6-.31,32.41l14.16-8.25,14.15-8.24Z"/>
        <path class="cls-3" d="M5465.11,591.63c101.84,56.9,206.83,107.02,314.26,150.28-90.83-72.23-186.34-138.91-286.08-199.44l-28.18,16.39v32.77Z"/>
        <path class="cls-3" d="M5465.11,558.68v.17l28.18-16.39c-.16-.09-.31-.19-.47-.29-9.19,5.57-18.45,11.04-27.71,16.5Z"/>
        <path class="cls-3" d="M5465.11,558.68c9.26-5.47,18.52-10.93,27.71-16.5-9.19-5.57-18.45-11.04-27.71-16.5v33.01Z"/>
        <path class="cls-3" d="M5464.66,591.38c.15.08.3.17.45.25v-32.77l-.14.08c-.07,10.82-.12,21.64-.31,32.45Z"/>
        <path class="cls-3" d="M5464.98,558.93l.14-.08v-.17s-.09.06-.14.08c0,.06,0,.11,0,.17Z"/>
        <path class="cls-3" d="M5408.04,525.59c0-.05,0-.11,0-.16l-.14.08v.16s.09-.06.14-.08Z"/>
        <path class="cls-3" d="M5422.2,517.18l-14.16,8.25c0,.05,0,.11,0,.16,4.73-2.79,9.42-5.65,14.17-8.41Z"/>
        <path class="cls-3" d="M5464.98,558.76s.09-.05.14-.08v-16.5c0,5.53-.1,11.06-.14,16.59Z"/>
        <path class="cls-3" d="M4403.29,1553.11c-168.68,301.1-280,631.68-329,972.49,16.51,114.89,25.94,230.94,28.09,347.41l.54-.32v.65c101.05-56.36,205.38-106.15,312.26-149.17,268.03-213.2,496.13-475.76,670.23-773.71,181.23-310.14,300.05-653.24,351.1-1008.83-16.58-115.5-26.07-232.31-28.14-349.74l-.46.27v-.6c-101.4,56.56-206.1,106.51-313.36,149.62-280.07,222.53-515.47,498.15-691.25,811.92ZM4103.4,2871.87c18.02-932.74,513.06-1797.83,1304.03-2278.86-17.41,931.71-512.43,1796.81-1304.03,2278.86Z"/>
        <path class="cls-3" d="M4131,2922.44c98.91-60.12,193.82-126.38,284.18-198.27-106.88,43.02-211.21,92.81-312.26,149.17l-.02,32.73,28.1,16.37Z"/>
        <path class="cls-3" d="M4102.9,2906.26c9.23,5.46,18.45,10.92,27.61,16.49.17-.1.33-.2.49-.3l-28.1-16.37v.19Z"/>
        <path class="cls-3" d="M4045.64,2972.23v.56l.55-.32c0-.18-.01-.36-.01-.54-.18.1-.36.2-.54.29Z"/>
        <path class="cls-3" d="M4102.92,2873.34v-.65l-.54.32c0,.21.01.41.02.62.17-.09.35-.19.52-.29Z"/>
        <path class="cls-3" d="M4045.82,2939.49l-.16-.09-.02,32.83c.18-.1.36-.19.54-.29-.2-10.81-.28-21.63-.35-32.45Z"/>
        <path class="cls-3" d="M4102.74,2905.98l.16.09.02-32.73c-.17.1-.35.19-.52.29.2,10.78.28,21.56.35,32.35Z"/>
        <path class="cls-3" d="M4102.9,2906.26v-.19s-.16-.09-.16-.09c0,.06,0,.13,0,.19.05.03.1.06.15.09Z"/>
        <path class="cls-3" d="M4045.66,2939.24v.17l.16.09c0-.05,0-.11,0-.17-.05-.03-.1-.06-.16-.09Z"/>
        <path class="cls-3" d="M5407.9,558.84l-28.14-16.4c-99.43,60.33-194.64,126.78-285.22,198.75,107.26-43.12,211.96-93.06,313.36-149.62v-32.73Z"/>
        <path class="cls-3" d="M4102.38,2873.02c-2.15-116.47-11.57-232.52-28.09-347.41-16.52,114.89-25.95,230.94-28.1,347.41l28.09,16.39,28.1-16.39Z"/>
        <path class="cls-3" d="M4074.45,2889.51c9.29-5.33,18.59-10.65,27.95-15.88,0-.21-.01-.41-.02-.62l-28.1,16.39.17.1Z"/>
        <path class="cls-3" d="M4088.61,2897.75l14.13,8.23c-.07-10.79-.15-21.57-.35-32.35-9.35,5.22-18.65,10.54-27.95,15.88l12.51,7.3c.55.32,1.1.62,1.65.94Z"/>
        <path class="cls-3" d="M4045.68,2922.77v-.02,16.49s.09.06.14.09c-.04-5.52-.14-11.04-.14-16.56Z"/>
        <path class="cls-3" d="M4086.96,2896.81l1.63.95c4.74,2.77,9.43,5.62,14.15,8.41,0-.06,0-.13,0-.19l-14.13-8.23c-.55-.32-1.1-.62-1.65-.94Z"/>
        <path class="cls-3" d="M4102.9,2939.23c9.23-5.46,18.45-10.92,27.61-16.49-9.16-5.56-18.38-11.03-27.61-16.49v16.49s0,16.49,0,16.49Z"/>
        <path class="cls-3" d="M4074.15,2956.01c-9.31,5.35-18.61,10.7-27.97,15.93,0,.18.01.36.01.54l28.09-16.39-.13-.08Z"/>
        <path class="cls-3" d="M4058.61,2946.93l-12.79-7.44c.07,10.82.15,21.63.35,32.45,9.36-5.23,18.67-10.58,27.97-15.93l-14.19-8.27c-.45-.26-.9-.54-1.35-.8Z"/>
        <path class="cls-3" d="M4102.89,2922.73v.02-16.49s-.09-.06-.14-.09c.04,5.52.14,11.04.14,16.56Z"/>
        <path class="cls-3" d="M4045.82,2939.33c0,.06,0,.11,0,.17l12.79,7.44c-4.28-2.5-8.52-5.08-12.79-7.6Z"/>
        <path class="cls-3" d="M4074.15,2889.49l.13-.08-28.09-16.39c0,.18-.01.36-.01.54,9.36,5.23,18.67,10.58,27.97,15.93Z"/>
        <path class="cls-3" d="M4059.96,2897.76l14.19-8.27c-9.31-5.35-18.61-10.7-27.97-15.93-.2,10.81-.28,21.63-.35,32.45l12.79-7.44c.45-.26.9-.54,1.35-.8Z"/>
        <path class="cls-3" d="M4102.89,2922.77c0,5.52-.11,11.04-.14,16.56.05-.03.1-.06.15-.09v-16.49s-.01.02-.01.02Z"/>
        <path class="cls-3" d="M4058.61,2898.56l-12.79,7.44c0,.05,0,.11,0,.17,4.27-2.53,8.51-5.1,12.79-7.6Z"/>
        <path class="cls-3" d="M4074.45,2889.51l-.17-.1-.13.08c.06.03.11.06.17.1.04-.03.09-.05.13-.08Z"/>
        <path class="cls-3" d="M4074.15,2956.01l.13.08.17-.1s-.09-.05-.13-.08c-.06.03-.11.07-.17.1Z"/>
        <path class="cls-3" d="M4058.61,2898.56l1.41-.82c4.74-2.76,9.54-5.43,14.3-8.16-.06-.03-.11-.07-.17-.1l-14.19,8.27c-.45.26-.9.54-1.35.8Z"/>
        <path class="cls-3" d="M4060.02,2947.75l-1.41-.82c.45.26.9.54,1.35.8l14.19,8.27c.06-.03.11-.06.17-.1-4.76-2.73-9.55-5.4-14.3-8.16Z"/>
        <path class="cls-3" d="M4086.96,2896.81l-12.51-7.3s-.09.05-.13.08c4.21,2.42,8.45,4.78,12.65,7.23Z"/>
        <path class="cls-3" d="M4074.32,2955.91s.09.05.13.08l12.51-7.3c-4.2,2.44-8.44,4.81-12.65,7.23Z"/>
        <path class="cls-3" d="M4045.68,2922.75v.02c0,5.52.11,11.04.14,16.56,4.27,2.53,8.51,5.1,12.79,7.6l1.41.82c4.74,2.76,9.54,5.43,14.3,8.16,4.21-2.42,8.45-4.78,12.65-7.23l1.63-.95c4.74-2.77,9.43-5.62,14.15-8.41.04-5.52.14-11.04.14-16.56v-.04c0-5.52-.11-11.04-.14-16.56-4.72-2.79-9.41-5.64-14.15-8.41l-1.63-.95c-4.2-2.44-8.44-4.81-12.65-7.23-4.76,2.73-9.55,5.4-14.3,8.16l-1.41.82c-4.28,2.5-8.52,5.08-12.79,7.6-.04,5.52-.14,11.04-.14,16.56v.02Z"/>
        <path class="cls-3" d="M5407.9,591.57v.6l.46-.27c0-.19-.01-.38-.01-.57-.15.08-.3.16-.45.24Z"/>
        <path class="cls-3" d="M5465.11,492.73v-.54l-.46.27c0,.17,0,.34.01.52.15-.08.3-.17.45-.25Z"/>
        <path class="cls-3" d="M5408.04,558.92l-.14-.08v32.73c.15-.08.3-.16.45-.24-.19-10.8-.25-21.6-.31-32.41Z"/>
        <path class="cls-3" d="M5436.64,508.93c9.32-5.36,18.64-10.72,28.02-15.96,0-.17,0-.34-.01-.52l-28.14,16.39.14.08Z"/>
        <path class="cls-3" d="M5407.9,558.68c-9.26-5.47-18.52-10.93-27.71-16.5-.15.09-.29.18-.44.27l28.14,16.4v-.16Z"/>
        <path class="cls-3" d="M5464.98,525.42l.14.08v-32.77c-.15.08-.3.16-.45.25.19,10.81.25,21.63.31,32.45Z"/>
        <path class="cls-3" d="M5408.04,558.76s-.09-.05-.14-.08v.16l.14.08c0-.05,0-.11,0-.16Z"/>
        <path class="cls-3" d="M5465.11,525.67v-.17l-.14-.08c0,.06,0,.11,0,.17.05.03.09.05.14.08Z"/>
        <path class="cls-3" d="M5407.9,525.67c-9.26,5.47-18.52,10.93-27.71,16.5,9.19,5.57,18.45,11.04,27.71,16.5v-33.01Z"/>
        <path class="cls-3" d="M5451.18,517.4l13.79,8.02c-.07-10.82-.12-21.64-.31-32.45-9.38,5.24-18.7,10.6-28.02,15.96l14.17,8.25c.12.07.25.15.37.22Z"/>
        <path class="cls-3" d="M5464.98,525.59c0-.06,0-.11,0-.17l-13.79-8.02c4.62,2.69,9.19,5.47,13.79,8.19Z"/>
        <path class="cls-3" d="M5407.9,542.18v16.5s.09.06.14.08c-.03-5.53-.14-11.06-.14-16.59Z"/>
        <path class="cls-3" d="M5408.37,591.9c2.08,117.44,11.56,234.24,28.14,349.74,16.58-115.5,26.07-232.31,28.14-349.74l-28.14-16.39-28.14,16.39Z"/>
        <path class="cls-3" d="M5436.36,575.42c-9.32,5.34-18.63,10.68-28.01,15.91,0,.19.01.38.01.57l28.14-16.39-.15-.09Z"/>
        <path class="cls-3" d="M5408.04,558.92c.07,10.8.12,21.61.31,32.41,9.37-5.23,18.69-10.57,28.01-15.91l-14.15-8.24-14.16-8.25Z"/>
        <path class="cls-3" d="M5436.64,575.43l-.14.08,28.14,16.39c0-.17,0-.34.01-.52-9.38-5.24-18.7-10.6-28.02-15.96Z"/>
        <path class="cls-3" d="M5436.36,575.42l.15.09.14-.08s-.1-.06-.15-.08c-.05.03-.09.05-.14.08Z"/>
        <path class="cls-3" d="M5436.64,508.93l-.14-.08-.15.09s.09.05.14.08c.05-.03.1-.06.15-.08Z"/>
        <path class="cls-3" d="M5422.2,567.18l14.15,8.24s.09-.05.14-.08c-4.76-2.73-9.55-5.4-14.29-8.16Z"/>
        <path class="cls-3" d="M5436.5,509.02s-.09-.05-.14-.08l-14.15,8.24c4.74-2.76,9.53-5.43,14.29-8.16Z"/>
        <path class="cls-3" d="M5465.11,542.18v-16.5s-.09-.05-.14-.08c.03,5.53.14,11.06.14,16.59Z"/>
        <path class="cls-3" d="M5408.04,558.76c0,.05,0,.11,0,.16l14.16,8.25c-4.75-2.77-9.44-5.62-14.17-8.41Z"/>
        <path class="cls-3" d="M5450.81,567.18l-14.17,8.25c9.32,5.36,18.64,10.72,28.02,15.96.19-10.81.25-21.63.31-32.45l-13.79,8.02c-.12.08-.25.15-.37.22Z"/>
        <path class="cls-3" d="M5408.04,525.59s-.09.05-.14.08v16.5c0-5.53.1-11.06.14-16.59Z"/>
        <path class="cls-3" d="M5464.98,558.93c0-.06,0-.11,0-.17-4.6,2.72-9.17,5.5-13.79,8.19l13.79-8.02Z"/>
        <path class="cls-3" d="M5450.79,517.17l.39.23c-.12-.08-.25-.15-.37-.22l-14.17-8.25s-.1.06-.15.08c4.76,2.73,9.55,5.4,14.3,8.16Z"/>
        <path class="cls-3" d="M5451.18,566.95l-.39.23c-4.74,2.76-9.54,5.43-14.3,8.16.05.03.1.06.15.08l14.17-8.25c.12-.07.25-.15.37-.22Z"/>
        <path class="cls-3" d="M5408.04,558.76c4.73,2.79,9.42,5.65,14.17,8.41,4.74,2.76,9.53,5.43,14.29,8.16,4.76-2.73,9.55-5.4,14.3-8.16l.39-.23c4.62-2.69,9.19-5.47,13.79-8.19.03-5.53.14-11.06.14-16.59s-.1-11.06-.14-16.59c-4.6-2.72-9.17-5.5-13.79-8.19l-.39-.23c-4.74-2.76-9.54-5.43-14.3-8.16-4.76,2.73-9.55,5.4-14.29,8.16-4.75,2.77-9.44,5.62-14.17,8.41-.03,5.53-.14,11.06-.14,16.59s.1,11.06.14,16.59Z"/>
        <path class="cls-3" d="M9181.23,3122.07c-267.6,213.07-495.35,475.37-669.24,772.95-181.23,310.14-300.04,653.24-351.09,1008.83,16.58,115.5,26.07,232.31,28.14,349.74l.46-.27v33.31l28.18,16.39c406.87-246.89,743.82-595.41,976.42-1010.65,225.54-402.6,348.54-857.93,357.06-1319.91l-28.23-16.47c-110.39,63.42-224.59,118.85-341.71,166.07ZM8189.98,5252.5c17.4-931.7,512.41-1796.8,1303.98-2278.87-17.97,932.73-512.99,1797.82-1303.98,2278.87Z"/>
        <path class="cls-3" d="M8189.51,5303.32v16.5c9.42-5.56,18.83-11.12,28.18-16.79l-28.18-16.39v16.68Z"/>
        <path class="cls-3" d="M7139.58,3121.32c-106.88-43.02-211.21-92.81-312.26-149.17v.65l-.54-.32c-2.15,116.47-11.57,232.52-28.09,347.41,49,340.81,160.32,671.4,329,972.5,175.78,313.77,411.18,589.39,691.25,811.92,107.42,43.18,212.27,93.21,313.81,149.87,2.06-117.63,11.55-234.63,28.16-350.31-51.05-355.59-169.86-698.69-351.1-1008.83-174.1-297.94-402.2-560.5-670.23-773.71ZM6827.79,2973.63c791.61,482.06,1286.63,1347.16,1304.03,2278.87-790.98-481.04-1286.01-1346.13-1304.03-2278.87Z"/>
        <path class="cls-3" d="M8189.05,5353.04l.46.27v-33.31l-.14.08c-.07,10.99-.13,21.98-.33,32.97Z"/>
        <path class="cls-3" d="M6827.32,2972.15c101.06,56.36,205.38,106.15,312.26,149.17-90.37-71.89-185.27-138.15-284.18-198.27l-28.1,16.37.02,32.73Z"/>
        <path class="cls-3" d="M6827.29,2939.23v.19s28.1-16.37,28.1-16.37c-.16-.1-.33-.2-.49-.3-9.16,5.56-18.38,11.03-27.61,16.49Z"/>
        <path class="cls-3" d="M6770.58,2972.47c2.15,116.47,11.58,232.52,28.1,347.41,16.51-114.89,25.94-230.94,28.09-347.41l-28.1-16.39-28.09,16.39Z"/>
        <path class="cls-3" d="M8189.37,5319.91c0,.06,0,.11,0,.17l.14-.08v-.17s-.09.06-.14.08Z"/>
        <path class="cls-3" d="M8132.44,5286.73c.07-10.86.12-21.72.31-32.57-101.54-56.66-206.39-106.69-313.81-149.87,90.71,72.07,186.07,138.61,285.65,199.02,9.23-5.6,18.54-11.09,27.84-16.59Z"/>
        <path class="cls-3" d="M6770.58,2873.02l-.55-.32v.56c.18.1.36.19.54.29,0-.18.01-.36.01-.54Z"/>
        <path class="cls-3" d="M6826.78,2972.48l.54.32v-.65c-.17-.1-.35-.19-.52-.29,0,.21-.01.41-.02.62Z"/>
        <path class="cls-3" d="M6770.22,2906c.07-10.82.16-21.63.35-32.45-.18-.1-.36-.2-.54-.29l.02,32.83.16-.09Z"/>
        <path class="cls-3" d="M6827.14,2939.51c-.07,10.79-.15,21.57-.35,32.35.17.09.35.19.52.29l-.02-32.73-.16.09Z"/>
        <path class="cls-3" d="M6770.22,2906.17c0-.06,0-.11,0-.17l-.16.09v.17c.05-.03.11-.06.16-.09Z"/>
        <path class="cls-3" d="M6827.14,2939.51l.16-.09v-.19c-.05.03-.1.06-.15.09,0,.06,0,.13,0,.19Z"/>
        <path class="cls-3" d="M6798.85,2955.99l-.17.1,28.1,16.39c0-.21.01-.41.02-.62-9.35-5.22-18.65-10.54-27.95-15.88Z"/>
        <path class="cls-3" d="M6811.36,2948.68l-12.52,7.3c9.29,5.33,18.59,10.65,27.95,15.88.2-10.78.28-21.56.35-32.35l-14.13,8.23c-.55.32-1.1.62-1.65.94Z"/>
        <path class="cls-3" d="M6770.07,2922.73c0-5.52.11-11.04.14-16.56-.05.03-.1.06-.16.09v16.49s.01-.02.01-.02Z"/>
        <path class="cls-3" d="M6812.99,2947.73l-1.63.95c.55-.32,1.1-.62,1.65-.94l14.13-8.23c0-.06,0-.13,0-.19-4.72,2.79-9.41,5.64-14.15,8.41Z"/>
        <path class="cls-3" d="M8160.76,5270.08l28.29-16.48c-2.08-117.44-11.56-234.24-28.14-349.74-16.61,115.69-26.1,232.69-28.16,350.31,9.37,5.23,18.69,10.57,28.01,15.91Z"/>
        <path class="cls-3" d="M8146.6,5278.32l14.15-8.24c-9.32-5.34-18.63-10.68-28.01-15.91-.19,10.85-.25,21.71-.31,32.57,4.73-2.79,9.42-5.65,14.17-8.41Z"/>
        <path class="cls-3" d="M8189.51,5319.83v-16.5c0,5.53-.1,11.06-.14,16.59.05-.03.09-.05.14-.08Z"/>
        <path class="cls-3" d="M8132.3,5353.31v-.6c-101.4,56.56-206.1,106.51-313.36,149.62-280.07,222.53-515.47,498.15-691.25,811.92-168.68,301.1-280,631.68-329,972.49,18.07,125.72,27.61,252.84,28.45,380.38l28.26,16.46c392.29-238.43,721.61-573.58,954.41-971.97,240.1-410.88,370.77-879.59,379.24-1358.57l-28.14-16.39-28.61,16.66ZM6827.79,7633.01c18.02-932.74,513.06-1797.83,1304.03-2278.86-17.41,931.71-512.43,1796.81-1304.03,2278.86Z"/>
        <path class="cls-3" d="M8104.59,5303.32c-99.59,60.4-194.94,126.95-285.65,199.02,107.26-43.12,211.96-93.06,313.36-149.62v-32.89c-9.26-5.47-18.52-10.93-27.71-16.5Z"/>
        <path class="cls-3" d="M8132.3,5352.72v.6l28.61-16.66-.15-.09c-9.46,5.43-18.93,10.84-28.46,16.15Z"/>
        <path class="cls-3" d="M8189.51,5286.64v-33.31l-.46.27c.19,10.98.26,21.97.33,32.97l.14.08Z"/>
        <path class="cls-3" d="M8146.6,5328.32c-4.79-2.79-9.53-5.67-14.3-8.49v32.89c9.52-5.31,18.99-10.72,28.46-16.15l-14.15-8.24Z"/>
        <path class="cls-3" d="M8189.51,5303.32v-16.68l-.14-.08c.03,5.59.14,11.17.14,16.76Z"/>
        <path class="cls-3" d="M8175.58,5328.1c-.12.08-.25.15-.37.22l-14.3,8.33,28.14,16.39c.19-10.98.26-21.97.33-32.97l-13.79,8.02Z"/>
        <path class="cls-3" d="M8189.37,5320.08c0-.06,0-.11,0-.17-4.6,2.72-9.17,5.5-13.79,8.19l13.79-8.02Z"/>
        <path class="cls-3" d="M8132.3,5319.83v-16.5c0-5.53.1-11.06.14-16.59-9.3,5.49-18.61,10.99-27.84,16.59,9.19,5.57,18.45,11.04,27.71,16.5Z"/>
        <path class="cls-3" d="M8175.19,5278.32l14.18,8.25c-.07-10.99-.13-21.98-.33-32.97l-28.29,16.48c4.81,2.76,9.64,5.45,14.43,8.24Z"/>
        <path class="cls-3" d="M8160.76,5336.56l.15.09,14.3-8.33c.12-.07.25-.15.37-.22l-.39.23c-4.79,2.79-9.63,5.48-14.43,8.24Z"/>
        <path class="cls-3" d="M8175.19,5278.32c-4.79-2.79-9.63-5.48-14.43-8.24l-14.15,8.24c-4.75,2.77-9.44,5.62-14.17,8.41-.03,5.53-.14,11.06-.14,16.59v16.5c4.78,2.82,9.51,5.7,14.3,8.49l14.15,8.24c4.81-2.76,9.64-5.45,14.43-8.24l.39-.23c4.62-2.69,9.19-5.47,13.79-8.19.03-5.53.14-11.06.14-16.59s-.11-11.17-.14-16.76l-14.18-8.25Z"/>
        <path class="cls-3" d="M6798.69-1441.25c49,340.81,160.32,671.4,329,972.5,175.78,313.77,411.18,589.39,691.25,811.92,107.26,43.12,211.96,93.06,313.36,149.62v-.6l28.61,16.66,28.14-16.39c-8.47-478.98-139.14-947.69-379.24-1358.57-232.8-398.39-562.13-733.55-954.41-971.98l-28.26,16.46c-.85,127.54-10.38,254.65-28.45,380.38ZM8131.83,491.35c-790.98-481.04-1286.01-1346.13-1304.03-2278.87,791.61,482.06,1286.63,1347.16,1304.03,2278.87Z"/>
        <path class="cls-3" d="M8132.3,525.67v-32.89c-101.4-56.56-206.1-106.51-313.36-149.62,90.71,72.07,186.07,138.61,285.65,199.02,9.19-5.57,18.45-11.04,27.71-16.5Z"/>
        <path class="cls-3" d="M8189.51,592.17l-.46-.27c-2.08,117.44-11.56,234.24-28.14,349.74,51.05,355.58,169.86,698.68,351.09,1008.83,173.89,297.58,401.63,559.88,669.23,772.94,117.12,47.22,231.32,102.65,341.71,166.07l28.23-16.47c-8.52-461.98-131.52-917.3-357.06-1319.9-232.61-415.23-569.56-763.76-976.42-1010.65l-28.18,16.39v33.31ZM9493.96,2871.87c-791.57-482.06-1286.58-1347.16-1303.98-2278.86,790.99,481.05,1286.01,1346.14,1303.98,2278.86Z"/>
        <path class="cls-3" d="M8189.51,542.18v16.68l28.18-16.39c-9.34-5.67-18.76-11.23-28.18-16.79v16.5Z"/>
        <path class="cls-3" d="M8160.91,508.85l-28.61-16.66v.6c9.52,5.31,18.99,10.72,28.46,16.15l.15-.09Z"/>
        <path class="cls-3" d="M8189.05,591.9l.46.27v-33.31l-.14.08c-.07,10.99-.13,21.98-.33,32.97Z"/>
        <path class="cls-3" d="M8189.51,558.86v-16.68c0,5.59-.11,11.17-.14,16.76l.14-.08Z"/>
        <path class="cls-3" d="M8146.6,517.18l14.15-8.24c-9.46-5.43-18.93-10.84-28.46-16.15v32.89c4.78-2.82,9.51-5.7,14.3-8.49Z"/>
        <path class="cls-3" d="M8189.51,525.5v-33.31l-.46.27c.19,10.98.26,21.97.33,32.97l.14.08Z"/>
        <path class="cls-3" d="M7818.94,741.2c-280.07,222.53-515.47,498.15-691.25,811.92-168.68,301.1-280,631.68-329,972.49,16.51,114.89,25.94,230.94,28.09,347.41l.54-.32v.65c101.05-56.36,205.38-106.15,312.26-149.17,268.03-213.2,496.13-475.76,670.23-773.71,181.23-310.14,300.05-653.24,351.1-1008.83-16.61-115.69-26.1-232.69-28.16-350.31-101.54,56.66-206.39,106.69-313.81,149.87ZM6827.79,2871.87c18.02-932.74,513.06-1797.83,1304.03-2278.86-17.41,931.71-512.43,1796.81-1304.03,2278.86Z"/>
        <path class="cls-3" d="M6855.39,2922.44c98.91-60.12,193.82-126.38,284.18-198.27-106.88,43.02-211.2,92.81-312.26,149.17l-.02,32.73,28.1,16.37Z"/>
        <path class="cls-3" d="M6827.29,2906.26c9.23,5.46,18.45,10.92,27.61,16.49.16-.1.33-.2.49-.3l-28.1-16.37v.18Z"/>
        <path class="cls-3" d="M6827.32,2873.34v-.65l-.54.32c0,.21.01.41.02.62.17-.09.35-.19.52-.29Z"/>
        <path class="cls-3" d="M6770.04,2972.23v.56l.55-.32c0-.18-.01-.36-.01-.54-.18.1-.36.2-.54.29Z"/>
        <path class="cls-3" d="M6770.22,2939.49l-.16-.09-.02,32.83c.18-.1.36-.19.54-.29-.2-10.81-.28-21.63-.35-32.45Z"/>
        <path class="cls-3" d="M6827.14,2905.98l.16.09.02-32.73c-.17.1-.35.19-.52.29.2,10.78.28,21.56.35,32.35Z"/>
        <path class="cls-3" d="M6770.06,2939.24v.17l.16.09c0-.05,0-.11,0-.17-.05-.03-.1-.06-.16-.09Z"/>
        <path class="cls-3" d="M6827.29,2906.26v-.18s-.16-.09-.16-.09c0,.06,0,.12,0,.18.05.03.1.06.15.09Z"/>
        <path class="cls-3" d="M8189.37,525.59s.09.05.14.08v-.17l-.14-.08c0,.06,0,.11,0,.17Z"/>
        <path class="cls-3" d="M8132.44,558.76c-9.3-5.49-18.61-10.99-27.84-16.59-99.59,60.4-194.94,126.95-285.65,199.02,107.42-43.18,212.27-93.21,313.81-149.87-.19-10.85-.25-21.71-.31-32.57Z"/>
        <path class="cls-3" d="M6798.68,2889.4l28.1-16.39c-2.15-116.47-11.57-232.52-28.09-347.41-16.52,114.89-25.95,230.94-28.1,347.41l28.09,16.39Z"/>
        <path class="cls-3" d="M6798.85,2889.5c9.29-5.33,18.59-10.65,27.94-15.87,0-.21-.01-.41-.02-.62l-28.1,16.39.17.1Z"/>
        <path class="cls-3" d="M6813.01,2897.75l14.13,8.23c-.07-10.79-.15-21.57-.35-32.35-9.35,5.22-18.65,10.54-27.94,15.87l12.81,7.47c.45.26.9.51,1.35.77Z"/>
        <path class="cls-3" d="M6770.07,2922.77v-.02,16.49s.09.06.14.09c-.04-5.52-.14-11.04-.14-16.56Z"/>
        <path class="cls-3" d="M6811.65,2896.97l1.35.79c4.74,2.76,9.42,5.61,14.14,8.41,0-.06,0-.13,0-.18l-14.13-8.23c-.45-.26-.9-.51-1.35-.77Z"/>
        <path class="cls-3" d="M6827.29,2939.23c9.23-5.46,18.45-10.92,27.61-16.49-9.16-5.57-18.38-11.03-27.61-16.49v16.49s0,16.49,0,16.49Z"/>
        <path class="cls-3" d="M6770.57,2971.94c0,.18.01.36.01.54l28.09-16.39-.13-.08c-9.31,5.35-18.61,10.7-27.97,15.93Z"/>
        <path class="cls-3" d="M6783.01,2946.93l-12.79-7.44c.07,10.82.16,21.63.35,32.45,9.36-5.23,18.67-10.58,27.97-15.93l-14.19-8.27c-.45-.26-.9-.54-1.35-.8Z"/>
        <path class="cls-3" d="M6770.22,2939.33c0,.06,0,.11,0,.17l12.79,7.44c-4.28-2.5-8.52-5.08-12.79-7.6Z"/>
        <path class="cls-3" d="M6827.28,2922.73v.02-16.49s-.09-.06-.14-.09c.04,5.52.14,11.04.14,16.56Z"/>
        <path class="cls-3" d="M6798.54,2889.49l.13-.08-28.09-16.39c0,.18-.01.36-.01.54,9.36,5.23,18.67,10.58,27.97,15.93Z"/>
        <path class="cls-3" d="M6784.36,2897.76l14.19-8.27c-9.31-5.35-18.61-10.7-27.97-15.93-.2,10.81-.28,21.63-.35,32.45l12.79-7.44c.45-.26.9-.54,1.35-.8Z"/>
        <path class="cls-3" d="M6783.01,2898.56l-12.79,7.44c0,.05,0,.11,0,.17,4.27-2.53,8.51-5.1,12.79-7.6Z"/>
        <path class="cls-3" d="M6827.28,2922.77c0,5.52-.11,11.04-.14,16.56.05-.03.1-.06.15-.09v-16.49s0,.02,0,.02Z"/>
        <path class="cls-3" d="M6798.71,2889.58s.09-.05.13-.08l-.17-.1-.13.08c.06.03.11.06.17.1Z"/>
        <path class="cls-3" d="M6798.54,2956.01l.13.08.17-.1s-.09-.05-.13-.08c-.06.03-.11.07-.17.1Z"/>
        <path class="cls-3" d="M6783.01,2946.93c.45.26.9.54,1.35.8l14.19,8.27c.06-.03.11-.06.17-.1-4.76-2.73-9.55-5.4-14.3-8.16l-1.41-.82Z"/>
        <path class="cls-3" d="M6783.01,2898.56l1.41-.82c4.74-2.76,9.54-5.43,14.3-8.16-.06-.03-.11-.07-.17-.1l-14.19,8.27c-.45.26-.9.54-1.35.8Z"/>
        <path class="cls-3" d="M6798.71,2955.91s.09.05.13.08l12.52-7.3c-4.2,2.44-8.44,4.81-12.65,7.23Z"/>
        <path class="cls-3" d="M6811.65,2896.97l-12.81-7.47s-.09.05-.13.08c4.31,2.47,8.64,4.89,12.94,7.39Z"/>
        <path class="cls-3" d="M6783.01,2898.56c-4.28,2.5-8.52,5.08-12.79,7.6-.04,5.52-.14,11.04-.14,16.56v.04c0,5.52.11,11.04.14,16.56,4.27,2.53,8.51,5.1,12.79,7.6l1.41.82c4.74,2.76,9.54,5.43,14.3,8.16,4.21-2.42,8.45-4.78,12.65-7.23l1.63-.95c4.74-2.77,9.43-5.62,14.15-8.41.04-5.52.14-11.04.14-16.56v-.04c0-5.52-.11-11.04-.14-16.56-4.72-2.79-9.41-5.64-14.14-8.41l-1.35-.79c-4.3-2.5-8.63-4.92-12.94-7.39-4.76,2.73-9.55,5.4-14.3,8.16l-1.41.82Z"/>
        <path class="cls-3" d="M8175.21,517.18c.12.07.25.15.37.22l13.79,8.02c-.07-10.99-.13-21.98-.33-32.97l-28.14,16.39,14.3,8.33Z"/>
        <path class="cls-3" d="M8189.37,525.42l-13.79-8.02c4.62,2.69,9.19,5.47,13.79,8.19,0-.06,0-.11,0-.17Z"/>
        <path class="cls-3" d="M8132.3,542.18v-16.5c-9.26,5.47-18.52,10.93-27.71,16.5,9.23,5.6,18.54,11.09,27.84,16.59-.03-5.53-.14-11.06-.14-16.59Z"/>
        <path class="cls-3" d="M8132.75,591.33c2.06,117.63,11.55,234.63,28.16,350.31,16.58-115.5,26.07-232.31,28.14-349.74l-28.29-16.48c-9.32,5.34-18.63,10.68-28.01,15.91Z"/>
        <path class="cls-3" d="M8160.76,575.42l-14.15-8.24c-4.75-2.77-9.44-5.62-14.17-8.41.07,10.86.12,21.72.31,32.57,9.37-5.23,18.69-10.57,28.01-15.91Z"/>
        <path class="cls-3" d="M8189.51,525.67s-.09-.05-.14-.08c.03,5.53.14,11.06.14,16.59v-16.5Z"/>
        <path class="cls-3" d="M8175.19,567.18c-4.79,2.79-9.63,5.48-14.43,8.24l28.29,16.48c.19-10.98.26-21.97.33-32.97l-14.18,8.25Z"/>
        <path class="cls-3" d="M8175.19,517.17l.39.23c-.12-.08-.25-.15-.37-.22l-14.3-8.33-.15.09c4.81,2.76,9.64,5.45,14.43,8.24Z"/>
        <path class="cls-3" d="M8160.76,508.94l-14.15,8.24c-4.79,2.79-9.53,5.67-14.3,8.49v16.5c0,5.53.1,11.06.14,16.59,4.73,2.79,9.42,5.65,14.17,8.41l14.15,8.24c4.81-2.76,9.64-5.45,14.43-8.24l14.18-8.25c.03-5.59.14-11.17.14-16.76s-.1-11.06-.14-16.59c-4.6-2.72-9.17-5.5-13.79-8.19l-.39-.23c-4.79-2.79-9.63-5.48-14.43-8.24Z"/>
      </g>
    </g>
  </g>
</svg>