<?xml version="1.0" encoding="UTF-8"?>
<svg xmlns="http://www.w3.org/2000/svg" version="1.1" viewBox="0 0 511.8 511.8">
  <defs>
    <style>
      .cls-1 {
        fill: #145c80;
      }

      .cls-2 {
        fill: #fff;
      }
    </style>
  </defs>
  <!-- Generator: Adobe Illustrator 28.7.3, SVG Export Plug-In . SVG Version: 1.2.0 Build 164)  -->
  <g>
    <g id="Layer_1">
      <g>
        <circle class="cls-2" cx="255.9" cy="255.9" r="249.9"/>
        <path class="cls-1" d="M255.9,511.8c-34.5,0-68.1-6.8-99.6-20.1-30.5-12.9-57.8-31.3-81.3-54.8-23.5-23.5-42-50.9-54.8-81.3C6.8,323.9,0,290.4,0,255.9s6.8-68.1,20.1-99.6c12.9-30.5,31.3-57.8,54.8-81.3,23.5-23.5,50.9-42,81.3-54.8C187.8,6.8,221.3,0,255.9,0s68,6.8,99.6,20.1c30.5,12.9,57.8,31.3,81.3,54.8,23.5,23.5,42,50.9,54.8,81.3,13.3,31.6,20.1,65.1,20.1,99.6s-6.8,68-20.1,99.6c-12.9,30.5-31.3,57.8-54.8,81.3-23.5,23.5-50.9,42-81.3,54.8-31.5,13.3-65.1,20.1-99.6,20.1h0ZM255.9,12C121.4,12,12,121.4,12,255.9s109.4,243.9,243.9,243.9,243.9-109.4,243.9-243.9S390.4,12,255.9,12Z"/>
      </g>
      <circle class="cls-1" cx="255.9" cy="255.9" r="235.3"/>
      <path class="cls-2" d="M446.1,325.6c0,0-.1,0-.2,0h0c-2.9-.3-6.7-.9-9.5-1.2-7.3-1-14.7-2.3-21.9-3.8-28.3-6-55.6-16.9-80.2-32.3-.4-.2-.7-.5-1.1-.7,23-59.5,45.8-119.2,67.6-179.1.1-.3,0-.7-.4-.9-.2,0-.5,0-.7.1-37.3,8.3-74,23.2-103.6,47.8-3.3,2.8-6.3,5.9-9.1,9.2-28.6,34.4-22.5,85.2,13.1,112.2,2.3,1.9,5.2,4.1,7.6,5.9,5.8,4.3,11.8,8.3,18,12-18.9,49.2-37.4,98.4-55.7,147.8.6-5.5.8-11,.8-16.5,0-6-.4-12.1-1.1-18.1-6.3-54.9-36.2-107.8-82.5-138.6-36.1-23.8-80.4-31.6-122-19.6v-.7c0-14.5,1.8-29.1,5.1-43.2,13-56.3,50.8-104.5,102.2-130.9,8.9-4.6,18.3-8.6,27.9-11.7,22.4-7.5,46.1-10.8,69.6-10,.4,0,.8-.3.8-.7,0-.5-.3-.9-.8-.9-36.5-4.5-74.5,2.4-107.6,19-43.1,21.3-77.7,58.6-96.3,103-20.7,48.9-21.3,105.6-2,155.1,21.8,56.2,67.9,101.1,124.8,121,47.3,16.7,100.9,15.4,147.1-4.2,51.5-21.4,93.6-65.7,110.4-118.9.2-.4,0-.9-.4-1h0ZM303.7,265.3c-9.3-8.2-16.4-19-20.1-30.9-8.3-25.5-.2-54.9,19.9-72.6,13.3-12,28.6-21.9,44.4-30.4,16.3-8.7,33.6-16,51.1-22.2-23.7,58.4-46.8,117.1-69.5,175.9-9-6-17.7-12.6-25.8-19.8h0ZM256.5,447.8c-105.7-2.6-191.5-91.1-191.3-196.6,39.4-5.2,80.7,3.3,113.7,25.9,55.2,37.8,87.5,104.6,89.2,170.8-3.8,0-7.7,0-11.6,0h0ZM269.9,447.9c14-34.6,28-70,41.6-104.7,6-15.3,12-30.7,17.9-46,2.2,1.3,4.5,2.5,6.8,3.8,22.2,11.8,46.4,19.9,71.3,23.5,11.6,1.7,23.4,2.5,35.1,2.4h2.1c-29.2,70.6-99,118.6-174.8,121.1h0Z"/>
    </g>
  </g>
</svg>