<?xml version="1.0" encoding="UTF-8"?>
<svg id="Layer_1" xmlns="http://www.w3.org/2000/svg" viewBox="0 0 1440 1440">
  <defs>
    <style>
      .cls-1 {
        fill: #fff;
      }

      .cls-2 {
        fill: none;
      }
    </style>
  </defs>
  <path class="cls-1" d="M1440,720C1440,322.35,1117.65,0,720,0S0,322.35,0,720c0,359.37,263.29,657.24,607.5,711.25v-503.13h-182.81v-208.12h182.81v-158.62c0-180.45,107.49-280.12,271.95-280.12,78.78,0,161.17,14.06,161.17,14.06v177.19h-90.79c-89.44,0-117.33,55.5-117.33,112.44v135.06h199.69l-31.92,208.12h-167.77v503.13c344.21-54.01,607.5-351.88,607.5-711.25Z"/>
  <path class="cls-2" d="M1000.27,928.12l31.92-208.12h-199.69v-135.06c0-56.94,27.89-112.44,117.33-112.44h90.79v-177.19s-82.4-14.06-161.17-14.06c-164.46,0-271.95,99.68-271.95,280.13v158.62h-182.81v208.12h182.81v503.13c36.66,5.75,74.23,8.75,112.5,8.75s75.84-3,112.5-8.75v-503.13h167.77Z"/>
</svg>