<?xml version="1.0" encoding="UTF-8"?>
<svg id="Layer_1" xmlns="http://www.w3.org/2000/svg" viewBox="0 0 310.98 310.98">
  <defs>
    <style>
      .cls-1 {
        fill: #145c80;
      }

      .cls-2 {
        stroke: #fff;
        stroke-miterlimit: 10;
      }

      .cls-2, .cls-3 {
        fill: #fff;
      }
    </style>
  </defs>
  <g>
    <g>
      <circle class="cls-3" cx="155.49" cy="155.49" r="150.37"/>
      <path class="cls-1" d="M155.49,310.98C69.75,310.98,0,241.23,0,155.49S69.75,0,155.49,0s155.49,69.75,155.49,155.49-69.75,155.49-155.49,155.49ZM155.49,10.25C75.4,10.25,10.25,75.4,10.25,155.49s65.16,145.24,145.24,145.24,145.24-65.15,145.24-145.24S235.58,10.25,155.49,10.25Z"/>
    </g>
    <circle class="cls-1" cx="155.5" cy="154.85" r="139.59"/>
  </g>
  <g>
    <path class="cls-2" d="M103.26,84.64c1.11,1.44,1.66,3.34,1.66,5.7v11.01c0,.34-.11.62-.33.84-.22.22-.5.33-.84.33s-.62-.11-.84-.33c-.22-.22-.33-.5-.33-.84v-10.89c0-1.71-.41-3.1-1.23-4.18s-2.09-1.61-3.82-1.61c-1.1,0-2.13.26-3.11.78s-1.77,1.23-2.37,2.12c-.6.89-.9,1.86-.9,2.9v10.89c0,.34-.11.62-.33.84-.22.22-.5.33-.84.33s-.62-.11-.84-.33c-.22-.22-.33-.5-.33-.84v-11.01c0-1.69-.39-3.05-1.17-4.1-.78-1.05-2.01-1.58-3.68-1.58-1.07,0-2.08.26-3.03.78s-1.72,1.21-2.31,2.08-.88,1.81-.88,2.82v11.01c0,.34-.11.62-.33.84-.22.22-.5.33-.84.33s-.62-.11-.84-.33c-.22-.22-.33-.5-.33-.84v-17.42c0-.34.11-.62.33-.84.22-.22.5-.33.84-.33s.62.11.84.33c.22.22.33.5.33.84v2.26c.71-1.06,1.66-1.94,2.86-2.65s2.47-1.05,3.8-1.05c1.51,0,2.82.36,3.91,1.09,1.1.73,1.88,1.79,2.35,3.19.55-1.14,1.55-2.14,3.01-3s2.94-1.28,4.42-1.28c2.35,0,4.08.72,5.19,2.16l-.02-.02Z"/>
    <path class="cls-2" d="M128.15,82.98c.22.23.33.52.33.86v17.5c0,.34-.11.62-.33.84-.22.22-.5.33-.84.33s-.62-.11-.84-.33c-.22-.22-.33-.5-.33-.84v-2.61c-.65,1.17-1.63,2.15-2.94,2.96-1.3.8-2.73,1.21-4.27,1.21-1.75,0-3.32-.45-4.72-1.36s-2.49-2.15-3.29-3.73-1.19-3.36-1.19-5.33.4-3.74,1.21-5.31,1.91-2.79,3.31-3.68c1.4-.88,2.94-1.32,4.64-1.32,1.57,0,3,.38,4.31,1.13,1.3.75,2.28,1.74,2.94,2.96v-2.41c0-.34.11-.62.33-.86.22-.23.5-.35.84-.35s.62.12.84.35h0ZM122.83,99.65c1.08-.71,1.93-1.7,2.54-2.96s.92-2.66.92-4.22-.31-2.88-.92-4.12-1.46-2.22-2.54-2.94c-1.08-.71-2.3-1.07-3.66-1.07s-2.58.35-3.66,1.05c-1.08.7-1.93,1.67-2.54,2.9s-.92,2.63-.92,4.18.3,2.96.9,4.22,1.44,2.24,2.53,2.96c1.08.71,2.32,1.07,3.7,1.07s2.58-.36,3.66-1.07h0Z"/>
    <path class="cls-2" d="M133.18,98.5c0-.34.17-.6.51-.78.16-.16.37-.23.63-.23.31,0,.6.13.86.39,1.54,2.02,3.59,3.03,6.15,3.03,1.25,0,2.34-.29,3.27-.88.93-.58,1.39-1.43,1.39-2.55s-.43-1.91-1.29-2.45-2.06-1.01-3.6-1.4c-2.17-.54-3.86-1.25-5.09-2.12s-1.84-2.15-1.84-3.83c0-1.06.3-2.02.9-2.86.6-.84,1.42-1.5,2.45-1.96s2.2-.7,3.5-.7c1.12,0,2.25.21,3.39.64s2.11,1.11,2.92,2.04c.24.18.35.44.35.78,0,.31-.13.58-.39.82-.18.16-.42.23-.7.23-.26,0-.5-.1-.71-.31-.63-.7-1.37-1.23-2.23-1.59-.86-.36-1.79-.54-2.78-.54-1.23,0-2.28.29-3.15.86-.88.57-1.31,1.43-1.31,2.57.05,1.04.53,1.83,1.43,2.37s2.22,1.04,3.97,1.48c1.36.34,2.48.71,3.37,1.13s1.61,1,2.17,1.75.84,1.75.84,2.99c0,1.69-.68,3.03-2.04,4.03s-3.04,1.5-5.05,1.5c-3.18,0-5.71-1.18-7.59-3.54-.21-.34-.31-.62-.31-.86h-.02Z"/>
    <path class="cls-2" d="M151.54,98.5c0-.34.17-.6.51-.78.16-.16.37-.23.63-.23.31,0,.6.13.86.39,1.54,2.02,3.59,3.03,6.15,3.03,1.25,0,2.34-.29,3.27-.88.93-.58,1.39-1.43,1.39-2.55s-.43-1.91-1.29-2.45-2.06-1.01-3.6-1.4c-2.17-.54-3.86-1.25-5.09-2.12s-1.84-2.15-1.84-3.83c0-1.06.3-2.02.9-2.86.6-.84,1.42-1.5,2.45-1.96s2.2-.7,3.5-.7c1.12,0,2.25.21,3.39.64s2.11,1.11,2.92,2.04c.24.18.35.44.35.78,0,.31-.13.58-.39.82-.18.16-.42.23-.7.23-.26,0-.5-.1-.71-.31-.63-.7-1.37-1.23-2.23-1.59-.86-.36-1.79-.54-2.78-.54-1.23,0-2.28.29-3.15.86-.88.57-1.31,1.43-1.31,2.57.05,1.04.53,1.83,1.43,2.37s2.22,1.04,3.97,1.48c1.36.34,2.48.71,3.37,1.13s1.61,1,2.17,1.75.84,1.75.84,2.99c0,1.69-.68,3.03-2.04,4.03s-3.04,1.5-5.05,1.5c-3.18,0-5.71-1.18-7.59-3.54-.21-.34-.31-.62-.31-.86h-.02Z"/>
    <path class="cls-2" d="M188.74,82.98c.22.23.33.52.33.86v17.5c0,.34-.11.62-.33.84-.22.22-.5.33-.84.33s-.62-.11-.84-.33-.33-.5-.33-.84v-2.61c-.65,1.17-1.63,2.15-2.94,2.96-1.3.8-2.73,1.21-4.27,1.21-1.75,0-3.32-.45-4.72-1.36s-2.49-2.15-3.29-3.73c-.8-1.58-1.19-3.36-1.19-5.33s.4-3.74,1.21-5.31c.81-1.57,1.91-2.79,3.31-3.68,1.4-.88,2.94-1.32,4.64-1.32,1.57,0,3,.38,4.31,1.13,1.3.75,2.28,1.74,2.94,2.96v-2.41c0-.34.11-.62.33-.86s.5-.35.84-.35.62.12.84.35h0ZM183.42,99.65c1.08-.71,1.93-1.7,2.54-2.96s.92-2.66.92-4.22-.31-2.88-.92-4.12c-.61-1.24-1.46-2.22-2.54-2.94-1.08-.71-2.3-1.07-3.66-1.07s-2.58.35-3.66,1.05c-1.08.7-1.93,1.67-2.54,2.9s-.92,2.63-.92,4.18.3,2.96.9,4.22c.6,1.26,1.44,2.24,2.52,2.96,1.08.71,2.32,1.07,3.7,1.07s2.58-.36,3.66-1.07Z"/>
    <path class="cls-2" d="M212.97,82.96c.22.22.33.51.33.88v16.84c0,2.02-.42,3.75-1.27,5.19s-2.01,2.53-3.48,3.29c-1.47.75-3.16,1.13-5.07,1.13-.91,0-1.87-.12-2.88-.35s-1.87-.53-2.58-.9-1.13-.74-1.23-1.13c-.18-.18-.27-.39-.27-.62,0-.26.12-.47.35-.62.1-.08.23-.12.39-.12s.46.09.9.27l.82.35c1.62.62,3.13.93,4.54.93,2.32,0,4.14-.66,5.46-1.96,1.32-1.31,1.98-3.08,1.98-5.31v-2.41c-.65,1.4-1.68,2.5-3.09,3.29s-2.88,1.19-4.42,1.19c-1.8,0-3.42-.45-4.87-1.34s-2.59-2.13-3.42-3.71-1.25-3.36-1.25-5.33.42-3.71,1.25-5.29,1.98-2.82,3.42-3.71,3.06-1.34,4.83-1.34c1.64,0,3.15.41,4.52,1.23,1.37.82,2.38,1.8,3.03,2.94v-2.49c0-.34.11-.62.33-.86s.5-.35.84-.35.62.11.84.33v-.02ZM207.49,99.69c1.13-.69,2.02-1.66,2.66-2.92.64-1.26.96-2.68.96-4.26s-.32-3-.96-4.24-1.53-2.21-2.66-2.9c-1.14-.69-2.42-1.03-3.86-1.03s-2.68.36-3.82,1.07c-1.14.71-2.02,1.69-2.66,2.94s-.96,2.63-.96,4.16.32,2.96.96,4.2,1.53,2.22,2.66,2.94c1.13.71,2.41,1.07,3.82,1.07s2.72-.34,3.86-1.03Z"/>
    <path class="cls-2" d="M235.26,92.22c-.23.22-.51.33-.82.33h-14.8c0,1.56.32,2.95.96,4.18s1.55,2.2,2.74,2.92c1.19.71,2.59,1.07,4.21,1.07,1.25,0,2.37-.26,3.37-.78.99-.52,1.79-1.18,2.39-1.98.29-.23.56-.35.82-.35s.5.1.71.31.31.44.31.7c0,.29-.13.56-.39.82-.83,1.01-1.88,1.84-3.15,2.49s-2.6.97-4.01.97c-2.01,0-3.78-.43-5.32-1.28-1.54-.86-2.74-2.05-3.6-3.6-.86-1.54-1.29-3.33-1.29-5.35,0-2.13.42-3.99,1.27-5.58s1.98-2.81,3.39-3.66c1.41-.84,2.91-1.26,4.5-1.26s3.03.36,4.4,1.09c1.37.73,2.49,1.79,3.35,3.19s1.3,3.06,1.33,4.98c0,.31-.12.58-.35.8h-.02ZM222.32,85.98c-1.29,1.04-2.12,2.53-2.49,4.47h13.35v-.31c-.13-1.17-.52-2.18-1.17-3.05s-1.47-1.53-2.45-1.98c-.98-.45-1.99-.68-3.03-.68-1.51,0-2.92.52-4.21,1.56h0Z"/>
  </g>
  <g>
    <g>
      <path class="cls-2" d="M98.74,233.98c-.64-1.07-1.31-2.28-1.95-3.37-.47-.91-1.31-2.57-1.76-3.48-.5-1.18-1.34-2.9-1.78-4.1-.3-.76-.71-1.86-1-2.62-.08-.27-.77-2.33-.87-2.67-.25-.71-.42-1.44-.62-2.16-.19-.66-.42-1.52-.57-2.18l-.48-2.2c-.65-3.13-1.03-6.32-1.22-9.51-.43-8.11.63-16.32,3.15-24.04,1.51-4.63,3.47-9.15,6.16-13.22,2.97-.15,5.96.07,8.9.43,15.33,1.94,30.09,9.16,40.57,20.56.44.52,1.79,1.99,2.22,2.53.51.62,1.58,2.01,2.09,2.64.36.53,1.57,2.21,1.93,2.74.6.89,1.51,2.39,2.09,3.3.61,1.11,1.28,2.3,1.88,3.41-.73-1.02-1.52-2.13-2.25-3.16-.94-1.19-2.1-2.77-3.1-3.89-6.31-7.54-14.22-13.82-23.04-18.1-6.83-3.3-14.2-5.54-21.72-6.54-2.83-.38-5.68-.62-8.53-.55l1.32-.75c-.38.58-.73,1.17-1.06,1.77-7.44,13.67-9.66,30-6.77,45.26.22,1.02.41,2.21.67,3.22.17.63.6,2.57.81,3.19.3.96.62,2.22.94,3.17.21.57.85,2.56,1.06,3.14.36.95,1.04,2.66,1.4,3.61.51,1.15,1.05,2.41,1.54,3.57h0Z"/>
      <path class="cls-2" d="M216.26,233.98c.49-1.15,1.04-2.41,1.54-3.57.36-.95,1.04-2.67,1.4-3.61.2-.62.84-2.48,1.06-3.14.32-.95.65-2.2.94-3.17.22-.64.63-2.5.81-3.19.27-1.01.45-2.19.67-3.22,2.88-15.26.67-31.58-6.77-45.26-.34-.6-.69-1.2-1.06-1.77l1.32.75c-2.85-.07-5.7.17-8.53.55-7.51,1-14.89,3.24-21.72,6.54-8.83,4.28-16.74,10.56-23.04,18.1-1.01,1.12-2.16,2.71-3.1,3.89-.73,1.03-1.52,2.14-2.25,3.16.59-1.11,1.27-2.31,1.88-3.41.56-.9,1.51-2.42,2.09-3.3.37-.55,1.54-2.17,1.93-2.74.5-.62,1.61-2.05,2.09-2.64.43-.54,1.75-1.97,2.22-2.53,10.49-11.39,25.24-18.62,40.57-20.56,2.94-.35,5.93-.58,8.9-.43,2.69,4.08,4.64,8.6,6.16,13.22,2.51,7.72,3.57,15.94,3.15,24.04-.2,3.19-.58,6.38-1.22,9.51-.26,1.26-.68,3.14-1.05,4.38-.2.72-.37,1.45-.62,2.16-.23.65-.8,2.55-1.07,3.19-.2.51-.6,1.58-.8,2.09-.45,1.2-1.27,2.93-1.78,4.1-.45.91-1.29,2.57-1.76,3.48-.64,1.08-1.3,2.3-1.95,3.37h0Z"/>
    </g>
    <path class="cls-2" d="M220.28,225.86c-5.65,17.97-19.89,32.95-37.27,40.16-15.62,6.6-33.7,7.06-49.68,1.4-19.22-6.73-34.8-21.87-42.14-40.85-6.52-16.69-6.31-35.85.66-52.35,6.28-14.97,17.96-27.56,32.52-34.76,11.19-5.58,24.01-7.92,36.34-6.4.15,0,.28.15.26.3-.02.14-.14.24-.28.24-7.96-.28-15.96.84-23.5,3.36-3.23,1.07-6.39,2.41-9.41,3.96-17.34,8.9-30.11,25.18-34.5,44.18-1.11,4.77-1.69,9.7-1.73,14.6-.47,35.93,28.64,66.18,64.57,67.07,27.41,1.04,53.28-15.74,63.66-41.12.06-.14.21-.2.35-.14s.2.21.15.35h0Z"/>
  </g>
</svg>