<?xml version="1.0" encoding="UTF-8"?>
<svg id="Layer_1" xmlns="http://www.w3.org/2000/svg" viewBox="0 0 310.98 310.98">
  <defs>
    <style>
      .cls-1 {
        fill: #145c80;
      }

      .cls-2 {
        stroke: #fff;
        stroke-miterlimit: 10;
      }

      .cls-2, .cls-3 {
        fill: #fff;
      }
    </style>
  </defs>
  <g>
    <g>
      <circle class="cls-3" cx="155.49" cy="155.49" r="150.37"/>
      <path class="cls-1" d="M155.49,310.98C69.75,310.98,0,241.23,0,155.49S69.75,0,155.49,0s155.49,69.75,155.49,155.49-69.75,155.49-155.49,155.49ZM155.49,10.25C75.4,10.25,10.25,75.4,10.25,155.49s65.16,145.24,145.24,145.24,145.24-65.15,145.24-145.24S235.58,10.25,155.49,10.25Z"/>
    </g>
    <circle class="cls-1" cx="155.5" cy="154.85" r="139.3"/>
  </g>
  <g>
    <path class="cls-2" d="M132.26,82.24c.42.21.63.52.63.93,0,.36-.1.66-.31.88-.21.22-.46.33-.74.33-.13,0-.39-.06-.76-.19-.38-.13-.74-.19-1.08-.19-.97,0-1.92.37-2.88,1.11-.95.74-1.74,1.69-2.35,2.86s-.92,2.35-.92,3.54v9.61c0,.34-.11.62-.33.84-.22.22-.5.33-.84.33s-.62-.11-.84-.33c-.22-.22-.33-.5-.33-.84v-17.42c0-.34.11-.62.33-.84.22-.22.5-.33.84-.33s.62.11.84.33c.22.22.33.5.33.84v3.42c.6-1.48,1.51-2.7,2.72-3.68,1.21-.97,2.64-1.47,4.29-1.5.52,0,.99.1,1.41.31h-.01Z"/>
    <path class="cls-2" d="M152.26,91.99c-.23.22-.51.33-.82.33h-14.8c0,1.56.32,2.95.96,4.18s1.55,2.2,2.74,2.92c1.19.71,2.59,1.07,4.21,1.07,1.25,0,2.37-.26,3.37-.78.99-.52,1.79-1.18,2.39-1.98.29-.23.56-.35.82-.35s.5.1.71.31.31.44.31.7c0,.29-.13.56-.39.82-.83,1.01-1.88,1.84-3.15,2.49s-2.6.97-4.01.97c-2.01,0-3.78-.43-5.32-1.28-1.54-.86-2.74-2.05-3.6-3.6-.86-1.54-1.29-3.33-1.29-5.35,0-2.13.42-3.99,1.27-5.58s1.98-2.81,3.39-3.66c1.41-.84,2.91-1.26,4.5-1.26s3.03.36,4.4,1.09c1.37.73,2.49,1.79,3.35,3.19s1.3,3.06,1.33,4.98c0,.31-.12.58-.35.8h-.02ZM139.33,85.75c-1.29,1.04-2.12,2.53-2.49,4.47h13.35v-.31c-.13-1.17-.52-2.18-1.17-3.05s-1.47-1.53-2.45-1.98c-.98-.45-1.99-.68-3.03-.68-1.51,0-2.92.52-4.21,1.56h0Z"/>
    <path class="cls-2" d="M157.35,79.07c-.29-.25-.43-.6-.43-1.07v-.39c0-.47.15-.82.45-1.07s.71-.37,1.23-.37c1.04,0,1.57.48,1.57,1.44v.39c0,.47-.14.82-.41,1.07s-.67.37-1.19.37-.93-.12-1.21-.37h0ZM159.4,101.94c-.22.22-.5.33-.84.33s-.62-.11-.84-.33-.33-.5-.33-.84v-17.89c0-.34.11-.62.33-.84.22-.22.5-.33.84-.33s.62.11.84.33.33.5.33.84v17.89c0,.34-.11.62-.33.84Z"/>
    <path class="cls-2" d="M182.05,101.11c0,.34-.14.62-.41.84-.27.22-.53.33-.76.33-.34,0-.63-.14-.86-.43l-8.65-9.1-2.94,2.49v5.87c0,.34-.11.62-.33.84-.22.22-.5.33-.84.33s-.62-.11-.84-.33-.33-.5-.33-.84v-26.45c0-.34.11-.62.33-.84.22-.22.5-.33.84-.33s.62.11.84.33.33.5.33.84v17.74l11.31-9.69c.23-.26.51-.39.82-.39.29,0,.55.12.78.37.24.25.35.51.35.8,0,.31-.14.61-.43.9l-8.06,6.81,8.49,9.02c.23.26.35.56.35.89h0Z"/>
    <path class="cls-2" d="M186.67,79.07c-.29-.25-.43-.6-.43-1.07v-.39c0-.47.15-.82.45-1.07s.71-.37,1.23-.37c1.04,0,1.57.48,1.57,1.44v.39c0,.47-.14.82-.41,1.07s-.67.37-1.19.37-.93-.12-1.21-.37h0ZM188.72,101.94c-.22.22-.5.33-.84.33s-.62-.11-.84-.33-.33-.5-.33-.84v-17.89c0-.34.11-.62.33-.84.22-.22.5-.33.84-.33s.62.11.84.33.33.5.33.84v17.89c0,.34-.11.62-.33.84Z"/>
  </g>
  <g>
    <g>
      <path class="cls-2" d="M129.18,215.06c10.9-.35,21.88-3.43,31.01-9.49,6.85-4.57,12.34-10.94,16.45-18.03l.18-.29v-.02h0v-.09c-5.59-9.18-13.55-17.14-23.28-21.86-5.55-2.68-11.65-4.22-17.77-4.76l-.68-.07-.34-.03c-.42-.02-1.32-.06-1.7-.08l-.68-.04-.34-.02c-.61,0-1.78-.02-2.39-.02-.2,0-.55,0-.48,0-.02,0-.03.02-.04.03-.59,1.01-1.12,2.05-1.63,3.11-7.38,15.49-8.38,32-.55,47.53.61,1.31,1.38,2.65,2.08,3.92l.08.15.02.03s.04.03.07.03h-.02ZM129.19,216.47c-.62,0-1.15-.37-1.4-.93l-.17-.31c-.66-1.2-1.34-2.5-1.9-3.74-.9-1.89-1.6-3.87-2.28-5.86-.23-.77-.57-1.9-.78-2.68-.09-.41-.39-1.6-.49-2.03-.2-.89-.37-1.84-.54-2.73-.12-.82-.31-1.94-.4-2.75-.21-1.76-.38-3.77-.41-5.54-.09-2.28,0-4.67.18-6.94.7-8.14,2.86-16.25,6.89-23.4.27-.46.85-.74,1.37-.7h.35c.42,0,1.66.04,2.1.05,6.27.25,12.49,1.71,18.28,4.13,10.86,4.59,20.61,12.22,27.19,22.06.29.44.57.89.84,1.34.28.46.28,1.07,0,1.53-2.39,4.13-5.34,7.96-8.76,11.28-10.56,10.28-25.31,16.8-40.08,17.25h0v-.03Z"/>
      <path class="cls-2" d="M128.64,215.08c4.74-.38,9.52.08,14.17,1.04,7.65,1.61,14.96,4.98,20.97,9.98,4.85,4.04,8.82,9.12,11.79,14.66-3.61-6.34-8.51-11.98-14.56-16.1-5.51-3.78-11.87-6.29-18.42-7.5-4.26-.78-8.63-1.09-12.95-.76-.28.02-.57.05-.84.09l-.17-1.4h0Z"/>
      <path class="cls-2" d="M129.32,216.14c-2.5,4.15-4.3,8.7-5.64,13.35-2.44,8.56-2.91,17.73-1.1,26.47,1.2,5.61,3.3,11.02,6.14,16.02-3.14-5.26-5.54-11.04-6.78-17.06-2.33-10.9-1.04-22.42,2.99-32.77.91-2.32,1.93-4.6,3.19-6.76l1.2.75h0Z"/>
    </g>
    <path class="cls-2" d="M174.54,240.89c-14.35.56-28.85-5.38-38.92-15.64-21.58-21.55-20.67-57.75,2-78.15,9.63-8.82,22.59-13.94,35.66-13.85,1.33,0,2.67.05,4,.17-3.54.02-7.08.34-10.56,1.01-17.22,3.17-32.45,15.19-39.42,31.26-15.14,34.89,9.42,73.39,47.24,75.21h0Z"/>
  </g>
</svg>