<?xml version="1.0" encoding="UTF-8"?>
<svg id="Layer_1" xmlns="http://www.w3.org/2000/svg" xmlns:xlink="http://www.w3.org/1999/xlink" viewBox="0 0 1286.86 1433.2">
  <defs>
    <style>
      .cls-1 {
        fill: #145c80;
      }

      .cls-2 {
        stroke: #fff;
        stroke-miterlimit: 10;
      }

      .cls-2, .cls-3 {
        fill: #fff;
      }

      .cls-4 {
        fill: url(#linear-gradient);
      }
    </style>
    <linearGradient id="linear-gradient" x1="114.96" y1="756.8" x2="1238.59" y2="676.71" gradientUnits="userSpaceOnUse">
      <stop offset="0" stop-color="#fff"/>
      <stop offset="0" stop-color="#f4f7f9"/>
      <stop offset=".04" stop-color="#c5d7e0"/>
      <stop offset=".07" stop-color="#9bb9c9"/>
      <stop offset=".11" stop-color="#76a0b5"/>
      <stop offset=".15" stop-color="#578ba4"/>
      <stop offset=".19" stop-color="#3f7997"/>
      <stop offset=".24" stop-color="#2b6c8c"/>
      <stop offset=".29" stop-color="#1e6385"/>
      <stop offset=".36" stop-color="#165d81"/>
      <stop offset=".49" stop-color="#145c80"/>
      <stop offset=".6" stop-color="#165d81"/>
      <stop offset=".67" stop-color="#1f6386"/>
      <stop offset=".73" stop-color="#2e6e8e"/>
      <stop offset=".78" stop-color="#437c99"/>
      <stop offset=".83" stop-color="#5e8fa8"/>
      <stop offset=".88" stop-color="#80a6ba"/>
      <stop offset=".92" stop-color="#a7c2cf"/>
      <stop offset=".97" stop-color="#d4e1e8"/>
      <stop offset="1" stop-color="#fff"/>
    </linearGradient>
  </defs>
  <g>
    <path class="cls-4" d="M112.1,1041.06h46.05c0,193.08,200.96,336.4,456.34,336.4,209.33,0,360.05-91.57,360.05-226.92,0-147.3-171.65-216.97-366.33-294.6-217.7-87.58-470.99-185.12-470.99-443.89S369.57,0,681.48,0c282.59,0,500.3,157.25,500.3,368.25h-46.05c0-183.13-173.74-314.51-397.73-314.51-200.96,0-351.67,101.52-351.67,238.87,0,159.24,188.4,230.9,380.98,302.56,232.36,87.58,470.99,175.17,470.99,425.98s-230.26,412.04-565.19,412.04c-309.81,0-561-169.2-561-392.14Z"/>
    <path class="cls-1" d="M291.55,467.37c20.72,24.48,40.95,49.48,62.95,72.79,28.83,31.08,62.64,56.57,97.95,79.87,31.82,21.29,64.31,41.59,98.36,59.05,22.53,10.41,46.27,20.33,69.27,29.76,158.35,64.8,371.38,132.66,450.98,297.39,9.28,19.56,16.85,39.69,23.91,60.1,0,0-1.47.63-1.47.63-10.58-24.59-21.47-49.08-35.26-72.03-19.46-31.95-45.1-59.83-73.15-84.44-36.31-31.57-77.57-57.24-120.08-79.57-102.23-53.46-213.04-87.7-317.08-137.23-26.39-13.25-51.4-29.19-75.91-45.6-35.43-24.19-70.81-48.97-101.12-79.54-30.25-30.58-55.32-65.64-80.64-100.24,0,0,1.29-.95,1.29-.95h0Z"/>
  </g>
  <g>
    <g>
      <g>
        <circle class="cls-3" cx="1131.37" cy="344.78" r="150.37"/>
        <path class="cls-1" d="M1131.37,500.27c-85.74,0-155.49-69.75-155.49-155.49s69.75-155.49,155.49-155.49,155.49,69.75,155.49,155.49-69.75,155.49-155.49,155.49ZM1131.37,199.54c-80.09,0-145.24,65.15-145.24,145.24s65.16,145.24,145.24,145.24,145.24-65.15,145.24-145.24-65.16-145.24-145.24-145.24Z"/>
      </g>
      <circle class="cls-1" cx="1131.37" cy="344.14" r="137.51"/>
    </g>
    <g>
      <path class="cls-2" d="M1079.14,273.93c1.11,1.44,1.66,3.34,1.66,5.7v11.01c0,.34-.11.62-.33.84-.22.22-.5.33-.84.33s-.62-.11-.84-.33c-.22-.22-.33-.5-.33-.84v-10.89c0-1.71-.41-3.1-1.23-4.18-.82-1.08-2.09-1.61-3.82-1.61-1.1,0-2.13.26-3.11.78-.98.52-1.77,1.23-2.37,2.12-.6.89-.9,1.86-.9,2.9v10.89c0,.34-.11.62-.33.84-.22.22-.5.33-.84.33s-.62-.11-.84-.33c-.22-.22-.33-.5-.33-.84v-11.01c0-1.69-.39-3.05-1.17-4.1-.78-1.05-2.01-1.58-3.68-1.58-1.07,0-2.08.26-3.03.78-.95.52-1.72,1.21-2.31,2.08-.59.87-.88,1.81-.88,2.82v11.01c0,.34-.11.62-.33.84-.22.22-.5.33-.84.33s-.62-.11-.84-.33c-.22-.22-.33-.5-.33-.84v-17.42c0-.34.11-.62.33-.84.22-.22.5-.33.84-.33s.62.11.84.33c.22.22.33.5.33.84v2.26c.71-1.06,1.66-1.94,2.86-2.65s2.47-1.05,3.8-1.05c1.51,0,2.82.36,3.91,1.09,1.1.73,1.88,1.79,2.35,3.19.55-1.14,1.55-2.14,3.01-3,1.46-.86,2.94-1.28,4.42-1.28,2.35,0,4.08.72,5.19,2.16Z"/>
      <path class="cls-2" d="M1104.03,272.27c.22.23.33.52.33.86v17.5c0,.34-.11.62-.33.84-.22.22-.5.33-.84.33s-.62-.11-.84-.33c-.22-.22-.33-.5-.33-.84v-2.61c-.65,1.17-1.63,2.15-2.94,2.96-1.3.8-2.73,1.21-4.27,1.21-1.75,0-3.32-.45-4.72-1.36-1.4-.91-2.49-2.15-3.29-3.73-.8-1.58-1.19-3.36-1.19-5.33s.4-3.74,1.21-5.31c.81-1.57,1.91-2.79,3.31-3.68,1.4-.88,2.94-1.32,4.64-1.32,1.57,0,3,.38,4.31,1.13,1.3.75,2.28,1.74,2.94,2.96v-2.41c0-.34.11-.62.33-.86.22-.23.5-.35.84-.35s.62.12.84.35ZM1098.71,288.94c1.08-.71,1.93-1.7,2.54-2.96.61-1.26.92-2.66.92-4.22s-.31-2.88-.92-4.12-1.46-2.22-2.54-2.94c-1.08-.71-2.3-1.07-3.66-1.07s-2.58.35-3.66,1.05c-1.08.7-1.93,1.67-2.54,2.9-.61,1.23-.92,2.63-.92,4.18s.3,2.96.9,4.22c.6,1.26,1.44,2.24,2.53,2.96,1.08.71,2.32,1.07,3.7,1.07s2.58-.36,3.66-1.07Z"/>
      <path class="cls-2" d="M1109.06,287.79c0-.34.17-.6.51-.78.16-.16.37-.23.63-.23.31,0,.6.13.86.39,1.54,2.02,3.59,3.03,6.15,3.03,1.25,0,2.34-.29,3.27-.88.93-.58,1.39-1.43,1.39-2.55s-.43-1.91-1.29-2.45-2.06-1.01-3.6-1.4c-2.17-.54-3.86-1.25-5.09-2.12-1.23-.87-1.84-2.15-1.84-3.83,0-1.06.3-2.02.9-2.86.6-.84,1.42-1.5,2.45-1.96s2.2-.7,3.5-.7c1.12,0,2.25.21,3.39.64,1.14.43,2.11,1.11,2.92,2.04.24.18.35.44.35.78,0,.31-.13.58-.39.82-.18.16-.42.23-.7.23-.26,0-.5-.1-.71-.31-.63-.7-1.37-1.23-2.23-1.59-.86-.36-1.79-.54-2.78-.54-1.23,0-2.28.29-3.15.86-.88.57-1.31,1.43-1.31,2.57.05,1.04.53,1.83,1.43,2.37s2.22,1.04,3.97,1.48c1.36.34,2.48.71,3.37,1.13.89.42,1.61,1,2.17,1.75.56.75.84,1.75.84,2.99,0,1.69-.68,3.03-2.04,4.03-1.36,1-3.04,1.5-5.05,1.5-3.18,0-5.71-1.18-7.59-3.54-.21-.34-.31-.62-.31-.86Z"/>
      <path class="cls-2" d="M1127.42,287.79c0-.34.17-.6.51-.78.16-.16.37-.23.63-.23.31,0,.6.13.86.39,1.54,2.02,3.59,3.03,6.15,3.03,1.25,0,2.34-.29,3.27-.88.93-.58,1.39-1.43,1.39-2.55s-.43-1.91-1.29-2.45-2.06-1.01-3.6-1.4c-2.17-.54-3.86-1.25-5.09-2.12-1.23-.87-1.84-2.15-1.84-3.83,0-1.06.3-2.02.9-2.86.6-.84,1.42-1.5,2.45-1.96s2.2-.7,3.5-.7c1.12,0,2.25.21,3.39.64,1.14.43,2.11,1.11,2.92,2.04.24.18.35.44.35.78,0,.31-.13.58-.39.82-.18.16-.42.23-.7.23-.26,0-.5-.1-.71-.31-.63-.7-1.37-1.23-2.23-1.59-.86-.36-1.79-.54-2.78-.54-1.23,0-2.28.29-3.15.86-.88.57-1.31,1.43-1.31,2.57.05,1.04.53,1.83,1.43,2.37s2.22,1.04,3.97,1.48c1.36.34,2.48.71,3.37,1.13.89.42,1.61,1,2.17,1.75.56.75.84,1.75.84,2.99,0,1.69-.68,3.03-2.04,4.03-1.36,1-3.04,1.5-5.05,1.5-3.18,0-5.71-1.18-7.59-3.54-.21-.34-.31-.62-.31-.86Z"/>
      <path class="cls-2" d="M1164.62,272.27c.22.23.33.52.33.86v17.5c0,.34-.11.62-.33.84-.22.22-.5.33-.84.33s-.62-.11-.84-.33c-.22-.22-.33-.5-.33-.84v-2.61c-.65,1.17-1.63,2.15-2.94,2.96-1.3.8-2.73,1.21-4.27,1.21-1.75,0-3.32-.45-4.72-1.36-1.4-.91-2.49-2.15-3.29-3.73-.8-1.58-1.19-3.36-1.19-5.33s.4-3.74,1.21-5.31c.81-1.57,1.91-2.79,3.31-3.68,1.4-.88,2.94-1.32,4.64-1.32,1.57,0,3,.38,4.31,1.13,1.3.75,2.28,1.74,2.94,2.96v-2.41c0-.34.11-.62.33-.86s.5-.35.84-.35.62.12.84.35ZM1159.3,288.94c1.08-.71,1.93-1.7,2.54-2.96.61-1.26.92-2.66.92-4.22s-.31-2.88-.92-4.12c-.61-1.24-1.46-2.22-2.54-2.94-1.08-.71-2.3-1.07-3.66-1.07s-2.58.35-3.66,1.05c-1.08.7-1.93,1.67-2.54,2.9-.61,1.23-.92,2.63-.92,4.18s.3,2.96.9,4.22c.6,1.26,1.44,2.24,2.52,2.96,1.08.71,2.32,1.07,3.7,1.07s2.58-.36,3.66-1.07Z"/>
      <path class="cls-2" d="M1188.85,272.25c.22.22.33.51.33.88v16.84c0,2.02-.42,3.75-1.27,5.19-.85,1.44-2.01,2.53-3.48,3.29-1.47.75-3.16,1.13-5.07,1.13-.91,0-1.87-.12-2.88-.35s-1.87-.53-2.58-.9-1.13-.74-1.23-1.13c-.18-.18-.27-.39-.27-.62,0-.26.12-.47.35-.62.1-.08.23-.12.39-.12s.46.09.9.27l.82.35c1.62.62,3.13.93,4.54.93,2.32,0,4.14-.66,5.46-1.96,1.32-1.31,1.98-3.08,1.98-5.31v-2.41c-.65,1.4-1.68,2.5-3.09,3.29-1.41.79-2.88,1.19-4.42,1.19-1.8,0-3.42-.45-4.87-1.34-1.45-.89-2.59-2.13-3.42-3.71-.83-1.58-1.25-3.36-1.25-5.33s.42-3.71,1.25-5.29,1.98-2.82,3.42-3.71,3.06-1.34,4.83-1.34c1.64,0,3.15.41,4.52,1.23,1.37.82,2.38,1.8,3.03,2.94v-2.49c0-.34.11-.62.33-.86s.5-.35.84-.35.62.11.84.33ZM1183.37,288.98c1.13-.69,2.02-1.66,2.66-2.92.64-1.26.96-2.68.96-4.26s-.32-3-.96-4.24-1.53-2.21-2.66-2.9c-1.14-.69-2.42-1.03-3.86-1.03s-2.68.36-3.82,1.07c-1.14.71-2.02,1.69-2.66,2.94s-.96,2.63-.96,4.16.32,2.96.96,4.2,1.53,2.22,2.66,2.94c1.13.71,2.41,1.07,3.82,1.07s2.72-.34,3.86-1.03Z"/>
      <path class="cls-2" d="M1211.14,281.51c-.23.22-.51.33-.82.33h-14.8c0,1.56.32,2.95.96,4.18.64,1.23,1.55,2.2,2.74,2.92,1.19.71,2.59,1.07,4.21,1.07,1.25,0,2.37-.26,3.37-.78.99-.52,1.79-1.18,2.39-1.98.29-.23.56-.35.82-.35s.5.1.71.31c.21.21.31.44.31.7,0,.29-.13.56-.39.82-.83,1.01-1.88,1.84-3.15,2.49s-2.6.97-4.01.97c-2.01,0-3.78-.43-5.32-1.28-1.54-.86-2.74-2.05-3.6-3.6-.86-1.54-1.29-3.33-1.29-5.35,0-2.13.42-3.99,1.27-5.58s1.98-2.81,3.39-3.66c1.41-.84,2.91-1.26,4.5-1.26s3.03.36,4.4,1.09c1.37.73,2.49,1.79,3.35,3.19.86,1.4,1.3,3.06,1.33,4.98,0,.31-.12.58-.35.8ZM1198.2,275.27c-1.29,1.04-2.12,2.53-2.49,4.47h13.35v-.31c-.13-1.17-.52-2.18-1.17-3.05-.65-.87-1.47-1.53-2.45-1.98-.98-.45-1.99-.68-3.03-.68-1.51,0-2.92.52-4.21,1.56Z"/>
    </g>
    <g>
      <g>
        <path class="cls-2" d="M1074.62,423.26c-.64-1.07-1.31-2.28-1.95-3.37-.47-.91-1.31-2.57-1.76-3.48-.5-1.18-1.34-2.9-1.78-4.1-.3-.76-.71-1.86-1-2.62-.08-.27-.77-2.33-.87-2.67-.25-.71-.42-1.44-.62-2.16-.19-.66-.42-1.52-.57-2.18l-.48-2.2c-.65-3.13-1.03-6.32-1.22-9.51-.43-8.11.63-16.32,3.15-24.04,1.51-4.63,3.47-9.15,6.16-13.22,2.97-.15,5.96.07,8.9.43,15.33,1.94,30.09,9.16,40.57,20.56.44.52,1.79,1.99,2.22,2.53.51.62,1.58,2.01,2.09,2.64.36.53,1.57,2.21,1.93,2.74.6.89,1.51,2.39,2.09,3.3.61,1.11,1.28,2.3,1.88,3.41-.73-1.02-1.52-2.13-2.25-3.16-.94-1.19-2.1-2.77-3.1-3.89-6.31-7.54-14.22-13.82-23.04-18.1-6.83-3.3-14.2-5.54-21.72-6.54-2.83-.38-5.68-.62-8.53-.55l1.32-.75c-.38.58-.73,1.17-1.06,1.77-7.44,13.67-9.66,30-6.77,45.26.22,1.02.41,2.21.67,3.22.17.63.6,2.57.81,3.19.3.96.62,2.22.94,3.17.21.57.85,2.56,1.06,3.14.36.95,1.04,2.66,1.4,3.61.51,1.15,1.05,2.41,1.54,3.57h0Z"/>
        <path class="cls-2" d="M1192.14,423.26c.49-1.15,1.04-2.41,1.54-3.57.36-.95,1.04-2.67,1.4-3.61.2-.62.84-2.48,1.06-3.14.32-.95.65-2.2.94-3.17.22-.64.63-2.5.81-3.19.27-1.01.45-2.19.67-3.22,2.88-15.26.67-31.58-6.77-45.26-.34-.6-.69-1.2-1.06-1.77l1.32.75c-2.85-.07-5.7.17-8.53.55-7.51,1-14.89,3.24-21.72,6.54-8.83,4.28-16.74,10.56-23.04,18.1-1.01,1.12-2.16,2.71-3.1,3.89-.73,1.03-1.52,2.14-2.25,3.16.59-1.11,1.27-2.31,1.88-3.41.56-.9,1.51-2.42,2.09-3.3.37-.55,1.54-2.17,1.93-2.74.5-.62,1.61-2.05,2.09-2.64.43-.54,1.75-1.97,2.22-2.53,10.49-11.39,25.24-18.62,40.57-20.56,2.94-.35,5.93-.58,8.9-.43,2.69,4.08,4.64,8.6,6.16,13.22,2.51,7.72,3.57,15.94,3.15,24.04-.2,3.19-.58,6.38-1.22,9.51-.26,1.26-.68,3.14-1.05,4.38-.2.72-.37,1.45-.62,2.16-.23.65-.8,2.55-1.07,3.19-.2.51-.6,1.58-.8,2.09-.45,1.2-1.27,2.93-1.78,4.1-.45.91-1.29,2.57-1.76,3.48-.64,1.08-1.3,2.3-1.95,3.37h0Z"/>
      </g>
      <path class="cls-2" d="M1196.16,415.15c-5.65,17.97-19.89,32.95-37.27,40.16-15.62,6.6-33.7,7.06-49.68,1.4-19.22-6.73-34.8-21.87-42.14-40.85-6.52-16.69-6.31-35.85.66-52.35,6.28-14.97,17.96-27.56,32.52-34.76,11.19-5.58,24.01-7.92,36.34-6.4.15,0,.28.15.26.3-.02.14-.14.24-.28.24-7.96-.28-15.96.84-23.5,3.36-3.23,1.07-6.39,2.41-9.41,3.96-17.34,8.9-30.11,25.18-34.5,44.18-1.11,4.77-1.69,9.7-1.73,14.6-.47,35.93,28.64,66.18,64.57,67.07,27.41,1.04,53.28-15.74,63.66-41.12.06-.14.21-.2.35-.14.14.06.2.21.15.35h0Z"/>
    </g>
  </g>
  <g>
    <g>
      <g>
        <circle class="cls-3" cx="1080.8" cy="988.52" r="150.37"/>
        <path class="cls-1" d="M1080.8,1144.01c-85.74,0-155.49-69.75-155.49-155.49s69.75-155.49,155.49-155.49,155.49,69.75,155.49,155.49-69.75,155.49-155.49,155.49ZM1080.8,843.28c-80.09,0-145.24,65.15-145.24,145.24s65.16,145.24,145.24,145.24,145.24-65.15,145.24-145.24-65.16-145.24-145.24-145.24Z"/>
      </g>
      <circle class="cls-1" cx="1080.8" cy="988.52" r="138.23"/>
    </g>
    <g>
      <path class="cls-2" d="M1057.57,915.27c.42.21.63.52.63.93,0,.36-.1.66-.31.88-.21.22-.46.33-.74.33-.13,0-.39-.06-.76-.19-.38-.13-.74-.19-1.08-.19-.97,0-1.92.37-2.88,1.11-.95.74-1.74,1.69-2.35,2.86s-.92,2.35-.92,3.54v9.61c0,.34-.11.62-.33.84-.22.22-.5.33-.84.33s-.62-.11-.84-.33c-.22-.22-.33-.5-.33-.84v-17.42c0-.34.11-.62.33-.84.22-.22.5-.33.84-.33s.62.11.84.33c.22.22.33.5.33.84v3.42c.6-1.48,1.51-2.7,2.72-3.68,1.21-.97,2.64-1.47,4.29-1.5.52,0,.99.1,1.41.31Z"/>
      <path class="cls-2" d="M1077.57,925.02c-.23.22-.51.33-.82.33h-14.8c0,1.56.32,2.95.96,4.18.64,1.23,1.55,2.2,2.74,2.92,1.19.71,2.59,1.07,4.21,1.07,1.25,0,2.37-.26,3.37-.78.99-.52,1.79-1.18,2.39-1.98.29-.23.56-.35.82-.35s.5.1.71.31c.21.21.31.44.31.7,0,.29-.13.56-.39.82-.83,1.01-1.88,1.84-3.15,2.49s-2.6.97-4.01.97c-2.01,0-3.78-.43-5.32-1.28-1.54-.86-2.74-2.05-3.6-3.6-.86-1.54-1.29-3.33-1.29-5.35,0-2.13.42-3.99,1.27-5.58s1.98-2.81,3.39-3.66c1.41-.84,2.91-1.26,4.5-1.26s3.03.36,4.4,1.09c1.37.73,2.49,1.79,3.35,3.19.86,1.4,1.3,3.06,1.33,4.98,0,.31-.12.58-.35.8ZM1064.63,918.77c-1.29,1.04-2.12,2.53-2.49,4.47h13.35v-.31c-.13-1.17-.52-2.18-1.17-3.05-.65-.87-1.47-1.53-2.45-1.98-.98-.45-1.99-.68-3.03-.68-1.51,0-2.92.52-4.21,1.56Z"/>
      <path class="cls-2" d="M1082.66,912.1c-.29-.25-.43-.6-.43-1.07v-.39c0-.47.15-.82.45-1.07s.71-.37,1.23-.37c1.04,0,1.57.48,1.57,1.44v.39c0,.47-.14.82-.41,1.07-.27.25-.67.37-1.19.37s-.93-.12-1.21-.37ZM1084.71,934.97c-.22.22-.5.33-.84.33s-.62-.11-.84-.33c-.22-.22-.33-.5-.33-.84v-17.89c0-.34.11-.62.33-.84.22-.22.5-.33.84-.33s.62.11.84.33c.22.22.33.5.33.84v17.89c0,.34-.11.62-.33.84Z"/>
      <path class="cls-2" d="M1107.36,934.14c0,.34-.14.62-.41.84-.27.22-.53.33-.76.33-.34,0-.63-.14-.86-.43l-8.65-9.1-2.94,2.49v5.87c0,.34-.11.62-.33.84-.22.22-.5.33-.84.33s-.62-.11-.84-.33c-.22-.22-.33-.5-.33-.84v-26.45c0-.34.11-.62.33-.84.22-.22.5-.33.84-.33s.62.11.84.33.33.5.33.84v17.74l11.31-9.69c.23-.26.51-.39.82-.39.29,0,.55.12.78.37.24.25.35.51.35.8,0,.31-.14.61-.43.9l-8.06,6.81,8.49,9.02c.23.26.35.56.35.89Z"/>
      <path class="cls-2" d="M1111.98,912.1c-.29-.25-.43-.6-.43-1.07v-.39c0-.47.15-.82.45-1.07s.71-.37,1.23-.37c1.04,0,1.57.48,1.57,1.44v.39c0,.47-.14.82-.41,1.07-.27.25-.67.37-1.19.37s-.93-.12-1.21-.37ZM1114.03,934.97c-.22.22-.5.33-.84.33s-.62-.11-.84-.33c-.22-.22-.33-.5-.33-.84v-17.89c0-.34.11-.62.33-.84.22-.22.5-.33.84-.33s.62.11.84.33c.22.22.33.5.33.84v17.89c0,.34-.11.62-.33.84Z"/>
    </g>
    <g>
      <g>
        <path class="cls-2" d="M1054.49,1048.09c10.9-.35,21.88-3.43,31.01-9.49,6.85-4.57,12.34-10.94,16.45-18.03l.18-.29s.01-.02.01-.02c0,0,0,0,0,0h0s0-.05,0-.07c0,0,0,0,0-.02-5.59-9.18-13.55-17.14-23.28-21.86-5.55-2.68-11.65-4.22-17.77-4.76l-.68-.07-.34-.03c-.42-.02-1.32-.06-1.7-.08l-.68-.04-.34-.02c-.61,0-1.78-.02-2.39-.02-.2,0-.55,0-.48,0-.02,0-.03.02-.04.03-.59,1.01-1.12,2.05-1.63,3.11-7.38,15.49-8.38,32-.55,47.53.61,1.31,1.38,2.65,2.08,3.92l.08.15.02.03s.04.03.07.03h0ZM1054.5,1049.5c-.62,0-1.15-.37-1.4-.93l-.17-.31c-.66-1.2-1.34-2.5-1.9-3.74-.9-1.89-1.6-3.87-2.28-5.86-.23-.77-.57-1.9-.78-2.68-.09-.41-.39-1.6-.49-2.03-.2-.89-.37-1.84-.54-2.73-.12-.82-.31-1.94-.4-2.75-.21-1.76-.38-3.77-.41-5.54-.09-2.28,0-4.67.18-6.94.7-8.14,2.86-16.25,6.89-23.4.27-.46.85-.74,1.37-.7h.35c.42,0,1.66.04,2.1.05,6.27.25,12.49,1.71,18.28,4.13,10.86,4.59,20.61,12.22,27.19,22.06.29.44.57.89.84,1.34.28.46.28,1.07,0,1.53-2.39,4.13-5.34,7.96-8.76,11.28-10.56,10.28-25.31,16.8-40.08,17.25h0Z"/>
        <path class="cls-2" d="M1053.95,1048.1c4.74-.38,9.52.08,14.17,1.04,7.65,1.61,14.96,4.98,20.97,9.98,4.85,4.04,8.82,9.12,11.79,14.66-3.61-6.34-8.51-11.98-14.56-16.1-5.51-3.78-11.87-6.29-18.42-7.5-4.26-.78-8.63-1.09-12.95-.76-.28.02-.57.05-.84.09l-.17-1.4h0Z"/>
        <path class="cls-2" d="M1054.63,1049.17c-2.5,4.15-4.3,8.7-5.64,13.35-2.44,8.56-2.91,17.73-1.1,26.47,1.2,5.61,3.3,11.02,6.14,16.02-3.14-5.26-5.54-11.04-6.78-17.06-2.33-10.9-1.04-22.42,2.99-32.77.91-2.32,1.93-4.6,3.19-6.76l1.2.75h0Z"/>
      </g>
      <path class="cls-2" d="M1099.85,1073.92c-14.35.56-28.85-5.38-38.92-15.64-21.58-21.55-20.67-57.75,2-78.15,9.63-8.82,22.59-13.94,35.66-13.85,1.33,0,2.67.05,4,.17-3.54.02-7.08.34-10.56,1.01-17.22,3.17-32.45,15.19-39.42,31.26-15.14,34.89,9.42,73.39,47.24,75.21h0Z"/>
    </g>
  </g>
  <g>
    <g>
      <g>
        <circle class="cls-3" cx="315.6" cy="514.77" r="150.37"/>
        <path class="cls-1" d="M315.6,670.25c-85.74,0-155.49-69.75-155.49-155.49s69.75-155.49,155.49-155.49,155.49,69.75,155.49,155.49-69.75,155.49-155.49,155.49ZM315.6,369.52c-80.09,0-145.24,65.15-145.24,145.24s65.16,145.24,145.24,145.24,145.24-65.15,145.24-145.24-65.16-145.24-145.24-145.24Z"/>
      </g>
      <circle class="cls-1" cx="315.6" cy="514.77" r="138.37"/>
    </g>
    <g>
      <path class="cls-2" d="M379.99,591.23c-.31.54-.64,1.07-.97,1.59-12.39,19.76-34.93,32.16-58.61,31.27-35.94-.89-65.06-31.16-64.59-67.1.03-4.9.62-9.84,1.73-14.61,4.4-19.01,17.17-35.29,34.52-44.2,3.02-1.55,6.19-2.89,9.41-3.96,7.55-2.52,15.56-3.65,23.51-3.37.14,0,.26-.1.28-.24.02-.16-.1-.29-.26-.3-12.34-1.51-25.16.82-36.36,6.4-14.57,7.2-26.25,19.8-32.53,34.77-6.97,16.51-7.19,35.68-.66,52.37,7.35,18.99,22.93,34.14,42.16,40.87,15.98,5.65,34.07,5.19,49.7-1.4,13.89-5.76,26.07-18.13,33.17-31.38"/>
      <path class="cls-2" d="M260.62,591.21c20.12-33.04,40.17-67.45,59.63-100.9,0,0,.09-.15.09-.15h.17c11.84-.13,23.58,3.14,34.04,8.59,9.15,4.85,17.55,11.67,23.38,20.34.26.39.76,1.15,1.01,1.53.58.95.91,2.05.92,3.16.02,1.38-.46,2.75-1.3,3.84-1.09,1.52-2.27,2.98-3.5,4.39-11.17,12.43-28.87,23.78-45.5,26.5-2.96.48-5.96.72-8.97.73l-.05-2.65c.22,0,.41,0,.61,0h.58c11.82.33,23.62,3.48,33.95,9.26,8.96,5.02,16.65,12.28,22.05,21.02.99,1.61,1.91,3.26,2.76,4.94.04.08,0,.17-.07.21-.07.04-.16.01-.21-.06,0,0-.59-.96-.59-.96-6.01-9.84-14.7-18.05-24.92-23.34-7.86-4.12-16.5-6.7-25.29-7.84-2.74-.35-5.49-.58-8.25-.57h-.52s-.05-2.64-.05-2.64c20.1-.03,36.97-7.06,49.87-22.73,2.11-2.49,4.1-5.08,5.96-7.75.92-1.17,1.08-2.83.3-4.12-4.07-6.69-9.03-12.9-15.16-17.84-11.44-9.19-26.42-13.57-41-13.36,0,0,.26-.16.26-.16-4.26,7.29-10.29,17.99-14.63,25.38-9.32,16.16-19.9,34.69-28.99,50.93-4.15,7.42-10.22,18.22-14.26,25.6-.35.64-1.16.88-1.8.52-.66-.36-.89-1.21-.49-1.86h0Z"/>
      <path class="cls-2" d="M321.7,557.1c12.45,19.69,10.44,45.13.92,65.58-.63,1.36-1.3,2.71-2.04,4.02,1.37-2.67,2.49-5.46,3.51-8.28,4.96-13.95,6.75-29.52,2.73-43.91-1.58-5.69-4.1-11.09-7.35-15.98-.93-1.5,1.21-2.93,2.24-1.43h0Z"/>
      <path class="cls-2" d="M320.53,491.69c6.03,8.91,9.36,20.14,9.93,30.85.13,2.1.1,4.49,0,6.6-.04,1.02-.19,2.28-.26,3.3-.15,1.06-.27,2.23-.44,3.28l-.4,2.17c-.17,1.05-.49,2.19-.72,3.23-.78,3.18-1.86,6.39-3.12,9.42-.45,1.2-1.27,2.85-1.81,4.02l-.23.5-.26.49c-.36.69-1.18,2.23-1.54,2.92l-1.01,1.91c-.48-.72-1.44-2.06-1.86-2.77-1.36-2.2-2.51-4.56-3.52-6.94-8.09-19.61-5.42-40.92,5.22-58.99h0ZM320.53,491.69c-3.48,7.52-6.04,15.41-7.19,23.59-1.86,13.65.37,28.01,7.2,40.04.34.59.7,1.17,1.08,1.73l-2.24.12c.36-.66,1.16-2.19,1.5-2.82.13-.23.37-.71.48-.95.34-.71,1.04-2.2,1.35-2.89.24-.6.96-2.32,1.22-2.95,1.51-3.95,2.7-8.08,3.48-12.25,2.66-14.74.21-30.42-6.89-43.63h0Z"/>
    </g>
    <g>
      <path class="cls-2" d="M229,440.24c.22.23.33.52.33.86v17.5c0,.34-.11.62-.33.84-.22.22-.5.33-.84.33s-.62-.11-.84-.33c-.22-.22-.33-.5-.33-.84v-2.61c-.65,1.17-1.63,2.15-2.94,2.96-1.31.8-2.73,1.21-4.27,1.21-1.75,0-3.32-.45-4.72-1.36s-2.49-2.15-3.29-3.73c-.8-1.58-1.19-3.36-1.19-5.33s.4-3.74,1.21-5.31c.81-1.57,1.91-2.79,3.31-3.68,1.4-.88,2.94-1.32,4.64-1.32,1.57,0,3,.38,4.31,1.13,1.3.75,2.28,1.74,2.94,2.96v-2.41c0-.34.11-.62.33-.86.22-.23.5-.35.84-.35s.62.12.84.35ZM223.68,456.91c1.08-.71,1.93-1.7,2.54-2.96.61-1.26.92-2.66.92-4.22s-.31-2.88-.92-4.12c-.61-1.24-1.46-2.22-2.54-2.94-1.08-.71-2.3-1.07-3.66-1.07s-2.58.35-3.66,1.05-1.93,1.67-2.54,2.9c-.61,1.23-.92,2.63-.92,4.18s.3,2.96.9,4.22c.6,1.26,1.44,2.24,2.52,2.96,1.08.71,2.32,1.07,3.7,1.07s2.58-.36,3.66-1.07Z"/>
      <path class="cls-2" d="M247.55,439.83c1.06.27,1.91.64,2.54,1.11.64.47.96.97.96,1.52,0,.29-.1.54-.29.78-.2.23-.44.35-.72.35-.26,0-.48-.05-.65-.16-.17-.1-.36-.26-.57-.47-.34-.34-.67-.58-.98-.74-.39-.18-.91-.33-1.55-.45-.64-.12-1.32-.17-2.05-.17-1.44,0-2.75.36-3.93,1.09-1.19.73-2.12,1.71-2.8,2.96-.68,1.24-1.02,2.62-1.02,4.12s.33,2.96.98,4.2,1.56,2.22,2.72,2.94c1.16.71,2.48,1.07,3.97,1.07.94,0,1.69-.08,2.25-.23.56-.16,1.12-.38,1.66-.66.18-.1.5-.34.94-.7.21-.18.39-.32.55-.41.16-.09.33-.14.51-.14.31,0,.56.1.74.29.18.19.27.45.27.76,0,.44-.31.91-.94,1.42-.63.51-1.49.94-2.58,1.3-1.1.36-2.31.54-3.64.54-1.91,0-3.6-.45-5.09-1.34-1.49-.89-2.64-2.13-3.46-3.71-.82-1.58-1.23-3.36-1.23-5.33s.42-3.62,1.25-5.19c.83-1.57,2.01-2.82,3.52-3.75,1.51-.93,3.25-1.4,5.21-1.4,1.23,0,2.37.14,3.42.41Z"/>
      <path class="cls-2" d="M267.67,439.83c1.06.27,1.9.64,2.54,1.11s.96.97.96,1.52c0,.29-.1.54-.29.78s-.44.35-.72.35c-.26,0-.48-.05-.65-.16-.17-.1-.36-.26-.57-.47-.34-.34-.67-.58-.98-.74-.39-.18-.91-.33-1.55-.45s-1.33-.17-2.05-.17c-1.44,0-2.75.36-3.93,1.09-1.19.73-2.12,1.71-2.8,2.96s-1.02,2.62-1.02,4.12.33,2.96.98,4.2c.65,1.24,1.56,2.22,2.72,2.94,1.16.71,2.49,1.07,3.97,1.07.94,0,1.69-.08,2.25-.23.56-.16,1.12-.38,1.66-.66.18-.1.5-.34.94-.7.21-.18.39-.32.55-.41.16-.09.33-.14.51-.14.31,0,.56.1.74.29s.27.45.27.76c0,.44-.31.91-.94,1.42-.63.51-1.49.94-2.58,1.3s-2.31.54-3.64.54c-1.9,0-3.6-.45-5.09-1.34-1.49-.89-2.64-2.13-3.46-3.71-.82-1.58-1.23-3.36-1.23-5.33s.42-3.62,1.25-5.19c.84-1.57,2.01-2.82,3.52-3.75s3.25-1.4,5.21-1.4c1.23,0,2.37.14,3.43.41Z"/>
      <path class="cls-2" d="M292.27,449.48c-.23.22-.51.33-.82.33h-14.79c0,1.56.32,2.95.96,4.18.64,1.23,1.55,2.2,2.74,2.92,1.19.71,2.59,1.07,4.21,1.07,1.25,0,2.38-.26,3.37-.78.99-.52,1.79-1.18,2.39-1.98.29-.23.56-.35.82-.35s.49.1.71.31c.21.21.31.44.31.7,0,.29-.13.56-.39.82-.83,1.01-1.88,1.84-3.15,2.49s-2.6.97-4.01.97c-2.01,0-3.78-.43-5.32-1.28-1.54-.86-2.74-2.05-3.6-3.6-.86-1.54-1.29-3.33-1.29-5.35,0-2.13.42-3.99,1.27-5.58.85-1.59,1.98-2.81,3.38-3.66,1.41-.84,2.91-1.26,4.5-1.26s3.03.36,4.4,1.09c1.37.73,2.48,1.79,3.35,3.19.86,1.4,1.3,3.06,1.33,4.98,0,.31-.12.58-.35.8ZM279.34,443.24c-1.29,1.04-2.12,2.53-2.49,4.47h13.35v-.31c-.13-1.17-.52-2.18-1.17-3.05-.65-.87-1.47-1.53-2.45-1.98-.98-.45-1.99-.68-3.03-.68-1.51,0-2.92.52-4.21,1.56Z"/>
      <path class="cls-2" d="M296.03,455.76c0-.34.17-.6.51-.78.16-.16.37-.23.63-.23.31,0,.6.13.86.39,1.54,2.02,3.59,3.03,6.14,3.03,1.25,0,2.34-.29,3.27-.88.93-.58,1.39-1.43,1.39-2.55s-.43-1.91-1.29-2.45-2.06-1.01-3.6-1.4c-2.17-.54-3.86-1.25-5.09-2.12-1.23-.87-1.84-2.15-1.84-3.83,0-1.06.3-2.02.9-2.86.6-.84,1.41-1.5,2.45-1.96s2.2-.7,3.5-.7c1.12,0,2.25.21,3.38.64,1.14.43,2.11,1.11,2.92,2.04.24.18.35.44.35.78,0,.31-.13.58-.39.82-.18.16-.42.23-.7.23-.26,0-.5-.1-.71-.31-.63-.7-1.37-1.23-2.23-1.59-.86-.36-1.79-.54-2.78-.54-1.23,0-2.28.29-3.15.86-.88.57-1.31,1.43-1.31,2.57.05,1.04.53,1.83,1.43,2.37s2.22,1.04,3.97,1.48c1.36.34,2.48.71,3.37,1.13.89.42,1.61,1,2.17,1.75.56.75.84,1.75.84,2.99,0,1.69-.68,3.03-2.04,4.03-1.36,1-3.04,1.5-5.05,1.5-3.18,0-5.71-1.18-7.59-3.54-.21-.34-.31-.62-.31-.86Z"/>
      <path class="cls-2" d="M314.39,455.76c0-.34.17-.6.51-.78.16-.16.37-.23.63-.23.31,0,.6.13.86.39,1.54,2.02,3.59,3.03,6.15,3.03,1.25,0,2.34-.29,3.27-.88s1.39-1.43,1.39-2.55-.43-1.91-1.29-2.45-2.06-1.01-3.6-1.4c-2.17-.54-3.86-1.25-5.09-2.12-1.23-.87-1.84-2.15-1.84-3.83,0-1.06.3-2.02.9-2.86.6-.84,1.42-1.5,2.45-1.96s2.2-.7,3.5-.7c1.12,0,2.25.21,3.39.64,1.13.43,2.11,1.11,2.92,2.04.23.18.35.44.35.78,0,.31-.13.58-.39.82-.18.16-.42.23-.71.23-.26,0-.5-.1-.71-.31-.62-.7-1.37-1.23-2.23-1.59-.86-.36-1.79-.54-2.78-.54-1.23,0-2.28.29-3.15.86-.88.57-1.31,1.43-1.31,2.57.05,1.04.53,1.83,1.43,2.37s2.22,1.04,3.97,1.48c1.36.34,2.48.71,3.37,1.13.89.42,1.61,1,2.17,1.75s.84,1.75.84,2.99c0,1.69-.68,3.03-2.04,4.03-1.36,1-3.04,1.5-5.05,1.5-3.19,0-5.71-1.18-7.59-3.54-.21-.34-.31-.62-.31-.86Z"/>
      <path class="cls-2" d="M359.09,440.75c1.41.88,2.51,2.11,3.31,3.68.79,1.57,1.19,3.34,1.19,5.31s-.4,3.71-1.19,5.31c-.8,1.59-1.89,2.85-3.29,3.75-1.4.91-2.96,1.36-4.68,1.36-1.49,0-2.87-.37-4.13-1.11-1.27-.74-2.29-1.72-3.07-2.94v2.57c0,.34-.11.62-.33.86-.22.23-.5.35-.84.35s-.62-.12-.84-.35c-.22-.23-.33-.52-.33-.86v-26.49c0-.34.11-.62.33-.84.22-.22.5-.33.84-.33s.62.11.84.33c.22.22.33.5.33.84v11.47c.71-1.27,1.7-2.29,2.97-3.07,1.28-.78,2.68-1.17,4.19-1.17,1.72,0,3.29.44,4.7,1.32ZM357.85,456.89c1.08-.73,1.93-1.72,2.54-2.98s.92-2.65.92-4.18-.31-2.95-.92-4.18c-.61-1.23-1.46-2.2-2.54-2.9-1.08-.7-2.3-1.05-3.66-1.05s-2.62.34-3.72,1.03c-1.1.69-1.95,1.65-2.54,2.9s-.9,2.65-.9,4.2.31,2.96.92,4.22c.61,1.26,1.46,2.24,2.54,2.96,1.08.71,2.31,1.07,3.7,1.07s2.58-.36,3.66-1.09Z"/>
      <path class="cls-2" d="M385.52,440.24c.22.23.33.52.33.86v17.5c0,.34-.11.62-.33.84-.22.22-.5.33-.84.33s-.62-.11-.84-.33c-.22-.22-.33-.5-.33-.84v-2.61c-.65,1.17-1.63,2.15-2.94,2.96-1.3.8-2.73,1.21-4.27,1.21-1.75,0-3.32-.45-4.72-1.36s-2.49-2.15-3.29-3.73c-.8-1.58-1.19-3.36-1.19-5.33s.4-3.74,1.21-5.31c.81-1.57,1.91-2.79,3.31-3.68,1.4-.88,2.94-1.32,4.64-1.32,1.57,0,3,.38,4.3,1.13,1.3.75,2.28,1.74,2.94,2.96v-2.41c0-.34.11-.62.33-.86.22-.23.5-.35.84-.35s.62.12.84.35ZM380.2,456.91c1.08-.71,1.93-1.7,2.54-2.96.61-1.26.92-2.66.92-4.22s-.31-2.88-.92-4.12c-.61-1.24-1.46-2.22-2.54-2.94-1.08-.71-2.3-1.07-3.66-1.07s-2.58.35-3.66,1.05c-1.08.7-1.93,1.67-2.54,2.9-.61,1.23-.92,2.63-.92,4.18s.3,2.96.9,4.22c.6,1.26,1.44,2.24,2.52,2.96,1.08.71,2.32,1.07,3.7,1.07s2.58-.36,3.66-1.07Z"/>
      <path class="cls-2" d="M402.77,439.73c.42.21.63.52.63.93,0,.36-.11.66-.31.88-.21.22-.46.33-.74.33-.13,0-.39-.06-.76-.19-.38-.13-.74-.19-1.08-.19-.97,0-1.93.37-2.88,1.11-.95.74-1.74,1.69-2.35,2.86s-.92,2.35-.92,3.54v9.61c0,.34-.11.62-.33.84-.22.22-.5.33-.84.33s-.62-.11-.84-.33c-.22-.22-.33-.5-.33-.84v-17.42c0-.34.11-.62.33-.84.22-.22.5-.33.84-.33s.62.11.84.33c.22.22.33.5.33.84v3.42c.6-1.48,1.51-2.7,2.72-3.68s2.64-1.47,4.29-1.5c.52,0,.99.1,1.41.31Z"/>
      <path class="cls-2" d="M405.62,455.76c0-.34.17-.6.51-.78.16-.16.37-.23.63-.23.31,0,.6.13.86.39,1.54,2.02,3.59,3.03,6.15,3.03,1.25,0,2.34-.29,3.27-.88s1.39-1.43,1.39-2.55-.43-1.91-1.29-2.45-2.06-1.01-3.6-1.4c-2.17-.54-3.86-1.25-5.09-2.12-1.23-.87-1.84-2.15-1.84-3.83,0-1.06.3-2.02.9-2.86.6-.84,1.42-1.5,2.45-1.96s2.2-.7,3.5-.7c1.12,0,2.25.21,3.39.64,1.13.43,2.11,1.11,2.92,2.04.23.18.35.44.35.78,0,.31-.13.58-.39.82-.18.16-.42.23-.71.23-.26,0-.5-.1-.71-.31-.62-.7-1.37-1.23-2.23-1.59-.86-.36-1.79-.54-2.78-.54-1.23,0-2.28.29-3.15.86-.88.57-1.31,1.43-1.31,2.57.05,1.04.53,1.83,1.43,2.37s2.22,1.04,3.97,1.48c1.36.34,2.48.71,3.37,1.13.89.42,1.61,1,2.17,1.75s.84,1.75.84,2.99c0,1.69-.68,3.03-2.04,4.03-1.36,1-3.04,1.5-5.05,1.5-3.19,0-5.71-1.18-7.59-3.54-.21-.34-.31-.62-.31-.86Z"/>
    </g>
  </g>
  <g>
    <g>
      <circle class="cls-3" cx="155.49" cy="1047.97" r="150.37"/>
      <path class="cls-1" d="M155.49,1203.46c-85.74,0-155.49-69.75-155.49-155.49s69.75-155.49,155.49-155.49,155.49,69.75,155.49,155.49-69.75,155.49-155.49,155.49ZM155.49,902.73c-80.09,0-145.24,65.15-145.24,145.24s65.16,145.24,145.24,145.24,145.24-65.15,145.24-145.24-65.16-145.24-145.24-145.24Z"/>
    </g>
    <circle class="cls-1" cx="155.49" cy="1047.97" r="138.77"/>
    <g>
      <path class="cls-2" d="M127.84,973.08c.22.22.33.5.33.84v17.15c0,2.05-.4,3.8-1.21,5.25-.81,1.45-1.93,2.55-3.37,3.31-1.44.75-3.05,1.13-4.85,1.13-1.1,0-2.12-.12-3.07-.35-.95-.23-1.74-.54-2.37-.93-.55-.34-.82-.71-.82-1.13,0-.05.03-.18.08-.39.08-.26.21-.45.39-.58.18-.13.38-.19.59-.19.16,0,.31.04.47.12,1.67.91,3.26,1.36,4.78,1.36,2.17,0,3.88-.67,5.15-2.02,1.27-1.35,1.9-3.19,1.9-5.52v-1.36c-.65,1.09-1.59,1.96-2.82,2.63-1.23.66-2.56.99-3.99.99-2.27,0-3.99-.67-5.17-2.02-1.17-1.35-1.76-3.18-1.76-5.48v-11.94c0-.34.11-.62.33-.84.22-.22.5-.33.84-.33s.62.11.84.33.33.5.33.84v11.59c0,1.87.41,3.28,1.23,4.24.82.96,2.11,1.44,3.86,1.44,1.07,0,2.09-.27,3.07-.8.98-.53,1.76-1.23,2.35-2.1.59-.87.88-1.8.88-2.78v-11.59c0-.34.11-.62.33-.84s.5-.33.84-.33.62.11.84.33Z"/>
      <path class="cls-2" d="M151.3,988.31c-.86,1.58-2.05,2.82-3.56,3.71-1.51.89-3.2,1.34-5.05,1.34s-3.54-.45-5.05-1.34c-1.51-.89-2.7-2.13-3.56-3.71-.86-1.58-1.29-3.35-1.29-5.29s.43-3.71,1.29-5.29c.86-1.58,2.05-2.83,3.56-3.73,1.51-.91,3.2-1.36,5.05-1.36s3.54.45,5.05,1.36c1.51.91,2.7,2.15,3.56,3.73.86,1.58,1.29,3.34,1.29,5.29s-.43,3.71-1.29,5.29ZM149.27,978.82c-.65-1.24-1.56-2.22-2.72-2.94-1.16-.71-2.45-1.07-3.86-1.07s-2.69.36-3.84,1.07c-1.15.71-2.05,1.69-2.72,2.94-.67,1.25-1,2.65-1,4.2s.33,2.92,1,4.16c.67,1.24,1.57,2.22,2.72,2.94s2.43,1.07,3.84,1.07,2.69-.35,3.86-1.05c1.16-.7,2.07-1.67,2.72-2.92.65-1.24.98-2.64.98-4.2s-.33-2.96-.98-4.2Z"/>
      <path class="cls-2" d="M175.16,973.43c.22.22.33.51.33.88v16.84c0,2.02-.42,3.75-1.27,5.19-.85,1.44-2.01,2.53-3.48,3.29-1.47.75-3.16,1.13-5.07,1.13-.91,0-1.87-.12-2.88-.35-1-.23-1.87-.53-2.58-.89s-1.13-.74-1.23-1.13c-.18-.18-.27-.39-.27-.62,0-.26.12-.47.35-.62.1-.08.23-.12.39-.12s.46.09.9.27l.82.35c1.62.62,3.13.93,4.54.93,2.32,0,4.14-.66,5.46-1.96,1.32-1.31,1.98-3.08,1.98-5.31v-2.41c-.65,1.4-1.68,2.5-3.09,3.29-1.41.79-2.88,1.19-4.42,1.19-1.8,0-3.43-.45-4.87-1.34-1.45-.89-2.59-2.13-3.42-3.71-.83-1.58-1.25-3.36-1.25-5.33s.42-3.71,1.25-5.29c.83-1.58,1.98-2.82,3.42-3.71,1.45-.89,3.06-1.34,4.83-1.34,1.64,0,3.15.41,4.52,1.22,1.37.82,2.38,1.8,3.03,2.94v-2.49c0-.34.11-.62.33-.86.22-.23.5-.35.84-.35s.62.11.84.33ZM169.68,990.15c1.13-.69,2.02-1.66,2.66-2.92.64-1.26.96-2.68.96-4.26s-.32-3-.96-4.24c-.64-1.25-1.53-2.21-2.66-2.9-1.14-.69-2.42-1.03-3.86-1.03s-2.68.36-3.82,1.07c-1.13.71-2.02,1.69-2.66,2.94-.64,1.25-.96,2.63-.96,4.16s.32,2.96.96,4.2c.64,1.24,1.53,2.22,2.66,2.94s2.41,1.07,3.82,1.07,2.72-.34,3.86-1.03Z"/>
      <path class="cls-2" d="M198.57,973.45c.22.23.33.52.33.86v17.5c0,.34-.11.62-.33.84-.22.22-.5.33-.84.33s-.62-.11-.84-.33c-.22-.22-.33-.5-.33-.84v-2.61c-.65,1.17-1.63,2.15-2.94,2.96-1.31.8-2.73,1.21-4.27,1.21-1.75,0-3.32-.45-4.72-1.36-1.4-.91-2.49-2.15-3.29-3.73s-1.19-3.36-1.19-5.33.4-3.74,1.21-5.31c.81-1.57,1.91-2.79,3.31-3.68,1.4-.88,2.94-1.32,4.64-1.32,1.57,0,3,.38,4.31,1.13,1.3.75,2.28,1.74,2.94,2.96v-2.41c0-.34.11-.62.33-.86s.5-.35.84-.35.62.12.84.35ZM193.24,990.12c1.08-.71,1.93-1.7,2.54-2.96s.92-2.67.92-4.22-.31-2.88-.92-4.12c-.61-1.24-1.46-2.22-2.54-2.94-1.08-.71-2.3-1.07-3.66-1.07s-2.58.35-3.66,1.05c-1.08.7-1.93,1.67-2.54,2.9-.61,1.23-.92,2.62-.92,4.18s.3,2.96.9,4.22,1.44,2.24,2.53,2.96c1.08.71,2.32,1.07,3.7,1.07s2.58-.36,3.66-1.07Z"/>
    </g>
    <g>
      <path class="cls-2" d="M157.53,1162.68c-28.81,1.19-56.95-16.6-67.86-43.41-11.5-27.23-3.56-59.57,18.89-78.67,12.55-10.92,28.99-17.23,45.6-17.51,2.35-.04,4.7.02,7.04.21-4.68.04-9.35.44-13.94,1.28-22.7,3.97-43.29,19.14-52.94,40.17-21.01,46.59,13.46,95.67,63.21,97.93h0Z"/>
      <path class="cls-2" d="M98.16,1053.32c9.05.5,18,2.59,26.55,5.76,11.51,4.33,22.45,11.11,30.51,21,16.2,19.75,15.52,45.91,7.58,69.34-1.03,3.01-2.16,5.98-3.36,8.92-.64,1.45-1.27,2.9-1.92,4.34,4.38-13.43,7.84-27.41,7.81-41.67.07-14.04-3.99-27.88-12.7-38.58-13.26-16.48-34.81-25.28-54.48-29.11h0Z"/>
      <path class="cls-2" d="M220.61,1053.33c-20.91,3.83-43.8,12.63-57.89,29.11-9.61,11.15-13.72,25.17-13.5,39.75.22,13.86,3.77,27.42,8.31,40.49-.69-1.44-1.36-2.89-2.04-4.34-1.59-3.63-3.11-7.42-4.34-11.2-7.77-22.76-7.74-48.11,8.83-67.06,8.57-9.88,20.19-16.67,32.42-21,9.09-3.17,18.6-5.26,28.21-5.76h0Z"/>
    </g>
  </g>
</svg>