<?xml version="1.0" encoding="UTF-8"?>
<svg id="Layer_1" xmlns="http://www.w3.org/2000/svg" viewBox="0 0 1440 1440">
  <defs>
    <style>
      .cls-1 {
        fill: #fff;
      }
    </style>
  </defs>
  <path class="cls-1" d="M1431.36,234.72c-5.76-28.8-14.4-56.16-25.92-77.76-12.96-27.36-30.24-50.4-50.4-70.56-21.6-21.6-44.64-38.88-72-51.84-21.6-11.52-48.96-20.16-77.76-25.92-18.72-4.32-60.48-7.2-92.16-7.2C1100.16,0,1082.88,0,1074.24,0H326.88c-31.68,1.44-73.44,4.32-92.16,8.64-28.8,5.76-56.16,14.4-77.76,25.92-27.36,12.96-50.4,30.24-70.56,50.4-21.6,21.6-38.88,44.64-51.84,72-11.52,21.6-20.16,48.96-25.92,77.76-4.32,18.72-7.2,60.48-7.2,92.16-1.44,12.96-1.44,30.24-1.44,38.88v747.36c1.44,31.68,4.32,73.44,8.64,92.16,5.76,28.8,14.4,56.16,25.92,77.76,12.96,27.36,30.24,50.4,50.4,70.56,21.6,21.6,44.64,38.88,72,51.84,21.6,11.52,48.96,20.16,77.76,25.92,18.72,4.32,60.48,7.2,92.16,7.2,12.96,1.44,30.24,1.44,38.88,1.44h747.36c31.68-1.44,73.44-4.32,92.16-8.64,28.8-5.76,56.16-14.4,77.76-25.92,27.36-12.96,50.4-30.24,70.56-50.4,21.6-21.6,38.88-44.64,51.84-72,11.52-21.6,20.16-48.96,25.92-77.76,4.32-18.72,7.2-60.48,7.2-92.16,1.44-12.96,1.44-30.24,1.44-38.88V326.88c-1.44-31.68-4.32-73.44-8.64-92.16ZM735.6,1220.87h-.21c-85.91-.04-170.32-21.58-245.29-62.46l-272.11,71.35,72.82-265.91c-44.92-77.81-68.55-166.09-68.52-256.53.11-282.93,230.38-513.1,513.3-513.1,137.31.06,266.19,53.5,363.1,150.49h0c96.92,96.99,150.25,225.91,150.2,363.03-.12,282.93-230.4,513.13-513.3,513.13Z"/>
  <path class="cls-1" d="M735.77,280.88c-235.33,0-426.72,191.32-426.81,426.47-.03,80.59,22.52,159.07,65.23,226.98l10.15,16.13-43.1,157.38,161.47-42.35,15.58,9.24c65.5,38.86,140.59,59.42,217.14,59.45h.17c235.15,0,426.54-191.33,426.64-426.5.04-113.96-44.29-221.12-124.84-301.73-80.55-80.61-187.67-125.04-301.62-125.08ZM986.72,890.72c-10.69,29.95-61.93,57.29-86.57,60.97-22.1,3.3-50.06,4.68-80.78-5.08-18.63-5.91-42.52-13.8-73.12-27.01-128.66-55.54-212.68-185.04-219.1-193.6-6.41-8.56-52.37-69.53-52.37-132.63s33.13-94.13,44.89-106.96c11.76-12.83,25.65-16.04,34.2-16.04s17.11.08,24.58.45c7.87.39,18.45-2.99,28.86,22.01,10.69,25.67,36.34,88.78,39.54,95.2s5.34,13.91,1.07,22.46c-4.27,8.56-6.41,13.91-12.82,21.39-6.41,7.49-13.47,16.72-19.24,22.46-6.42,6.39-13.11,13.33-5.62,26.17,7.48,12.84,33.22,54.83,71.35,88.82,48.99,43.68,90.31,57.22,103.14,63.64,12.83,6.42,20.31,5.35,27.79-3.21,7.48-8.56,32.06-37.44,40.61-50.27,8.55-12.84,17.1-10.7,28.85-6.42,11.76,4.28,74.82,35.3,87.64,41.72h0c12.83,6.42,21.38,9.63,24.58,14.98,3.21,5.35,3.21,31.02-7.48,60.97Z"/>
</svg>