<?xml version="1.0" encoding="UTF-8"?>
<svg id="Layer_1" xmlns="http://www.w3.org/2000/svg" viewBox="0 0 310.98 310.98">
  <defs>
    <style>
      .cls-1 {
        fill: #145c80;
      }

      .cls-2 {
        stroke: #fff;
        stroke-miterlimit: 10;
      }

      .cls-2, .cls-3 {
        fill: #fff;
      }
    </style>
  </defs>
  <g>
    <circle class="cls-3" cx="155.49" cy="155.49" r="150.37"/>
    <path class="cls-1" d="M155.49,310.98C69.75,310.98,0,241.23,0,155.49S69.75,0,155.49,0s155.49,69.75,155.49,155.49-69.75,155.49-155.49,155.49ZM155.49,10.25C75.4,10.25,10.25,75.4,10.25,155.49s65.16,145.24,145.24,145.24,145.24-65.15,145.24-145.24S235.58,10.25,155.49,10.25Z"/>
  </g>
  <circle class="cls-1" cx="155.5" cy="154.85" r="139.04"/>
  <g>
    <path class="cls-2" d="M127.84,80.59c.22.22.33.5.33.84v17.15c0,2.05-.4,3.8-1.21,5.25s-1.93,2.55-3.37,3.31c-1.44.75-3.05,1.13-4.85,1.13-1.1,0-2.12-.12-3.07-.35-.95-.23-1.74-.54-2.37-.93-.55-.34-.82-.71-.82-1.13,0-.05.03-.18.08-.39.08-.26.21-.45.39-.58.18-.13.38-.19.59-.19.16,0,.31.04.47.12,1.67.91,3.26,1.36,4.78,1.36,2.17,0,3.88-.67,5.15-2.02,1.27-1.35,1.9-3.19,1.9-5.52v-1.36c-.65,1.09-1.59,1.96-2.82,2.63-1.23.66-2.56.99-3.99.99-2.27,0-3.99-.67-5.17-2.02-1.17-1.35-1.76-3.18-1.76-5.48v-11.94c0-.34.11-.62.33-.84.22-.22.5-.33.84-.33s.62.11.84.33.33.5.33.84v11.59c0,1.87.41,3.28,1.23,4.24s2.11,1.44,3.86,1.44c1.07,0,2.09-.27,3.07-.8.98-.53,1.76-1.23,2.35-2.1.59-.87.88-1.8.88-2.78v-11.59c0-.34.11-.62.33-.84s.5-.33.84-.33.62.11.84.33v-.03Z"/>
    <path class="cls-2" d="M151.3,95.82c-.86,1.58-2.05,2.82-3.56,3.71s-3.2,1.34-5.05,1.34-3.54-.45-5.05-1.34c-1.51-.89-2.7-2.13-3.56-3.71s-1.29-3.35-1.29-5.29.43-3.71,1.29-5.29,2.05-2.83,3.56-3.73c1.51-.91,3.2-1.36,5.05-1.36s3.54.45,5.05,1.36c1.51.91,2.7,2.15,3.56,3.73s1.29,3.34,1.29,5.29-.43,3.71-1.29,5.29ZM149.27,86.33c-.65-1.24-1.56-2.22-2.72-2.94-1.16-.71-2.45-1.07-3.86-1.07s-2.69.36-3.84,1.07-2.05,1.69-2.72,2.94-1,2.65-1,4.2.33,2.92,1,4.16c.67,1.24,1.57,2.22,2.72,2.94s2.43,1.07,3.84,1.07,2.69-.35,3.86-1.05c1.16-.7,2.07-1.67,2.72-2.92.65-1.24.98-2.64.98-4.2s-.33-2.96-.98-4.2Z"/>
    <path class="cls-2" d="M175.16,80.94c.22.22.33.51.33.88v16.84c0,2.02-.42,3.75-1.27,5.19s-2.01,2.53-3.48,3.29c-1.47.75-3.16,1.13-5.07,1.13-.91,0-1.87-.12-2.88-.35-1-.23-1.87-.53-2.58-.89s-1.13-.74-1.23-1.13c-.18-.18-.27-.39-.27-.62,0-.26.12-.47.35-.62.1-.08.23-.12.39-.12s.46.09.9.27l.82.35c1.62.62,3.13.93,4.54.93,2.32,0,4.14-.66,5.46-1.96,1.32-1.31,1.98-3.08,1.98-5.31v-2.41c-.65,1.4-1.68,2.5-3.09,3.29s-2.88,1.19-4.42,1.19c-1.8,0-3.43-.45-4.87-1.34-1.45-.89-2.59-2.13-3.42-3.71s-1.25-3.36-1.25-5.33.42-3.71,1.25-5.29,1.98-2.82,3.42-3.71c1.45-.89,3.06-1.34,4.83-1.34,1.64,0,3.15.41,4.52,1.22,1.37.82,2.38,1.8,3.03,2.94v-2.49c0-.34.11-.62.33-.86.22-.23.5-.35.84-.35s.62.11.84.33v-.02ZM169.68,97.67c1.13-.69,2.02-1.66,2.66-2.92.64-1.26.96-2.68.96-4.26s-.32-3-.96-4.24c-.64-1.25-1.53-2.21-2.66-2.9-1.14-.69-2.42-1.03-3.86-1.03s-2.68.36-3.82,1.07c-1.13.71-2.02,1.69-2.66,2.94s-.96,2.63-.96,4.16.32,2.96.96,4.2,1.53,2.22,2.66,2.94,2.41,1.07,3.82,1.07,2.72-.34,3.86-1.03Z"/>
    <path class="cls-2" d="M198.57,80.96c.22.23.33.52.33.86v17.5c0,.34-.11.62-.33.84-.22.22-.5.33-.84.33s-.62-.11-.84-.33-.33-.5-.33-.84v-2.61c-.65,1.17-1.63,2.15-2.94,2.96-1.31.8-2.73,1.21-4.27,1.21-1.75,0-3.32-.45-4.72-1.36s-2.49-2.15-3.29-3.73-1.19-3.36-1.19-5.33.4-3.74,1.21-5.31c.81-1.57,1.91-2.79,3.31-3.68,1.4-.88,2.94-1.32,4.64-1.32,1.57,0,3,.38,4.31,1.13,1.3.75,2.28,1.74,2.94,2.96v-2.41c0-.34.11-.62.33-.86s.5-.35.84-.35.62.12.84.35h0ZM193.24,97.63c1.08-.71,1.93-1.7,2.54-2.96s.92-2.67.92-4.22-.31-2.88-.92-4.12c-.61-1.24-1.46-2.22-2.54-2.94-1.08-.71-2.3-1.07-3.66-1.07s-2.58.35-3.66,1.05c-1.08.7-1.93,1.67-2.54,2.9s-.92,2.62-.92,4.18.3,2.96.9,4.22,1.44,2.24,2.53,2.96c1.08.71,2.32,1.07,3.7,1.07s2.58-.36,3.66-1.07h0Z"/>
  </g>
  <g>
    <path class="cls-2" d="M157.53,270.19c-28.81,1.19-56.95-16.6-67.86-43.41-11.5-27.23-3.56-59.57,18.89-78.67,12.55-10.92,28.99-17.23,45.6-17.51,2.35-.04,4.7.02,7.04.21-4.68.04-9.35.44-13.94,1.28-22.7,3.97-43.29,19.14-52.94,40.17-21.01,46.59,13.46,95.67,63.21,97.93h0Z"/>
    <path class="cls-2" d="M98.16,160.84c9.05.5,18,2.59,26.55,5.76,11.51,4.33,22.45,11.11,30.51,21,16.2,19.75,15.52,45.91,7.58,69.34-1.03,3.01-2.16,5.98-3.36,8.92-.64,1.45-1.27,2.9-1.92,4.34,4.38-13.43,7.84-27.41,7.81-41.67.07-14.04-3.99-27.88-12.7-38.58-13.26-16.48-34.81-25.28-54.48-29.11h0Z"/>
    <path class="cls-2" d="M220.61,160.85c-20.91,3.83-43.8,12.63-57.89,29.11-9.61,11.15-13.72,25.17-13.5,39.75.22,13.86,3.77,27.42,8.31,40.49-.69-1.44-1.36-2.89-2.04-4.34-1.59-3.63-3.11-7.42-4.34-11.2-7.77-22.76-7.74-48.11,8.83-67.06,8.57-9.88,20.19-16.67,32.42-21,9.09-3.17,18.6-5.26,28.21-5.76h0Z"/>
  </g>
</svg>